<?xml version="1.0" encoding="utf-8"?>
<!-- Generator: Adobe Illustrator 25.3.1, SVG Export Plug-In . SVG Version: 6.00 Build 0)  -->
<svg version="1.1" id="Layer_1" xmlns="http://www.w3.org/2000/svg" xmlns:xlink="http://www.w3.org/1999/xlink" x="0px" y="0px"
	 viewBox="0 0 1728 1728" style="enable-background:new 0 0 1728 1728;" xml:space="preserve">
<style type="text/css">
	.st0{fill:#68707C;}
	.st1{fill:none;stroke:#9F9FA3;stroke-width:5;stroke-miterlimit:10;}
	.st2{fill:#F4D58D;stroke:#BC8833;stroke-width:4;stroke-miterlimit:10;}
	.st3{fill:#BC8833;}
	.st4{fill:none;stroke:#BC8833;stroke-width:5;stroke-miterlimit:10;}
	.st5{fill:#9F6B08;}
	.st6{fill:#D7A546;}
	.st7{fill:#FFFFFF;}
	.st8{fill:#F4D58D;}
	.st9{fill:#7F181B;}
	.st10{fill:#ED1B2E;}
	.st11{fill:#CD9A32;}
	.st12{fill:#F6D796;}
</style>
<g>
	<path class="st0" d="M1279.6,382.8L88.2,1582.5l-16,64l82-24L1351.9,436.6C1351.9,436.6,1346,331.2,1279.6,382.8z"/>
	<g>
		<line class="st1" x1="1314.8" y1="415.9" x2="102.7" y2="1624.5"/>
		<line class="st1" x1="119.2" y1="1624.5" x2="1324.8" y2="427.8"/>
		<line class="st1" x1="1331.9" y1="436.5" x2="148.2" y2="1612.5"/>
	</g>
	<path class="st2" d="M1225.6,349.3c0,0,42.2,12.9,89.2,66.6c47,53.7,65.3,95.5,65.3,95.5l56.9-70l-48.5-39.5c0,0,21-5.8,27.6-27.8
		c0,0,27-7.9,31.6-28.6c0,0,34.7-9.7,41.6-36.1c0,0,32.7-10.4,36.5-40c0,0,25.8-6.1,29.6-38.7c0,0,27.3-12.1,25.8-34.1
		c0,0,9.1-2.4,11.4-12.2c0,0,16.7,8.1,40.2-11.5c23.5-19.6,22-63.1-13.7-66c0,0-4.6-27.9-33.4-30.2c-28.8-2.3-44,31.1-42.5,50.1
		c-9.4,4.9-19,11.3-21.8,21.5c-10.5-1.8-21.8,2.9-27.9,11.6c-2.4,3.4-4,7.4-6.4,10.8c-5.6,8-15,12.2-23.4,17.2
		c-8.4,5-16.8,12.2-17.7,22c-14.2,0-24.4,13.2-32.3,25.1c-2.3,3.4-4.6,6.9-7.8,9.4c-2.9,2.3-6.4,3.7-9.7,5.5
		c-10.3,5.7-18.1,16-20.8,27.5c-0.3,1.1-0.5,2.3-1.3,3.3c-1,1.2-2.7,1.6-4.3,2c-11.6,3.1-21.3,12.5-24.8,23.9
		c-0.9,3.1-1.5,6.5-3.6,8.9c-1.5,1.8-3.5,2.9-5.4,4.3c-3.1,2.4-5.7,5.5-7.3,9.1c-1.9,4.2-4,9.9-8.6,9.3c-1.9-0.2-3.4-1.7-4.8-3.1
		c-16.4-17.1-30.6-36.2-42.1-56.9c-11.4,15.2-25.4,28.5-41.2,39.2c-5.7,3.8-11.9,7.6-15.1,13.7
		C1213.9,336.9,1219.1,347,1225.6,349.3z"/>
	<g>
		<path class="st3" d="M1581.1,196.5c-2,0.9-4.1,1.5-6.3,1.9c-2.2,0.4-4.4,0.6-6.6,0.7c-4.4,0.2-8.8-0.1-13.2-0.8
			c-8.7-1.2-17.2-4.1-25.2-7.3c-8-3.2-15.9-6.5-23.9-9.5c-2-0.7-4-1.4-6-2.1c-1-0.4-2-0.6-3-0.9c-1-0.3-2-0.5-3.1-0.7
			c-2.1-0.5-4.1-0.7-6.3-0.9c-2.1-0.1-4.3-0.1-6.4,0c2.1-0.7,4.2-1.1,6.4-1.4c2.2-0.2,4.4-0.3,6.6-0.1c4.4,0.3,8.8,1.3,13,2.4
			c8.4,2.3,16.5,5.4,24.6,8.6c2,0.8,4,1.6,6,2.4c2,0.8,4,1.5,6,2.2l1.5,0.5l1.5,0.5l3,1c1,0.3,2,0.5,3.1,0.8c1,0.3,2,0.6,3.1,0.8
			l3.1,0.7c1,0.2,2.1,0.4,3.1,0.6c2.1,0.4,4.2,0.7,6.3,0.9c2.1,0.2,4.2,0.3,6.4,0.3l1.6,0l1.6-0.1
			C1579,196.8,1580,196.7,1581.1,196.5z"/>
	</g>
	<g>
		<path class="st3" d="M1521.4,148.2c4.3,0.2,8.5,0.9,12.7,1.7c4.1,0.8,8.2,1.9,12.2,3.1c3.8,1.2,7.7,1.9,11.7,2.3
			c4,0.4,8.1,0.5,12.4,0.3c-1.9,1.1-3.9,1.9-6,2.5c-2.1,0.6-4.3,1-6.5,1.1c-4.4,0.3-8.9-0.1-13.1-1.4c-4-1.2-8-2.6-11.9-4.1
			C1529,152.1,1525.1,150.4,1521.4,148.2z"/>
	</g>
	<g>
		<path class="st3" d="M1541.3,127.7c1.8,3.2,3.7,6.3,6,9.1c2.2,2.8,4.7,5.3,7.4,7.5c1.4,1.1,2.8,2,4.3,2.8c0.7,0.4,1.5,0.8,2.3,1.1
			c0.8,0.3,1.5,0.6,2.3,0.9c3.2,1.1,6.5,1.3,9.9,1.2l2.7-0.1l0,2.7c0,0.6,0,1.4,0.1,2.1c0,0.7,0.2,1.5,0.2,2.2
			c0.2,1.5,0.5,2.9,0.9,4.4c0.8,2.9,1.9,5.8,3.3,8.4c1.5,2.7,3.1,5.3,5.2,7.6c0.9,1.3,2.1,2.3,3.2,3.5c0.5,0.6,1.2,1.1,1.8,1.6
			c0.6,0.5,1.2,1.1,1.8,1.6c-1.4-0.7-2.9-1.4-4.3-2.2c-1.4-0.9-2.8-1.8-4-2.9c-0.6-0.5-1.3-1-1.9-1.6l-1.7-1.8
			c-0.6-0.6-1.1-1.2-1.6-1.9c-0.5-0.7-1.1-1.3-1.5-2c-1.9-2.8-3.4-5.8-4.5-9.1c-0.5-1.6-1-3.3-1.3-4.9c-0.1-0.8-0.3-1.7-0.4-2.6
			c-0.1-0.4-0.1-0.9-0.1-1.3c0-0.2,0-0.4,0-0.7c0-0.2,0-0.4,0-0.7l2.7,2.6c-2,0.1-4,0.1-6-0.1c-1-0.1-2-0.3-3-0.5
			c-1-0.3-1.9-0.5-2.9-0.9c-3.8-1.3-7.2-3.6-10-6.3c-1.4-1.3-2.7-2.8-3.8-4.3c-1.1-1.5-2.1-3.2-3-4.8
			C1543.4,134.8,1541.9,131.3,1541.3,127.7z"/>
	</g>
	<g>
		<path class="st3" d="M1625.1,135c1.1,2.9,1.2,6.1,0.7,9.2c-0.6,3.1-2.1,6.2-4.3,8.6c-2.3,2.4-5.3,4.1-8.4,4.8
			c-3.1,0.7-6.3,0.6-9.2-0.4c2.9-1.1,5.5-2.1,7.9-3.3c2.4-1.2,4.4-2.7,6.1-4.5c1.7-1.8,3.1-3.9,4.3-6.4
			C1623.2,140.6,1624.2,137.9,1625.1,135z"/>
	</g>
	<g>
		<path class="st3" d="M1635.7,146.1c0.1,3.6-1.2,7.2-3,10.4c-1.9,3.2-4.5,6-7.7,8c-0.4,0.3-0.8,0.5-1.2,0.7l-1.2,0.7l-1.3,0.6
			c-0.4,0.2-0.9,0.3-1.3,0.5c-0.9,0.3-1.8,0.6-2.6,0.9c-0.9,0.2-1.8,0.3-2.7,0.5c-0.5,0.1-0.9,0.1-1.4,0.2l-1.4,0
			c-0.9,0-1.8,0-2.7,0c-0.9,0-1.8-0.2-2.7-0.4c-0.9-0.2-1.8-0.3-2.6-0.6c1.7-0.6,3.4-1,5-1.5c0.8-0.3,1.6-0.5,2.4-0.8l1.2-0.4
			l1.1-0.5c0.8-0.3,1.5-0.6,2.3-0.9l2.2-1c0.4-0.2,0.7-0.3,1.1-0.5l1-0.6l1-0.6c0.4-0.2,0.7-0.4,1-0.6c2.7-1.7,5.1-3.8,7.3-6.2
			C1631.8,151.8,1633.8,149.1,1635.7,146.1z"/>
	</g>
	<g>
		<path class="st3" d="M1597.8,91c-4.7-0.9-9.3-1-13.6-0.3c-4.3,0.7-8.4,2.2-11.9,4.6c-3.6,2.3-6.7,5.4-9.6,8.9
			c-2.9,3.5-5.4,7.3-8.1,11.3c0.8-4.7,2.4-9.3,4.9-13.6c2.5-4.2,5.8-8.1,10.1-10.9c4.3-2.8,9.4-4.3,14.4-4.3
			C1588.9,86.9,1593.9,88.2,1597.8,91z"/>
	</g>
	<g>
		<path class="st3" d="M1597.8,102.1c-2.9,0.2-5.5,0.5-8,1.2c-2.5,0.6-4.7,1.5-6.9,2.6c-0.5,0.3-1.1,0.6-1.6,0.9
			c-0.3,0.2-0.6,0.3-0.8,0.5c-0.3,0.2-0.5,0.4-0.8,0.5c-0.5,0.4-1.1,0.7-1.5,1.1c-0.5,0.4-1,0.8-1.5,1.2c-0.5,0.4-1,0.8-1.5,1.3
			c-0.5,0.4-1,0.9-1.5,1.3c-1,0.9-2,1.9-3.2,2.8c0.1-0.7,0.3-1.4,0.5-2.1c0.2-0.7,0.4-1.4,0.7-2.1c0.3-0.7,0.6-1.3,1-2
			c0.3-0.7,0.7-1.3,1.2-1.9c0.4-0.6,0.9-1.2,1.4-1.8c0.5-0.6,1.1-1.1,1.6-1.6c1.1-1.1,2.4-1.8,3.7-2.6c2.7-1.5,5.8-2.2,8.9-2.1
			C1592.4,99.5,1595.4,100.3,1597.8,102.1z"/>
	</g>
	<g>
		<path class="st3" d="M1446,209.7c2.3-0.5,4.7-0.6,7.1-0.6c2.4,0,4.7,0.1,7.1,0.3c4.7,0.4,9.4,1.2,14,2.1c4.6,0.9,9.2,2.2,13.7,3.5
			l6.7,2.2c2.2,0.7,4.4,1.5,6.6,2.2c8.8,2.9,17.7,5.5,26.7,7.9c4.5,1.1,9,2.2,13.6,3c2.3,0.4,4.6,0.7,6.9,0.9
			c1.1,0.1,2.3,0.1,3.5,0.1c1.2,0,2.3-0.2,3.4-0.6c-1,0.7-2.1,1-3.3,1.3c-1.2,0.3-2.4,0.4-3.5,0.6c-2.4,0.2-4.8,0.2-7.1,0.2
			c-4.7-0.2-9.5-0.8-14.1-1.6c-9.3-1.6-18.5-4-27.4-6.9c-2.2-0.7-4.5-1.5-6.7-2.3l-6.6-2.3c-4.4-1.5-8.8-2.9-13.2-4.2
			c-4.4-1.3-8.9-2.5-13.5-3.5C1455.3,210.8,1450.7,209.9,1446,209.7z"/>
	</g>
	<g>
		<path class="st3" d="M1525.7,269.3c-2.3,1.2-5,1.6-7.6,1.9c-2.6,0.2-5.3,0.2-7.9,0c-5.3-0.4-10.5-1.3-15.6-2.6
			c-10.2-2.5-20-6.5-29.6-10.4l-14.4-5.8c-4.8-1.9-9.6-3.7-14.4-5.3c-4.9-1.5-9.8-2.8-14.8-3.3c-5.1-0.6-10.2-0.3-15.4,0.3
			c4.9-1.7,10.2-2.7,15.5-2.8c5.3-0.1,10.7,0.7,15.8,2c5.2,1.2,10.2,2.9,15.1,4.6c4.9,1.8,9.8,3.7,14.6,5.6l7.2,3l3.6,1.5l3.6,1.4
			c4.7,2,9.6,3.7,14.4,5.4c4.9,1.5,9.8,3,14.8,3.9c2.5,0.5,5,0.8,7.6,1l1.9,0.1c0.6,0,1.3,0,1.9,0
			C1523.2,269.8,1524.5,269.7,1525.7,269.3z"/>
	</g>
	<g>
		<path class="st3" d="M1373.7,282.1c5-1.4,10.2-2.1,15.5-2.4c1.3-0.1,2.6-0.1,3.9-0.2l3.9,0c2.6,0.1,5.3,0.2,7.9,0.5
			c5.3,0.5,10.5,1.4,15.6,2.9l1.9,0.5c0.6,0.2,1.3,0.4,1.9,0.7c1.3,0.5,2.5,0.9,3.8,1.4c2.4,1.1,5,2.2,7.2,3.3
			c9.2,4.5,18.6,8.5,28.3,12c4.8,1.7,9.7,3.3,14.7,4.5c2.5,0.6,5,1.1,7.5,1.4c1.3,0.2,2.5,0.3,3.8,0.2c1.3,0,2.6-0.1,3.8-0.6
			c-1.1,0.7-2.4,1.1-3.7,1.3c-1.3,0.2-2.6,0.3-3.9,0.4c-2.6,0.1-5.3-0.1-7.9-0.4c-5.2-0.7-10.4-1.8-15.4-3.1
			c-10.1-2.8-19.9-6.6-29.3-11.2c-2.4-1.2-4.6-2.2-6.9-3.3c-1.2-0.5-2.3-0.9-3.5-1.4c-0.6-0.2-1.2-0.5-1.8-0.7l-1.8-0.6
			c-4.8-1.6-9.7-2.7-14.7-3.6c-5-0.8-10.1-1.4-15.2-1.6C1384.1,281.8,1378.9,281.8,1373.7,282.1z"/>
	</g>
	<g>
		<path class="st3" d="M1447.6,345.5c-4.7,0.2-9.5-0.6-14.1-1.5c-4.6-1-9.2-2.3-13.7-3.8c-4.5-1.5-8.9-3.3-13.2-5.2
			c-2.2-1-4.3-2-6.4-3l-6.3-3c-8.4-4-16.8-8.1-25.4-11.2c-4.3-1.5-8.7-2.7-13.3-3.1c-4.5-0.5-9.2-0.2-13.8,0.6
			c4.3-1.8,9.1-2.9,13.9-3.1c4.8-0.1,9.7,0.6,14.3,1.8c9.3,2.5,17.9,6.4,26.4,10.4l12.6,6.2c4.2,2,8.4,4,12.6,5.8
			c4.3,1.8,8.6,3.6,12.9,5.1C1438.5,343.2,1442.9,344.6,1447.6,345.5z"/>
	</g>
	<path class="st4" d="M1315.4,334.9c0,0,36.6,43.1,73,66.9l-48,45.7"/>
	<line class="st4" x1="1282.6" y1="384.2" x2="1324.8" y2="345.5"/>
	<g>
		<path class="st3" d="M1416,374c-2.2,0-4.3-0.4-6.4-0.8c-2.1-0.4-4.2-0.9-6.3-1.4c-4.2-1.1-8.3-2.5-12.3-4.1
			c-4-1.5-7.9-3.3-11.8-5.2c-3.8-1.9-7.6-3.9-11.4-5.9c-3.7-2-7.5-4-11.2-5.8c-3.7-1.8-7.6-3.4-11.5-4.7c-4-1.3-8-2.3-12.2-3.2
			c-4.1-0.9-8.3-1.6-12.6-2.5c4.3-0.2,8.6-0.2,12.9,0.1c2.2,0.1,4.3,0.4,6.5,0.6c2.2,0.3,4.3,0.7,6.4,1.2c4.3,1,8.5,2.4,12.4,4.2
			c4,1.7,7.8,3.7,11.6,5.8l11.2,6.1c3.7,2,7.5,3.9,11.2,5.8c3.8,1.8,7.6,3.7,11.5,5.3C1407.9,371.2,1411.8,372.8,1416,374z"/>
	</g>
	<g>
		<g>
			<polygon class="st3" points="1253.4,321.5 1276,345.5 1250,325.2 			"/>
		</g>
		<g>
			<polygon class="st3" points="1263.5,311.7 1279.5,331.7 1259.9,315.2 			"/>
		</g>
		<g>
			<polygon class="st3" points="1273.7,301.5 1287.3,318.9 1270.1,305 			"/>
		</g>
		<g>
			<polygon class="st3" points="1247.3,327.6 1256.9,340.5 1243.8,331.2 			"/>
		</g>
		<g>
			<polygon class="st3" points="1239.5,335.1 1248.2,345.5 1236.3,339 			"/>
		</g>
		<g>
			<polygon class="st3" points="1406,472.1 1393,456.2 1409.5,468.5 			"/>
		</g>
		<g>
			<polygon class="st3" points="1414.3,464 1402.4,449.9 1417.6,460.3 			"/>
		</g>
		<g>
			<polygon class="st3" points="1424,454.7 1410.8,442.4 1426.9,450.7 			"/>
		</g>
		<g>
			<polygon class="st3" points="1397.1,480.8 1385.2,465.1 1400.7,477.3 			"/>
		</g>
		<g>
			<polygon class="st3" points="1388,490.1 1380,479.1 1391.4,486.4 			"/>
		</g>
	</g>
	<g>
		<path class="st3" d="M1349.8,326.2c1-1.1,2-1.7,3.1-2.1c1.1-0.4,2.2-0.6,3.3-0.5c1.1,0,2.2,0.3,3.2,0.7c1,0.5,2.1,1.1,3,2.3
			c-1.2,0.9-2.2,1.3-3.3,1.6c-1,0.3-2,0.4-3,0.4c-1,0-2-0.2-3-0.6C1352,327.6,1351,327.1,1349.8,326.2z"/>
	</g>
	<g>
		<path class="st3" d="M1346.7,334c1.1-1.3,2.8-1.8,4.3-1.9c1.6,0,3,0.3,4.3,0.8c1.2,0.5,2.4,1.1,3.5,2c1.1,0.8,2.1,1.8,3,3.3
			c-1.6,0.5-3,0.5-4.4,0.4c-1.4-0.1-2.6-0.5-3.9-0.9c-1.2-0.5-2.3-1-3.3-1.6C1349.2,335.4,1348.2,334.7,1346.7,334z"/>
	</g>
	<g>
		<path class="st3" d="M1380.4,374.2c0-0.2,0.1-0.4,0.3-0.6c0.2-0.2,0.5-0.2,0.7-0.3c0.5-0.1,0.9-0.1,1.4,0c0.7,0.1,1.3,0.1,1.9,0.2
			c1.2,0.2,2.3,0.5,3.4,1c1.1,0.4,2.1,0.9,3.2,1.6c1.1,0.7,2.1,1.4,3.2,2.6c-1.4,0.9-2.8,1.2-4.2,1.2c-1.4,0-2.8-0.2-4-0.7
			c-1.3-0.5-2.5-1.2-3.5-2.2c-0.5-0.5-1-1-1.4-1.6c-0.1-0.3-0.3-0.5-0.4-0.7c-0.1-0.1-0.1-0.2-0.3-0.3
			C1380.7,374.2,1380.6,374.2,1380.4,374.2z"/>
	</g>
	<g>
		<path class="st3" d="M1344.2,359.7c1.3-0.8,2.5-1.1,3.6-1.3c1.2-0.1,2.3-0.1,3.4,0.1c1.1,0.2,2.1,0.6,3.2,1.2c1,0.6,2,1.3,2.9,2.6
			c-1.3,0.8-2.5,1.1-3.6,1.3c-1.2,0.1-2.3,0.1-3.4-0.1c-1.1-0.2-2.1-0.6-3.2-1.2C1346.1,361.7,1345.1,360.9,1344.2,359.7z"/>
	</g>
	<g>
		<path class="st3" d="M1403.9,354.6c1.4-0.4,2.5-0.5,3.6-0.5c1.1,0,2,0.2,3,0.4c0.9,0.3,1.9,0.6,2.8,1.2c0.9,0.5,1.8,1.2,2.8,2.3
			c-1.1,1-2.3,1.4-3.5,1.6c-1.2,0.2-2.3,0.1-3.5-0.2c-1.1-0.3-2.2-0.8-3.1-1.6C1405.2,357,1404.4,356,1403.9,354.6z"/>
	</g>
	<g>
		<path class="st3" d="M1410.3,347.8c1.9,0,3.5,0.4,4.9,0.5c1.4,0.2,2.6,0.3,4.1,0.5c1.4,0.2,3,0.4,4.5,0.9c1.6,0.5,3.3,1.3,4.5,2.7
			c-1.8,0.6-3.2,1-4.8,1.2c-1.5,0.2-3.2,0.4-4.9,0.1c-1.7-0.2-3.5-0.8-5-1.8C1412.2,350.8,1411.1,349.5,1410.3,347.8z"/>
	</g>
	<g>
		<path class="st3" d="M1370.6,382.8c1.7-0.1,3,0,4.3,0.1c1.3,0.1,2.4,0.3,3.6,0.6c1.2,0.2,2.3,0.5,3.5,0.9c1.2,0.4,2.5,0.8,4,1.6
			c-1.1,1.3-2.6,2-4,2.4c-1.5,0.4-3,0.4-4.5,0.1c-1.5-0.3-2.9-0.9-4.1-1.8C1372.2,385.6,1371.1,384.4,1370.6,382.8z"/>
	</g>
	<g>
		<path class="st3" d="M1448.9,316.8c1.6-0.7,3-1,4.4-1.1c1.4-0.2,2.7-0.2,4-0.1c1.3,0.1,2.6,0.3,4,0.6c1.3,0.4,2.7,0.8,4.2,1.7
			c-1.3,1.2-2.7,1.8-4.1,2.2c-1.4,0.4-2.9,0.5-4.4,0.4c-1.5-0.1-2.9-0.4-4.3-1C1451.4,318.9,1450.1,318.1,1448.9,316.8z"/>
	</g>
	<g>
		<path class="st3" d="M1437.1,321.7c2.2-0.1,4,0,5.9,0.2c1.8,0.2,3.6,0.5,5.4,0.8c1.8,0.3,3.5,0.7,5.3,1.2c1.8,0.5,3.6,1,5.6,1.9
			c-1.8,1.2-3.8,1.8-5.8,2c-2,0.3-4,0.2-6-0.2c-2-0.4-3.9-1-5.7-2C1440,324.7,1438.4,323.5,1437.1,321.7z"/>
	</g>
	<g>
		<path class="st3" d="M1434,331.6c1.4-0.8,2.6-1.1,3.9-1.3c1.2-0.2,2.4-0.2,3.5-0.1c1.2,0.1,2.3,0.4,3.4,0.8c1.2,0.4,2.3,1,3.5,2
			c-1.2,1.1-2.4,1.6-3.7,1.9c-1.3,0.3-2.5,0.4-3.8,0.3c-1.2-0.1-2.5-0.5-3.6-1C1436.1,333.6,1434.9,332.9,1434,331.6z"/>
	</g>
	<g>
		<path class="st3" d="M1374.8,293.2c1.3-1.1,2.7-1.7,4.1-2.1c1.4-0.4,2.7-0.6,4.1-0.7c1.3,0,2.9,0,4.4,0.5c1.5,0.5,3.2,1.5,3.7,3.2
			c-1.7,0.1-2.8,0.4-4.1,0.7c-1.2,0.3-2.5,0.5-3.9,0.5c-1.4,0-2.8-0.1-4.2-0.4C1377.7,294.7,1376.3,294.2,1374.8,293.2z"/>
	</g>
	<g>
		<path class="st3" d="M1368.9,300c2-1.2,4-1.9,6.2-2.4c2.1-0.5,4.3-0.7,6.4-0.7c2.2,0,4.4,0.4,6.5,1.1c2.1,0.7,4.1,1.8,5.8,3.5
			c-2.3,0.3-4.4,0.3-6.4,0.4c-2,0-4,0.1-6,0c-2-0.1-4-0.2-6.1-0.4C1373.2,301.2,1371.1,300.8,1368.9,300z"/>
	</g>
	<g>
		<path class="st3" d="M1368,306c1.1-1.5,2.7-2.5,4.3-3c1.6-0.5,3.3-0.7,4.9-0.7c1.6,0.1,3.1,0.3,4.8,0.8c1.6,0.5,3.4,1.6,4.1,3.4
			c-1.9,0-3.1,0.3-4.6,0.6c-1.4,0.2-3,0.4-4.5,0.3c-1.5,0-2.9-0.2-4.3-0.4C1371.3,306.6,1369.9,306.4,1368,306z"/>
	</g>
	<g>
		<path class="st3" d="M1404.8,257.8c1.2-1.7,2.9-2.8,4.8-3.6c1.8-0.8,3.8-1.2,5.8-1.3c2-0.1,4,0.3,5.9,1c1.9,0.7,3.6,1.8,4.9,3.4
			c-2.1,0.3-3.9,0.4-5.6,0.5c-1.7,0.1-3.4,0.1-5.1,0.2l-5.1,0.1C1408.7,258,1406.9,258,1404.8,257.8z"/>
	</g>
	<g>
		<path class="st3" d="M1401.7,264.2c1.2-1.7,2.9-2.8,4.8-3.6c1.8-0.8,3.8-1.2,5.8-1.3c2-0.1,4,0.3,5.9,1c1.9,0.7,3.6,1.8,4.9,3.4
			c-2.1,0.3-3.9,0.4-5.6,0.5c-1.7,0.1-3.4,0.1-5.1,0.2l-5.1,0.1C1405.6,264.4,1403.8,264.4,1401.7,264.2z"/>
	</g>
	<g>
		<path class="st3" d="M1399.3,271.7c1.2-1.7,2.9-2.8,4.8-3.6c1.8-0.8,3.8-1.2,5.8-1.3c2-0.1,4,0.3,5.9,1c1.9,0.7,3.6,1.8,4.9,3.4
			c-2.1,0.3-3.9,0.4-5.6,0.5c-1.7,0.1-3.4,0.1-5.1,0.2l-5.1,0.1C1403.2,271.9,1401.4,271.9,1399.3,271.7z"/>
	</g>
	<g>
		<path class="st3" d="M1475.9,277.2c0.9-0.4,2-0.5,2.9-0.5c1,0,1.9,0.1,2.7,0.3l4.7,0.6c1.6,0.2,3.2,0.4,4.8,0.8
			c1.7,0.4,3.4,0.8,5.2,1.7c-1.7,1.1-3.4,1.8-5.2,2.2c-1.8,0.4-3.6,0.5-5.5,0.3c-1.9-0.2-3.8-0.9-5.4-1.9
			C1478.5,279.6,1477.4,278.4,1475.9,277.2z"/>
	</g>
	<g>
		<path class="st3" d="M1470.2,284.8c0.6-0.3,1.4-0.2,2.1-0.1c0.7,0.1,1.3,0.3,1.9,0.4c1,0.1,2.2,0.1,3.5,0.2c2.5,0.2,5,0.4,7.4,0.8
			c2.4,0.3,4.7,0.6,7.1,0.9c2.4,0.3,4.8,0.4,7.5,0.5c-2,1.9-4.6,2.9-7.3,3.5c-2.7,0.5-5.4,0.5-8,0.2c-2.6-0.3-5.1-1-7.5-1.9
			c-0.6-0.2-1.2-0.4-1.8-0.7c-0.6-0.3-1.3-0.6-1.9-1.1C1471.9,286.4,1471.5,285.4,1470.2,284.8z"/>
	</g>
	<g>
		<path class="st3" d="M1471.9,295.4c1.8-0.7,3.4-1,5.1-1.2c1.6-0.2,3.2-0.3,4.8-0.3c1.6,0,3.2,0.2,4.8,0.5c1.6,0.3,3.3,0.8,5,1.8
			c-1.6,1.1-3.2,1.7-4.9,2.1c-1.6,0.4-3.3,0.6-5,0.6c-1.7,0-3.4-0.3-5-0.8C1474.9,297.6,1473.3,296.8,1471.9,295.4z"/>
	</g>
	<g>
		<path class="st3" d="M1518.9,240.2c1.8,0.1,3.1,0,4.4,0c1.3,0,2.6-0.1,3.9,0c1.3,0,2.8,0.2,4.3,0.5c1.5,0.3,3.1,0.9,4.4,2
			c-1.5,0.9-2.9,1.5-4.3,1.9c-1.4,0.4-2.9,0.6-4.5,0.6c-1.6-0.1-3.2-0.4-4.8-1.2C1520.8,243.2,1519.4,241.9,1518.9,240.2z"/>
	</g>
	<g>
		<path class="st3" d="M1510.5,247.6c2.2,0.7,3.9,0.7,5.8,0.6c1.8-0.1,3.7-0.2,5.8-0.2c2,0,4.1,0.1,6.1,0.4c2,0.3,4,0.7,6.2,1.5
			c-1.9,1.3-4,1.9-6,2.4c-2.1,0.4-4.1,0.6-6.2,0.6c-2,0-4.3-0.1-6.5-0.9c-1.1-0.4-2.2-0.9-3.1-1.7
			C1511.6,249.7,1510.8,248.7,1510.5,247.6z"/>
	</g>
	<g>
		<path class="st3" d="M1504.3,257.2c1.8-0.7,3.4-1,5-1.2c1.6-0.2,3.2-0.2,4.7-0.2c1.6,0.1,3.1,0.3,4.5,0.5c1.5,0.2,2.9,0.5,4.8,0.5
			c-0.4,0.9-1.1,1.6-1.9,2.2c-0.8,0.5-1.7,0.9-2.5,1.2c-1.8,0.5-3.5,0.7-5.1,0.6c-1.7-0.1-3.3-0.4-5-0.9
			C1507.3,259.3,1505.7,258.6,1504.3,257.2z"/>
	</g>
	<g>
		<path class="st3" d="M1439.6,221.9c1.3-1.7,3-2.9,4.9-3.7c1.9-0.8,3.9-1.2,6-1.3c2.1,0,4.1,0.3,6,1c1,0.4,1.9,0.8,2.7,1.4
			c0.4,0.3,0.8,0.6,1.2,1c0.2,0.2,0.5,0.4,0.6,0.7c0.2,0.3,0.2,0.7,0,0.9c-0.1-0.3-0.3-0.3-0.5-0.3c-0.2,0-0.4,0-0.6,0
			c-0.5,0.1-1,0.1-1.5,0.1c-1,0.1-1.9,0.1-2.8,0.1l-5.2,0.1l-5.2,0.1C1443.5,222,1441.7,222.1,1439.6,221.9z"/>
	</g>
	<g>
		<path class="st3" d="M1437.4,228.1c1.4-1.4,3-2.3,4.7-2.9c1.7-0.6,3.5-0.9,5.3-0.9c1.8,0,3.6,0.3,5.3,0.9c1.7,0.6,3.3,1.5,4.7,3
			c-1.9,0.5-3.6,0.8-5.2,0.9c-1.6,0.1-3.2,0.2-4.8,0.2c-1.6,0-3.1-0.1-4.8-0.2C1441,228.9,1439.3,228.7,1437.4,228.1z"/>
	</g>
	<g>
		<path class="st3" d="M1434.2,233.5c0,0,0,0.1-0.1,0.1c-0.1,0-0.2-0.1-0.2-0.2c-0.1-0.1-0.1-0.2-0.1-0.4c0-0.1,0-0.2,0.1-0.4
			c0.1-0.1,0.4-0.3,0.3-0.3c0.2-0.3,0.4-0.5,0.7-0.7c0.5-0.4,1-0.7,1.6-1c1.1-0.5,2.3-0.7,3.5-0.6c1.2,0.1,2.4,0.5,3.4,1.1
			c1,0.7,1.9,1.6,2.4,3c-1.4,0.5-2.4,0.7-3.4,0.8c-1,0.1-1.9,0.1-2.7,0.1c-0.9-0.1-1.7-0.2-2.7-0.5c-0.5-0.1-1-0.3-1.5-0.5
			c-0.3-0.1-0.5-0.2-0.8-0.4c-0.1,0,0-0.1,0-0.2c0-0.1-0.1-0.1-0.1-0.1C1434.4,233.4,1434.3,233.4,1434.2,233.5
			C1434.2,233.4,1434.2,233.4,1434.2,233.5C1434.1,233.4,1434.2,233.4,1434.2,233.5z"/>
	</g>
	<g>
		<path class="st5" d="M1550.3,206.9c0,0,0.1,0,0.2-0.1c0.1-0.1,0.3-0.2,0.5-0.3c0.2-0.1,0.5-0.2,0.7-0.3c0.3-0.1,0.6-0.2,0.9-0.3
			c0.3-0.1,0.6-0.2,0.9-0.3c0.3-0.1,0.7-0.2,1-0.3c0.4-0.1,0.7-0.1,1.1-0.2c0.4-0.1,0.7-0.1,1.1-0.1c0.4,0,0.7-0.1,1.1-0.1
			c0.4,0,0.7,0,1.1,0c0.4,0,0.7,0.1,1.1,0.1c0.3,0,0.7,0.1,1,0.2c0.7,0.2,1.2,0.3,1.7,0.4c0.2,0.1,0.4,0.1,0.5,0.2
			c0.1,0,0.2,0.1,0.2,0.1s0,0.1-0.1,0.2c-0.1,0.1-0.1,0.3-0.3,0.5c-0.1,0.2-0.3,0.4-0.5,0.7c-0.2,0.2-0.4,0.5-0.7,0.7
			c-0.3,0.2-0.6,0.5-0.9,0.7c-0.3,0.2-0.7,0.4-1.1,0.6c-0.8,0.4-1.7,0.5-2.7,0.7c-0.9,0-1.9,0-2.7-0.3c-0.4-0.1-0.8-0.2-1.2-0.4
			c-0.4-0.2-0.8-0.4-1.1-0.6c-0.3-0.2-0.6-0.4-0.8-0.6c-0.2-0.2-0.4-0.4-0.6-0.6c-0.2-0.2-0.3-0.3-0.3-0.4
			C1550.3,206.9,1550.3,206.9,1550.3,206.9z"/>
	</g>
	<g>
		<path class="st3" d="M1540.9,212.8c1.6-1,3.2-1.4,4.8-1.7c1.6-0.3,3.2-0.4,4.7-0.3c1.5,0,2.9,0.2,4.2,0.3c1.4,0.1,2.7,0.2,4.5-0.2
			c-0.1,0.9-0.7,1.8-1.3,2.5c-0.7,0.7-1.5,1.2-2.4,1.6c-1.7,0.7-3.5,0.9-5.2,0.9c-1.6-0.1-3.2-0.3-4.7-0.7
			C1543.9,214.5,1542.4,213.9,1540.9,212.8z"/>
	</g>
	<g>
		<path class="st3" d="M1538.1,218.7c2.1-0.6,4.1-0.8,5.9-1c1.9-0.1,3.6-0.3,5.3-0.5c1.7-0.2,3.4-0.4,5.2-0.7
			c1.8-0.3,3.6-0.6,5.8-0.8c-1,1.9-2.6,3.4-4.5,4.5c-1.8,1.1-3.9,1.7-6,2c-2.1,0.2-4.3,0-6.3-0.6
			C1541.6,221,1539.8,220.1,1538.1,218.7z"/>
	</g>
	<g>
		<path class="st3" d="M1472.1,193.9c1-1.2,2.2-1.9,3.5-2.3c1.3-0.4,2.7-0.4,4-0.2c1.3,0.2,2.6,0.8,3.7,1.5c1.1,0.8,2,1.9,2.5,3.4
			c-1.5,0.3-2.7,0.3-3.9,0.3c-1.1,0-2.2-0.1-3.2-0.3c-1-0.2-2-0.5-3.1-0.8C1474.6,195.2,1473.5,194.7,1472.1,193.9z"/>
	</g>
	<g>
		<path class="st3" d="M1477.1,188.3c1.2-1.2,2.6-1.9,4-2.2c1.5-0.3,3-0.4,4.4-0.1c1.5,0.3,2.9,0.8,4.1,1.7c1.2,0.9,2.3,2,2.9,3.6
			c-1.7,0.2-3,0.2-4.3,0.1c-1.3-0.1-2.5-0.2-3.6-0.5c-1.2-0.2-2.3-0.5-3.6-0.9C1479.9,189.6,1478.6,189.1,1477.1,188.3z"/>
	</g>
	<g>
		<path class="st3" d="M1467,199.6c1.2-1.3,2.5-2,4-2.6c1.4-0.5,3-0.8,4.5-0.7c1.6,0.1,3.2,0.5,4.6,1.3c1.4,0.8,2.7,2,3.2,3.7
			l-4.3,0c-1.3,0-2.5,0-3.7-0.1c-1.2-0.1-2.5-0.2-3.9-0.4C1470,200.6,1468.6,200.3,1467,199.6z"/>
	</g>
	<g>
		<path class="st3" d="M1574.5,167.5c-0.1,1.5-1,2.8-2,3.6c-1.1,0.8-2.4,1.3-3.7,1.5c-1.3,0.1-2.6,0-3.7-0.5
			c-1.2-0.5-2.2-1.1-3.2-2.3c1.2-0.9,2.4-1.3,3.4-1.6c1.1-0.3,2-0.5,2.9-0.6c0.9-0.1,1.8-0.1,2.8-0.1
			C1572,167.5,1573,167.6,1574.5,167.5z"/>
	</g>
	<g>
		<path class="st3" d="M1576,174.4c0.2,1.6-0.6,3-1.7,4c-1.1,1-2.5,1.6-3.9,1.8c-1.4,0.2-2.7,0.1-4-0.3c-1.2-0.4-2.4-1.1-3.4-2.3
			c1.3-0.9,2.5-1.3,3.6-1.7c1.1-0.3,2.1-0.5,3-0.7c0.9-0.2,1.8-0.2,2.8-0.4C1573.5,174.9,1574.5,174.8,1576,174.4z"/>
	</g>
	<g>
		<path class="st3" d="M1580.3,181.7c-0.5,1.6-1.5,2.7-2.6,3.6c-1.2,0.9-2.5,1.5-3.9,1.8c-1.4,0.3-2.9,0.3-4.3-0.1
			c-1.4-0.4-2.8-1.1-3.8-2.4c1.5-0.8,2.7-1.2,3.8-1.6c1.2-0.4,2.2-0.6,3.3-0.9c1.1-0.2,2.2-0.4,3.4-0.5
			C1577.4,181.6,1578.7,181.5,1580.3,181.7z"/>
	</g>
	<g>
		<path class="st3" d="M1510.9,159.2c0.9-1.3,2.1-2.1,3.5-2.6c1.3-0.5,2.8-0.6,4.1-0.4c1.4,0.2,2.7,0.7,3.9,1.6
			c1.1,0.8,2.1,2,2.5,3.5c-1.6,0.2-2.8,0.2-3.9,0.1c-1.1,0-2.2-0.1-3.2-0.3c-1-0.2-2-0.4-3.1-0.7
			C1513.5,160.2,1512.4,159.9,1510.9,159.2z"/>
	</g>
	<g>
		<path class="st3" d="M1509.9,164.1c1.1-1.1,2.2-1.6,3.4-2c1.2-0.3,2.5-0.4,3.7-0.1c1.3,0.3,2.5,0.9,3.5,1.9c1,1,1.7,2.4,1.5,3.9
			c-1.5-0.3-2.5-0.4-3.4-0.5c-0.9-0.1-1.8-0.2-2.6-0.4c-0.9-0.2-1.8-0.5-2.8-0.9C1512.1,165.6,1511,165.1,1509.9,164.1z"/>
	</g>
	<g>
		<path class="st3" d="M1506.9,169.9c0.8-1.2,2-1.9,3.2-2.3c1.2-0.4,2.5-0.4,3.7-0.1c1.2,0.3,2.4,0.8,3.3,1.7c0.9,0.9,1.7,2,1.9,3.4
			c-1.5,0.2-2.6,0.2-3.6,0.1c-1-0.1-1.9-0.2-2.8-0.4c-0.9-0.2-1.7-0.5-2.7-0.8C1509.1,171.1,1508.1,170.7,1506.9,169.9z"/>
	</g>
</g>
<g>
	<path class="st0" d="M442.1,376.8l1191.4,1199.7l16,64l-82-24L369.8,430.6C369.8,430.6,375.7,325.2,442.1,376.8z"/>
	<g>
		<line class="st1" x1="406.9" y1="409.9" x2="1619" y2="1618.5"/>
		<line class="st1" x1="1602.5" y1="1618.5" x2="396.8" y2="421.8"/>
		<line class="st1" x1="389.7" y1="430.5" x2="1573.4" y2="1606.5"/>
	</g>
	<path class="st2" d="M496.1,343.3c0,0-42.2,12.9-89.2,66.6s-65.3,95.5-65.3,95.5l-56.9-70l48.5-39.5c0,0-21-5.8-27.6-27.8
		c0,0-27-7.9-31.6-28.6c0,0-34.7-9.7-41.6-36.1c0,0-32.7-10.4-36.5-40c0,0-25.8-6.1-29.6-38.7c0,0-27.3-12.1-25.8-34.1
		c0,0-9.1-2.4-11.4-12.2c0,0-16.7,8.1-40.2-11.5s-22-63.1,13.7-66c0,0,4.6-27.9,33.4-30.2c28.8-2.3,44,31.1,42.5,50.1
		c9.4,4.9,19,11.3,21.8,21.5c10.5-1.8,21.8,2.9,27.9,11.6c2.4,3.4,4,7.4,6.4,10.8c5.6,8,15,12.2,23.4,17.2c8.4,5,16.8,12.2,17.7,22
		c14.2,0,24.4,13.2,32.3,25.1c2.3,3.4,4.6,6.9,7.8,9.4c2.9,2.3,6.4,3.7,9.7,5.5c10.3,5.7,18.1,16,20.8,27.5c0.3,1.1,0.5,2.3,1.3,3.3
		c1,1.2,2.7,1.6,4.3,2c11.6,3.1,21.3,12.5,24.8,23.9c0.9,3.1,1.5,6.5,3.6,8.9c1.5,1.8,3.5,2.9,5.4,4.3c3.1,2.4,5.7,5.5,7.3,9.1
		c1.9,4.2,4,9.9,8.6,9.3c1.9-0.2,3.4-1.7,4.8-3.1c16.4-17.1,30.6-36.2,42.1-56.9c11.4,15.2,25.4,28.5,41.2,39.2
		c5.7,3.8,11.9,7.6,15.1,13.7C507.8,330.9,502.6,341,496.1,343.3z"/>
	<g>
		<path class="st3" d="M140.6,190.5c1.1,0.2,2.1,0.3,3.2,0.4l1.6,0.1l1.6,0c2.1,0,4.3-0.1,6.4-0.3c2.1-0.2,4.2-0.5,6.3-0.9
			c1-0.2,2.1-0.4,3.1-0.6l3.1-0.7c1-0.2,2-0.5,3.1-0.8c1-0.3,2-0.5,3.1-0.8l3-1l1.5-0.5l1.5-0.5c2-0.7,4-1.4,6-2.2
			c2-0.8,3.9-1.5,6-2.4c8-3.2,16.1-6.3,24.6-8.6c4.2-1.2,8.5-2.1,13-2.4c2.2-0.1,4.4-0.1,6.6,0.1c2.2,0.3,4.3,0.8,6.4,1.4
			c-2.2-0.1-4.3-0.2-6.4,0c-2.1,0.2-4.2,0.4-6.3,0.9c-1,0.2-2.1,0.5-3.1,0.7c-1,0.3-2,0.6-3,0.9c-2,0.7-4,1.3-6,2.1
			c-8,3-15.9,6.3-23.9,9.5c-8,3.2-16.5,6.1-25.2,7.3c-4.3,0.7-8.8,0.9-13.2,0.8c-2.2-0.1-4.4-0.3-6.6-0.7
			C144.7,192,142.5,191.4,140.6,190.5z"/>
	</g>
	<g>
		<path class="st3" d="M200.3,142.2c-3.7,2.2-7.6,3.9-11.5,5.5c-3.9,1.5-7.9,2.9-11.9,4.1c-4.2,1.3-8.8,1.8-13.1,1.4
			c-2.2-0.2-4.4-0.6-6.5-1.1c-2.1-0.6-4.1-1.4-6-2.5c4.3,0.2,8.4,0.1,12.4-0.3c4-0.4,7.9-1.1,11.7-2.3c4-1.2,8.1-2.2,12.2-3.1
			C191.8,143,195.9,142.4,200.3,142.2z"/>
	</g>
	<g>
		<path class="st3" d="M180.4,121.7c-0.7,3.7-2.1,7.2-3.8,10.5c-0.9,1.7-1.9,3.3-3,4.8c-1.1,1.5-2.4,3-3.8,4.3
			c-2.8,2.7-6.2,4.9-10,6.3c-0.9,0.4-1.9,0.6-2.9,0.9c-1,0.2-2,0.4-3,0.5c-2,0.3-4,0.3-6,0.1l2.7-2.6c0,0.3,0,0.5,0,0.7
			c0,0.2,0,0.5,0,0.7c0,0.4,0,0.9-0.1,1.3c-0.1,0.9-0.2,1.7-0.4,2.6c-0.3,1.7-0.7,3.3-1.3,4.9c-1.1,3.2-2.6,6.3-4.5,9.1
			c-0.4,0.7-1,1.4-1.5,2c-0.5,0.7-1,1.3-1.6,1.9l-1.7,1.8c-0.6,0.6-1.3,1.1-1.9,1.6c-1.2,1.1-2.7,2-4,2.9c-1.4,0.9-2.9,1.5-4.3,2.2
			c0.6-0.6,1.2-1.1,1.8-1.6c0.6-0.6,1.2-1,1.8-1.6c1.1-1.2,2.3-2.2,3.2-3.5c2.1-2.3,3.7-5,5.2-7.6c1.5-2.7,2.5-5.5,3.3-8.4
			c0.4-1.5,0.7-2.9,0.9-4.4c0.1-0.7,0.2-1.5,0.2-2.2c0.1-0.7,0.1-1.5,0.1-2.1l0-2.7l2.7,0.1c3.3,0.2,6.7-0.1,9.9-1.2
			c0.8-0.2,1.6-0.6,2.3-0.9c0.8-0.4,1.5-0.7,2.3-1.1c1.5-0.8,2.9-1.7,4.3-2.8c2.7-2.1,5.2-4.7,7.4-7.5
			C176.6,128,178.6,124.9,180.4,121.7z"/>
	</g>
	<g>
		<path class="st3" d="M96.6,129c0.9,2.9,1.9,5.5,3.1,8c1.2,2.4,2.6,4.6,4.3,6.4c1.7,1.8,3.7,3.3,6.1,4.5c2.4,1.2,5,2.2,7.9,3.3
			c-2.9,1-6.1,1.1-9.2,0.4c-3.1-0.7-6.1-2.4-8.4-4.8c-2.3-2.4-3.7-5.5-4.3-8.6C95.3,135.1,95.4,131.9,96.6,129z"/>
	</g>
	<g>
		<path class="st3" d="M85.9,140.1c1.9,3,3.9,5.7,6.2,8.1c2.2,2.4,4.6,4.5,7.3,6.2c0.3,0.2,0.6,0.4,1,0.6l1,0.6l1,0.6
			c0.4,0.2,0.7,0.3,1.1,0.5l2.2,1c0.8,0.3,1.5,0.6,2.3,0.9l1.1,0.5l1.2,0.4c0.8,0.2,1.6,0.5,2.4,0.8c1.6,0.5,3.3,0.8,5,1.5
			c-0.9,0.2-1.7,0.4-2.6,0.6c-0.9,0.2-1.8,0.3-2.7,0.4c-0.9,0-1.8,0-2.7,0l-1.4,0c-0.5-0.1-0.9-0.1-1.4-0.2
			c-0.9-0.1-1.8-0.3-2.7-0.5c-0.9-0.2-1.8-0.6-2.6-0.9c-0.4-0.2-0.9-0.3-1.3-0.5l-1.3-0.6l-1.2-0.7c-0.4-0.2-0.8-0.4-1.2-0.7
			c-3.2-2-5.8-4.9-7.7-8C87.1,147.3,85.9,143.7,85.9,140.1z"/>
	</g>
	<g>
		<path class="st3" d="M123.9,85c3.9-2.8,8.9-4.2,13.9-4.2c5,0,10.1,1.5,14.4,4.3c4.3,2.8,7.6,6.7,10.1,10.9
			c2.5,4.2,4.1,8.8,4.9,13.6c-2.7-4-5.2-7.8-8.1-11.3c-2.9-3.5-6-6.6-9.6-8.9c-3.6-2.3-7.6-3.9-11.9-4.6
			C133.1,84,128.6,84.2,123.9,85z"/>
	</g>
	<g>
		<path class="st3" d="M123.9,96.1c2.4-1.8,5.4-2.6,8.4-2.7c3-0.1,6.1,0.6,8.9,2.1c1.3,0.8,2.7,1.6,3.7,2.6c0.5,0.5,1.2,1,1.6,1.6
			c0.5,0.6,0.9,1.2,1.4,1.8c0.5,0.6,0.8,1.2,1.2,1.9c0.3,0.6,0.7,1.3,1,2c0.3,0.7,0.5,1.4,0.7,2.1c0.2,0.7,0.4,1.4,0.5,2.1
			c-1.2-0.9-2.2-1.9-3.2-2.8c-0.5-0.4-1-0.9-1.5-1.3c-0.5-0.4-1-0.9-1.5-1.3c-0.5-0.4-1-0.8-1.5-1.2c-0.5-0.4-1-0.7-1.5-1.1
			c-0.3-0.2-0.5-0.4-0.8-0.5c-0.2-0.2-0.5-0.3-0.8-0.5c-0.5-0.3-1-0.7-1.6-0.9c-2.2-1.1-4.4-2-6.9-2.6
			C129.4,96.6,126.8,96.3,123.9,96.1z"/>
	</g>
	<g>
		<path class="st3" d="M275.6,203.7c-4.7,0.2-9.3,1.1-13.8,2.1c-4.5,1-9,2.2-13.5,3.5c-4.4,1.3-8.8,2.8-13.2,4.2l-6.6,2.3
			c-2.2,0.8-4.4,1.5-6.7,2.3c-9,2.9-18.1,5.3-27.4,6.9c-4.7,0.8-9.4,1.4-14.1,1.6c-2.4,0.1-4.8,0.1-7.1-0.2
			c-1.2-0.1-2.4-0.3-3.5-0.6c-1.2-0.3-2.3-0.7-3.3-1.3c1.1,0.4,2.3,0.5,3.4,0.6c1.1,0.1,2.3,0,3.5-0.1c2.3-0.2,4.6-0.5,6.9-0.9
			c4.6-0.8,9.1-1.9,13.6-3c9-2.3,17.9-5,26.7-7.9c2.2-0.7,4.4-1.4,6.6-2.2l6.7-2.2c4.5-1.3,9.1-2.6,13.7-3.5c4.6-1,9.3-1.7,14-2.1
			c2.4-0.2,4.7-0.3,7.1-0.3C270.9,203.1,273.3,203.2,275.6,203.7z"/>
	</g>
	<g>
		<path class="st3" d="M196,263.3c1.3,0.4,2.5,0.5,3.8,0.5c0.6,0,1.3,0,1.9,0l1.9-0.1c2.6-0.2,5.1-0.5,7.6-1c5-0.9,10-2.3,14.8-3.9
			c4.8-1.7,9.7-3.4,14.4-5.4l3.6-1.4l3.6-1.5l7.2-3c4.8-1.9,9.7-3.9,14.6-5.6c4.9-1.8,9.9-3.4,15.1-4.6c5.1-1.3,10.5-2,15.8-2
			c5.3,0.1,10.6,1.1,15.5,2.8c-5.2-0.6-10.3-0.9-15.4-0.3c-5.1,0.5-10,1.7-14.8,3.3c-4.8,1.6-9.7,3.4-14.4,5.3l-14.4,5.8
			c-9.6,3.9-19.3,7.9-29.6,10.4c-5.1,1.3-10.3,2.2-15.6,2.6c-2.6,0.2-5.3,0.2-7.9,0C201,265,198.3,264.5,196,263.3z"/>
	</g>
	<g>
		<path class="st3" d="M347.6,274.4c-5.2-0.1-10.4,0-15.5,0.4c-5.1,0.4-10.2,1.1-15.2,2.1c-5,1-9.9,2.2-14.6,4l-1.8,0.6
			c-0.6,0.2-1.2,0.5-1.7,0.7c-1.2,0.5-2.3,1-3.5,1.5c-2.3,1.2-4.4,2.2-6.8,3.5c-9.3,4.9-19,9-29,12c-5,1.5-10.1,2.8-15.3,3.6
			c-2.6,0.4-5.2,0.6-7.9,0.6c-1.3,0-2.6-0.1-4-0.3c-1.3-0.2-2.6-0.5-3.7-1.2c1.2,0.4,2.5,0.5,3.8,0.5c1.3,0,2.5-0.2,3.8-0.4
			c2.5-0.4,5-1,7.5-1.7c4.9-1.3,9.8-3.1,14.6-4.9c9.5-3.7,18.9-8,27.9-12.8c2.2-1.2,4.7-2.4,7.1-3.5c1.2-0.5,2.5-1,3.7-1.5
			c0.6-0.2,1.2-0.5,1.9-0.7l1.9-0.6c5.1-1.7,10.3-2.7,15.5-3.4c2.6-0.3,5.2-0.5,7.9-0.7l3.9-0.1c1.3,0,2.6,0,3.9,0.1
			C337.3,272.6,342.5,273.2,347.6,274.4z"/>
	</g>
	<g>
		<path class="st3" d="M274.1,339.5c4.6-0.9,9.1-2.3,13.4-3.8c4.4-1.5,8.7-3.3,12.9-5.1c4.3-1.8,8.4-3.8,12.6-5.8l12.6-6.2
			c8.5-4,17.1-7.9,26.4-10.4c4.6-1.2,9.5-2,14.3-1.8c4.8,0.2,9.6,1.2,13.9,3.1c-4.6-0.8-9.3-1.1-13.8-0.6c-4.5,0.4-8.9,1.6-13.3,3.1
			c-8.6,3.1-17,7.2-25.4,11.2l-6.3,3c-2.1,1-4.3,2-6.4,3c-4.3,1.9-8.7,3.7-13.2,5.2c-4.5,1.5-9,2.8-13.7,3.8
			C283.6,338.9,278.8,339.7,274.1,339.5z"/>
	</g>
	<path class="st4" d="M406.3,328.9c0,0-36.6,43.1-73,66.9l48,45.7"/>
	<line class="st4" x1="439" y1="378.2" x2="396.8" y2="339.5"/>
	<g>
		<path class="st3" d="M305.7,368c4.1-1.2,8-2.8,11.9-4.5c3.9-1.7,7.7-3.5,11.5-5.3c3.8-1.9,7.5-3.9,11.2-5.8l11.2-6.1
			c3.8-2,7.6-4,11.6-5.8c4-1.7,8.2-3.2,12.4-4.2c2.1-0.5,4.3-0.9,6.4-1.2c2.2-0.2,4.3-0.5,6.5-0.6c4.3-0.3,8.6-0.3,12.9-0.1
			c-4.2,0.9-8.4,1.5-12.6,2.5c-4.1,0.9-8.2,1.9-12.2,3.2c-3.9,1.3-7.8,2.9-11.5,4.7c-3.7,1.8-7.5,3.8-11.2,5.8
			c-3.8,2-7.6,4-11.4,5.9c-3.9,1.9-7.8,3.7-11.8,5.2c-4,1.6-8.1,2.9-12.3,4.1c-2.1,0.5-4.2,1.1-6.3,1.4
			C310,367.7,307.9,368,305.7,368z"/>
	</g>
	<g>
		<g>
			<polygon class="st3" points="471.6,319.2 445.6,339.5 468.3,315.5 			"/>
		</g>
		<g>
			<polygon class="st3" points="461.8,309.2 442.2,325.7 458.2,305.7 			"/>
		</g>
		<g>
			<polygon class="st3" points="451.5,299 434.4,312.9 448,295.5 			"/>
		</g>
		<g>
			<polygon class="st3" points="477.8,325.2 464.7,334.5 474.4,321.6 			"/>
		</g>
		<g>
			<polygon class="st3" points="485.3,333 473.5,339.5 482.2,329.1 			"/>
		</g>
		<g>
			<polygon class="st3" points="312.2,462.5 328.7,450.2 315.7,466.1 			"/>
		</g>
		<g>
			<polygon class="st3" points="304,454.3 319.3,443.9 307.4,458 			"/>
		</g>
		<g>
			<polygon class="st3" points="294.8,444.7 310.8,436.4 297.6,448.7 			"/>
		</g>
		<g>
			<polygon class="st3" points="321,471.3 336.5,459.1 324.5,474.8 			"/>
		</g>
		<g>
			<polygon class="st3" points="330.2,480.4 341.6,473.1 333.7,484.1 			"/>
		</g>
	</g>
	<g>
		<path class="st3" d="M371.8,320.2c-1.1,1-2.2,1.4-3.2,1.8c-1,0.3-2,0.5-3,0.6c-1,0-2-0.1-3-0.4c-1-0.3-2.1-0.7-3.3-1.6
			c0.9-1.2,1.9-1.8,3-2.3c1-0.5,2.1-0.7,3.2-0.7c1.1,0,2.2,0.1,3.3,0.5C369.8,318.5,370.9,319,371.8,320.2z"/>
	</g>
	<g>
		<path class="st3" d="M374.9,328c-1.5,0.7-2.5,1.4-3.5,2c-1,0.6-2.1,1.2-3.3,1.6c-1.2,0.5-2.5,0.8-3.9,0.9
			c-1.4,0.1-2.8,0.1-4.4-0.4c0.8-1.5,1.9-2.4,3-3.3c1.1-0.8,2.3-1.5,3.5-2c1.3-0.5,2.7-0.8,4.3-0.8
			C372.1,326.2,373.9,326.7,374.9,328z"/>
	</g>
	<g>
		<path class="st3" d="M341.3,368.2c-0.2,0-0.4,0-0.5,0.1c-0.1,0.1-0.2,0.2-0.3,0.3c-0.1,0.2-0.3,0.5-0.4,0.7
			c-0.4,0.6-0.9,1.1-1.4,1.6c-1,0.9-2.2,1.7-3.5,2.2c-1.3,0.5-2.6,0.7-4,0.7c-1.4,0-2.8-0.3-4.2-1.2c1.1-1.2,2.2-2,3.2-2.6
			c1.1-0.6,2.1-1.2,3.2-1.6c1.1-0.4,2.2-0.7,3.4-1c0.6-0.1,1.2-0.2,1.9-0.2c0.4-0.1,0.9-0.1,1.4,0c0.2,0.1,0.5,0.1,0.7,0.3
			C341.2,367.8,341.3,368,341.3,368.2z"/>
	</g>
	<g>
		<path class="st3" d="M377.4,353.7c-0.9,1.2-1.9,2-2.9,2.6c-1,0.6-2.1,1-3.2,1.2c-1.1,0.2-2.2,0.3-3.4,0.1
			c-1.2-0.2-2.4-0.5-3.6-1.3c0.9-1.2,1.9-2,2.9-2.6c1-0.6,2.1-1,3.2-1.2c1.1-0.2,2.2-0.3,3.4-0.1
			C374.9,352.6,376.1,352.9,377.4,353.7z"/>
	</g>
	<g>
		<path class="st3" d="M317.7,348.6c-0.5,1.4-1.3,2.4-2.2,3.1c-0.9,0.8-2,1.3-3.1,1.6c-1.1,0.3-2.3,0.4-3.5,0.2
			c-1.2-0.2-2.4-0.6-3.5-1.6c1-1.1,1.9-1.8,2.8-2.3c0.9-0.5,1.8-0.9,2.8-1.2c0.9-0.3,1.9-0.4,3-0.4
			C315.2,348.1,316.3,348.2,317.7,348.6z"/>
	</g>
	<g>
		<path class="st3" d="M311.3,341.8c-0.7,1.7-1.8,3.1-3.3,4.1c-1.5,1.1-3.3,1.6-5,1.8c-1.7,0.2-3.3,0.1-4.9-0.1
			c-1.6-0.3-3-0.6-4.8-1.2c1.2-1.4,2.9-2.2,4.5-2.7c1.6-0.5,3.1-0.7,4.5-0.9c1.4-0.2,2.7-0.3,4.1-0.5
			C307.8,342.1,309.4,341.8,311.3,341.8z"/>
	</g>
	<g>
		<path class="st3" d="M351.1,376.8c-0.5,1.6-1.6,2.8-2.8,3.7c-1.2,0.9-2.6,1.5-4.1,1.8c-1.5,0.3-3,0.3-4.5-0.1
			c-1.5-0.4-2.9-1.1-4-2.4c1.5-0.8,2.8-1.2,4-1.6c1.2-0.4,2.4-0.7,3.5-0.9c1.2-0.2,2.3-0.4,3.6-0.6
			C348,376.8,349.4,376.7,351.1,376.8z"/>
	</g>
	<g>
		<path class="st3" d="M272.7,310.8c-1.1,1.3-2.4,2.1-3.8,2.7c-1.4,0.6-2.8,0.9-4.3,1c-1.5,0.1-2.9,0-4.4-0.4
			c-1.4-0.4-2.8-1-4.1-2.2c1.5-0.9,2.9-1.4,4.2-1.7c1.3-0.3,2.7-0.5,4-0.6c1.3-0.1,2.6-0.1,4,0.1
			C269.7,309.8,271.1,310.1,272.7,310.8z"/>
	</g>
	<g>
		<path class="st3" d="M284.6,315.7c-1.3,1.7-2.9,3-4.7,3.9c-1.8,1-3.7,1.6-5.7,2c-2,0.4-4,0.4-6,0.2c-2-0.3-4-0.9-5.8-2
			c2-0.9,3.8-1.4,5.6-1.9c1.8-0.5,3.5-0.8,5.3-1.2c1.8-0.3,3.5-0.6,5.4-0.8C280.5,315.7,282.4,315.6,284.6,315.7z"/>
	</g>
	<g>
		<path class="st3" d="M287.7,325.6c-1,1.3-2.1,2-3.3,2.6c-1.2,0.6-2.4,0.9-3.6,1c-1.2,0.1-2.5,0-3.8-0.3c-1.3-0.3-2.5-0.8-3.7-1.9
			c1.2-1,2.4-1.6,3.5-2c1.2-0.4,2.3-0.7,3.4-0.8c1.2-0.1,2.3-0.1,3.5,0.1C285,324.5,286.3,324.9,287.7,325.6z"/>
	</g>
	<g>
		<path class="st3" d="M346.8,287.2c-1.4,1-2.8,1.5-4.2,1.8c-1.4,0.3-2.8,0.4-4.2,0.4c-1.4,0-2.7-0.3-3.9-0.5
			c-1.2-0.3-2.3-0.6-4.1-0.7c0.5-1.7,2.2-2.7,3.7-3.2c1.5-0.5,3.1-0.6,4.4-0.5c1.4,0.1,2.8,0.3,4.1,0.7
			C344.1,285.5,345.5,286.1,346.8,287.2z"/>
	</g>
	<g>
		<path class="st3" d="M352.8,294c-2.2,0.9-4.3,1.2-6.4,1.5c-2.1,0.3-4.1,0.4-6.1,0.4c-2,0.1-4,0-6,0c-2-0.1-4.1-0.1-6.4-0.4
			c1.6-1.7,3.7-2.8,5.8-3.5c2.1-0.7,4.3-1.1,6.5-1.1c2.2-0.1,4.3,0.2,6.4,0.7C348.7,292.1,350.8,292.8,352.8,294z"/>
	</g>
	<g>
		<path class="st3" d="M353.6,300c-1.8,0.4-3.2,0.7-4.7,0.9c-1.4,0.2-2.9,0.4-4.3,0.4c-1.5,0.1-3.1-0.1-4.5-0.3
			c-1.4-0.2-2.7-0.5-4.6-0.6c0.7-1.8,2.5-2.8,4.1-3.4c1.7-0.5,3.2-0.7,4.8-0.8c1.6,0,3.3,0.1,4.9,0.7
			C351,297.5,352.6,298.5,353.6,300z"/>
	</g>
	<g>
		<path class="st3" d="M316.9,251.8c-2.1,0.2-3.9,0.2-5.6,0.2l-5.1-0.1c-1.7,0-3.3-0.1-5.1-0.2c-1.7-0.1-3.5-0.2-5.6-0.5
			c1.3-1.6,3.1-2.7,4.9-3.4c1.9-0.7,3.9-1,5.9-1c2,0.1,4,0.5,5.8,1.3C313.9,248.9,315.6,250.1,316.9,251.8z"/>
	</g>
	<g>
		<path class="st3" d="M319.9,258.2c-2.1,0.2-3.9,0.2-5.6,0.2l-5.1-0.1c-1.7,0-3.3-0.1-5.1-0.2c-1.7-0.1-3.5-0.2-5.6-0.5
			c1.3-1.6,3.1-2.7,4.9-3.4c1.9-0.7,3.9-1,5.9-1c2,0.1,4,0.5,5.8,1.3C317,255.3,318.7,256.5,319.9,258.2z"/>
	</g>
	<g>
		<path class="st3" d="M322.3,265.7c-2.1,0.2-3.9,0.2-5.6,0.2l-5.1-0.1c-1.7,0-3.3-0.1-5.1-0.2c-1.7-0.1-3.5-0.2-5.6-0.5
			c1.3-1.6,3.1-2.7,4.9-3.4c1.9-0.7,3.9-1,5.9-1c2,0.1,4,0.5,5.8,1.3C319.4,262.9,321.1,264,322.3,265.7z"/>
	</g>
	<g>
		<path class="st3" d="M245.8,271.2c-1.6,1.2-2.6,2.4-4.2,3.4c-1.6,1-3.5,1.6-5.4,1.9c-1.9,0.2-3.7,0.1-5.5-0.3
			c-1.8-0.4-3.5-1.1-5.2-2.2c1.8-0.9,3.5-1.4,5.2-1.7c1.7-0.3,3.3-0.6,4.8-0.8l4.7-0.6c0.8-0.1,1.7-0.2,2.7-0.3
			C243.8,270.7,244.9,270.7,245.8,271.2z"/>
	</g>
	<g>
		<path class="st3" d="M251.4,278.8c-1.2,0.6-1.7,1.6-2.9,2.6c-0.6,0.5-1.3,0.8-1.9,1.1c-0.6,0.3-1.2,0.5-1.8,0.7
			c-2.4,0.9-4.9,1.5-7.5,1.9c-2.6,0.4-5.3,0.3-8-0.2c-2.6-0.5-5.3-1.6-7.3-3.5c2.7-0.1,5.1-0.2,7.5-0.5c2.4-0.2,4.7-0.6,7.1-0.9
			c2.4-0.3,4.8-0.6,7.4-0.8c1.3-0.1,2.5,0,3.5-0.2c0.5-0.1,1.2-0.3,1.9-0.4C250,278.6,250.8,278.5,251.4,278.8z"/>
	</g>
	<g>
		<path class="st3" d="M249.7,289.4c-1.4,1.4-3,2.2-4.6,2.7c-1.7,0.5-3.4,0.8-5,0.8c-1.7,0-3.4-0.1-5-0.6c-1.6-0.4-3.3-1-4.9-2.1
			c1.7-1,3.3-1.4,5-1.8c1.6-0.3,3.2-0.5,4.8-0.5c1.6,0,3.2,0.1,4.8,0.3C246.3,288.4,247.9,288.7,249.7,289.4z"/>
	</g>
	<g>
		<path class="st3" d="M202.7,234.2c-0.5,1.7-1.9,3-3.4,3.8c-1.5,0.8-3.2,1.1-4.8,1.2c-1.6,0.1-3.1-0.2-4.5-0.6
			c-1.4-0.4-2.8-1-4.3-1.9c1.4-1.2,3-1.7,4.4-2c1.5-0.3,2.9-0.4,4.3-0.5c1.3,0,2.6,0,3.9,0C199.6,234.2,201,234.2,202.7,234.2z"/>
	</g>
	<g>
		<path class="st3" d="M211.1,241.6c-0.3,1.1-1.1,2.1-2,2.8c-0.9,0.8-2,1.3-3.1,1.7c-2.2,0.7-4.4,0.9-6.5,0.9c-2,0-4.1-0.2-6.2-0.6
			c-2.1-0.5-4.1-1.1-6-2.4c2.1-0.8,4.2-1.2,6.2-1.5c2-0.3,4-0.4,6.1-0.4c2,0,3.9,0.2,5.8,0.2C207.2,242.3,209,242.3,211.1,241.6z"/>
	</g>
	<g>
		<path class="st3" d="M217.3,251.2c-1.4,1.3-3,2.1-4.6,2.7c-1.6,0.6-3.3,0.8-5,0.9c-1.7,0.1-3.4-0.1-5.1-0.6
			c-0.9-0.3-1.7-0.7-2.5-1.2c-0.8-0.6-1.5-1.3-1.9-2.2c1.9-0.1,3.3-0.3,4.8-0.5c1.4-0.2,3-0.4,4.5-0.5c1.6-0.1,3.1,0,4.7,0.2
			C213.9,250.2,215.6,250.5,217.3,251.2z"/>
	</g>
	<g>
		<path class="st3" d="M282.1,215.9c-2.1,0.2-4,0.1-5.8,0.1l-5.2-0.1l-5.2-0.1c-0.9,0-1.8,0-2.8-0.1c-0.5,0-1,0-1.5-0.1
			c-0.2,0-0.4-0.1-0.6,0c-0.2,0-0.4,0.1-0.5,0.3c-0.2-0.2-0.2-0.6,0-0.9c0.2-0.3,0.4-0.5,0.6-0.7c0.4-0.3,0.8-0.7,1.2-1
			c0.9-0.6,1.8-1,2.7-1.4c1.9-0.7,4-1.1,6-1c2.1,0,4.1,0.5,6,1.3C279.1,213,280.8,214.2,282.1,215.9z"/>
	</g>
	<g>
		<path class="st3" d="M284.2,222.1c-1.9,0.6-3.6,0.8-5.2,1c-1.6,0.2-3.2,0.2-4.8,0.2c-1.6,0-3.1,0-4.8-0.2
			c-1.6-0.2-3.3-0.4-5.2-0.9c1.3-1.5,3-2.4,4.7-3c1.7-0.6,3.5-0.9,5.3-0.9c1.8,0,3.6,0.3,5.3,0.9
			C281.2,219.8,282.9,220.7,284.2,222.1z"/>
	</g>
	<g>
		<path class="st3" d="M287.5,227.5C287.5,227.4,287.5,227.4,287.5,227.5C287.5,227.4,287.4,227.4,287.5,227.5
			c-0.1-0.1-0.2-0.1-0.3-0.1c-0.1,0-0.1,0-0.1,0.1c0,0.1,0.1,0.2,0,0.2c-0.3,0.1-0.6,0.2-0.8,0.4c-0.5,0.2-1,0.4-1.5,0.5
			c-0.9,0.3-1.8,0.4-2.7,0.5c-0.9,0.1-1.8,0.1-2.7-0.1c-1-0.1-2-0.3-3.4-0.8c0.5-1.4,1.4-2.3,2.4-3c1-0.7,2.2-1,3.4-1.1
			c1.2-0.1,2.4,0.1,3.5,0.6c0.6,0.3,1.1,0.6,1.6,1c0.2,0.2,0.5,0.4,0.7,0.7c0,0,0.3,0.2,0.3,0.3c0.1,0.1,0.1,0.3,0.1,0.4
			c0,0.1,0,0.2-0.1,0.4c0,0.1-0.1,0.2-0.2,0.2C287.5,227.6,287.5,227.5,287.5,227.5z"/>
	</g>
	<g>
		<path class="st3" d="M171.4,200.9c-0.8,1.3-2,2-3.2,2.5c-1.2,0.5-2.5,0.6-3.7,0.6c-1.2-0.1-2.5-0.5-3.6-1.1
			c-1.1-0.7-2.1-1.6-2.7-2.9c1.4-0.5,2.6-0.7,3.7-0.9c1.1-0.1,2.1-0.1,3.1-0.1c1,0.1,2,0.2,3,0.5C168.9,199.8,170,200.1,171.4,200.9
			z"/>
	</g>
	<g>
		<path class="st3" d="M180.8,206.8c-1.5,1.1-3.1,1.7-4.6,2.2c-1.6,0.4-3.1,0.7-4.7,0.7c-1.6,0.1-3.4-0.1-5.2-0.9
			c-0.9-0.4-1.7-0.9-2.4-1.6c-0.7-0.7-1.2-1.5-1.3-2.5c1.8,0.4,3.1,0.3,4.5,0.2c1.4-0.1,2.7-0.2,4.2-0.3c1.5-0.1,3.1,0,4.7,0.3
			C177.6,205.4,179.2,205.9,180.8,206.8z"/>
	</g>
	<g>
		<path class="st3" d="M183.6,212.7c-1.7,1.4-3.5,2.3-5.5,2.9c-2,0.6-4.2,0.8-6.3,0.6c-2.1-0.2-4.2-0.9-6-2
			c-1.8-1.1-3.4-2.5-4.5-4.5c2.2,0.2,4,0.6,5.8,0.8c1.8,0.3,3.5,0.5,5.2,0.7c1.7,0.2,3.4,0.3,5.3,0.5
			C179.5,211.9,181.5,212.1,183.6,212.7z"/>
	</g>
	<g>
		<path class="st3" d="M249.5,187.9c-1.3,0.8-2.5,1.3-3.5,1.7c-1.1,0.4-2.1,0.6-3.1,0.8c-1,0.2-2.1,0.3-3.2,0.3
			c-1.1,0-2.3,0-3.9-0.3c0.5-1.5,1.4-2.6,2.5-3.4c1.1-0.8,2.3-1.3,3.7-1.5c1.3-0.2,2.7-0.2,4,0.2
			C247.3,186.1,248.5,186.7,249.5,187.9z"/>
	</g>
	<g>
		<path class="st3" d="M244.5,182.3c-1.5,0.8-2.7,1.3-4,1.7c-1.2,0.4-2.4,0.7-3.6,0.9c-1.2,0.2-2.4,0.4-3.6,0.5
			c-1.3,0.1-2.6,0.1-4.3-0.1c0.6-1.6,1.7-2.7,2.9-3.6c1.2-0.9,2.6-1.4,4.1-1.7c1.5-0.3,3-0.3,4.4,0.1
			C242,180.4,243.4,181.1,244.5,182.3z"/>
	</g>
	<g>
		<path class="st3" d="M254.7,193.6c-1.6,0.8-3,1.1-4.4,1.3c-1.4,0.2-2.7,0.3-3.9,0.4c-1.2,0.1-2.4,0.1-3.7,0.1l-4.3,0
			c0.5-1.7,1.8-2.9,3.2-3.7c1.4-0.8,3-1.2,4.6-1.3c1.6-0.1,3.1,0.2,4.5,0.7C252.1,191.5,253.5,192.3,254.7,193.6z"/>
	</g>
	<g>
		<path class="st3" d="M147.1,161.5c1.5,0,2.5,0,3.5,0c1,0,1.8,0,2.8,0.1c0.9,0.1,1.9,0.3,2.9,0.6c1.1,0.3,2.2,0.7,3.4,1.6
			c-1,1.2-2,1.8-3.2,2.3c-1.2,0.4-2.4,0.6-3.7,0.5c-1.3-0.1-2.6-0.6-3.7-1.5C148.1,164.3,147.2,163.1,147.1,161.5z"/>
	</g>
	<g>
		<path class="st3" d="M145.6,168.4c1.5,0.4,2.6,0.5,3.6,0.6c1,0.1,1.9,0.2,2.8,0.4c0.9,0.1,1.9,0.3,3,0.7c1.1,0.3,2.3,0.8,3.6,1.7
			c-1,1.2-2.2,1.8-3.4,2.3c-1.2,0.4-2.6,0.6-4,0.3c-1.4-0.2-2.8-0.8-3.9-1.8C146.2,171.4,145.4,170,145.6,168.4z"/>
	</g>
	<g>
		<path class="st3" d="M141.3,175.7c1.6-0.1,2.9-0.1,4.1,0c1.2,0.1,2.3,0.3,3.4,0.5c1.1,0.2,2.2,0.5,3.3,0.9
			c1.2,0.4,2.4,0.8,3.8,1.6c-1,1.3-2.4,2-3.8,2.4c-1.4,0.4-2.9,0.4-4.3,0.1c-1.4-0.3-2.8-0.9-3.9-1.8
			C142.8,178.4,141.8,177.2,141.3,175.7z"/>
	</g>
	<g>
		<path class="st3" d="M210.7,153.2c-1.5,0.6-2.6,1-3.7,1.3c-1.1,0.3-2.1,0.5-3.1,0.7c-1,0.2-2.1,0.3-3.2,0.3c-1.1,0-2.3,0-3.9-0.1
			c0.4-1.6,1.4-2.7,2.5-3.5c1.1-0.8,2.5-1.4,3.9-1.6c1.4-0.2,2.8-0.1,4.1,0.4C208.6,151.1,209.9,151.9,210.7,153.2z"/>
	</g>
	<g>
		<path class="st3" d="M211.8,158.1c-1.1,1-2.2,1.5-3.2,2c-1,0.4-1.9,0.7-2.8,0.9c-0.9,0.2-1.7,0.3-2.6,0.4c-1,0.1-2,0.2-3.4,0.5
			c-0.2-1.5,0.5-2.9,1.5-3.9c1-1,2.2-1.6,3.5-1.9c1.3-0.3,2.6-0.2,3.7,0.1C209.6,156.5,210.7,157,211.8,158.1z"/>
	</g>
	<g>
		<path class="st3" d="M214.8,163.9c-1.3,0.8-2.3,1.2-3.2,1.6c-0.9,0.4-1.8,0.6-2.7,0.8c-0.9,0.2-1.8,0.3-2.8,0.4
			c-1,0-2.1,0-3.6-0.1c0.2-1.5,1-2.6,1.9-3.4c1-0.8,2.1-1.4,3.3-1.7c1.2-0.3,2.5-0.2,3.7,0.1C212.8,162,214,162.6,214.8,163.9z"/>
	</g>
</g>
<polygon class="st6" points="211.8,58.7 863.2,709.8 1517.7,58.7 "/>
<polygon class="st6" points="862.8,1012 201.6,1669.3 1520.9,1669.3 "/>
<polygon class="st6" points="711.5,860.8 61.8,211.9 61.8,1507.2 "/>
<polygon class="st6" points="1014.6,861.1 1666.2,1512.6 1666.2,213.4 "/>
<path d="M864,272.4c108.8,0,210.7,29.7,298.2,81.4l0,0l97.7-100.8c-113.8-74.6-249.8-118-395.9-118c-144.7,0-279.6,42.6-392.8,116
	L570,351.4C656.5,301.2,756.9,272.4,864,272.4z"/>
<path d="M1145.3,1383.8c-83.6,45.8-179.4,71.8-281.3,71.8c-105.3,0-204.2-27.8-289.7-76.5l-5.6,6.2l-92.2,95.1
	c112.1,71.3,245,112.6,387.5,112.6c142.7,0,275.7-41.4,387.9-112.9l-98.1-101L1145.3,1383.8z"/>
<path d="M350.7,1153.9c-48-85.7-75.4-184.6-75.4-289.9c0-105.4,27.4-204.4,75.5-290.1l-1.2-1.1L249.8,476
	C179.3,588.3,138.6,721.4,138.6,864c0,145,42.1,280,114.7,393.5l100.5-98.1L350.7,1153.9z"/>
<path d="M1480.2,479.1l-99,97.5l-1.7,1.6l1.3,2.2c45.9,84.2,72,180.9,72,283.7c0,107.7-28.7,208.7-78.7,295.7l7.2,6.6l93.8,90.9
	c72.4-113.4,114.5-248.4,114.5-393.2C1589.4,722.7,1549.4,590.8,1480.2,479.1z"/>
<ellipse class="st3" cx="864" cy="864" rx="571.4" ry="574.2"/>
<ellipse class="st6" cx="864" cy="864" rx="552" ry="554.7"/>
<ellipse class="st3" cx="864" cy="864" rx="524.4" ry="527"/>
<ellipse class="st7" cx="864" cy="864" rx="516" ry="518.6"/>
<g>
	<polygon class="st8" points="822.5,435.5 857.5,775.4 844.2,405.3 	"/>
	<polygon class="st8" points="1023.6,521.4 912.7,796.7 1039.1,538.9 1065.7,488.8 1056.9,446.6 	"/>
	<polygon class="st8" points="985.3,518.1 1022.5,415.9 986.7,436.1 967.5,503.1 896,791.1 	"/>
	<polygon class="st8" points="847.9,776.2 813.2,448.6 795.2,473.5 	"/>
	<polygon class="st8" points="938.6,496.8 887.4,789.1 957.4,510.6 977.3,441.3 946.8,458.5 	"/>
	<polygon class="st8" points="1050.5,533.5 920.7,800.4 1064.8,552 1075.4,535.1 1068.1,500.4 	"/>
	<polygon class="st8" points="1169.2,620.2 955.9,826.6 1176.3,642.4 1184.1,636.3 1190.1,601.4 	"/>
	<polygon class="st8" points="1148,599.6 949.6,820.4 1156.6,621.3 1192.2,589.3 1199.5,546.2 	"/>
	<polygon class="st8" points="1101.6,563.2 935.9,809.4 1113.1,583.4 1162.2,525 1125.1,530.8 	"/>
	<polygon class="st8" points="1076.6,547.5 928.4,804.6 1089.5,566.9 1114.5,532.4 1082.9,537.4 	"/>
	<polygon class="st8" points="541.5,645.2 517.2,650.8 757.2,825.9 	"/>
	<polygon class="st8" points="763.5,818.6 537.3,600.5 542.2,632.1 	"/>
	<polygon class="st8" points="838.4,777.7 785.6,480.2 761.2,465.1 	"/>
	<polygon class="st8" points="534.5,583.1 770.4,811.9 528.3,543.5 	"/>
	<polygon class="st8" points="460.7,663.6 427.3,671.2 746.1,841.6 	"/>
	<polygon class="st8" points="503.6,653.9 475.4,660.3 751.3,833.5 	"/>
	<polygon class="st8" points="961.7,833.2 1194.4,664.9 1215.8,650.5 1186.6,644.1 	"/>
	<polygon class="st8" points="424.3,681.8 447.1,718.2 741.3,850 	"/>
	<polygon class="st8" points="829,779.8 748.2,457.1 719.1,439.2 	"/>
	<polygon class="st8" points="802,790 659.8,499.1 652.7,530.1 	"/>
	<polygon class="st8" points="793.5,794.6 645.3,538.4 618.5,533.9 	"/>
	<polygon class="st8" points="663.6,482.6 810.8,786 672.3,444.3 	"/>
	<polygon class="st8" points="785.4,799.8 604,531.4 572.5,526.1 	"/>
	<polygon class="st8" points="942.9,814.6 1135.5,601.6 1201.8,533 1204.3,518.4 1173.6,523.2 1125.4,580.6 	"/>
	<polygon class="st8" points="971.9,847.6 1225.8,713.3 1305.3,674.5 1307.9,670.3 1271.3,662.4 1223.4,690.1 	"/>
	<polygon class="st8" points="929.1,505.1 938,463.5 917.6,474.9 913.3,464.4 909.4,492.6 878.6,787.8 	"/>
	<polygon class="st8" points="947.5,1008.2 1085.3,1185.3 1085.8,1183 1108.5,1186.6 	"/>
	<polygon class="st8" points="989.4,897.1 1275.9,877.7 1318.8,876.2 1347.8,854.6 1340.9,849.5 1283.2,855.6 	"/>
	<polygon class="st8" points="940.7,1013.8 1078,1218.3 1083,1195.6 	"/>
	<polygon class="st8" points="893.2,1036.3 932.7,1263.1 945.7,1245.9 	"/>
	<polygon class="st8" points="653.4,1282 655.2,1302.8 666.9,1297.9 796.4,1033.7 	"/>
	<polygon class="st8" points="884.6,1038 910.7,1292.3 926.1,1272 	"/>
	<polygon class="st8" points="782,1249.9 790.8,1246.2 795.6,1252.8 832.2,1047.7 	"/>
	<polygon class="st8" points="1278.1,826.5 987.9,888.4 1272.4,849.1 1331.9,842.8 1303.7,822 	"/>
	<polygon class="st8" points="983.3,871.4 1259.5,792.9 1263.2,791.9 1242.6,776.8 	"/>
	<polygon class="st8" points="1075.6,1229.1 933.5,1018.9 1069.7,1255.9 	"/>
	<polygon class="st8" points="1238.1,715.7 976.3,855.3 1238.9,739 1273.2,725.1 1297.5,686.7 	"/>
	<polygon class="st8" points="1251,742.3 980,863.2 1246.8,766.8 1266.2,736.1 	"/>
	<polygon class="st8" points="1207,665.5 967.1,840.2 1210.9,688.5 1260.3,660.1 1226.1,652.7 	"/>
	<polygon class="st8" points="1271.1,797.8 985.9,879.9 1266.9,820.7 1295.3,815.7 1271.1,797.8 	"/>
	<polygon class="st8" points="953.9,1002.1 1121.1,1188.6 1152.5,1193.5 	"/>
	<polygon class="st8" points="1209,1068.2 978.9,966 1192.2,1080 1191,1072.4 	"/>
	<polygon class="st8" points="1193.7,1090 974.9,973.9 1197.4,1113.6 	"/>
	<polygon class="st8" points="1252.1,941.6 990,923.6 1264.9,962.8 	"/>
	<polygon class="st8" points="1267.4,914.5 990.4,914.7 1247,933.2 1245.5,930.8 	"/>
	<polygon class="st8" points="1187.4,1186.2 959.9,995.6 1166.1,1195.6 1166.1,1195.6 1204.7,1201.7 	"/>
	<polygon class="st8" points="1048.5,1294.1 918.1,1027.5 1023.2,1289.2 1054.5,1307.7 	"/>
	<polygon class="st8" points="926,1023.5 1051.3,1281.8 1059.8,1300.9 1067.2,1267.5 	"/>
	<polygon class="st8" points="457.1,734.3 474.8,762.5 737.2,858.7 	"/>
	<polygon class="st8" points="965.4,988.8 1185,1173.8 1210.2,1196.5 1204.9,1162.4 	"/>
	<polygon class="st8" points="970.4,981.5 1202.4,1150.8 1203.2,1151.4 1199,1124 	"/>
	<polygon class="st8" points="851.3,1050.8 825.9,1294.1 841.5,1315.3 	"/>
	<polygon class="st8" points="910,1031 986.3,1267.4 1011.9,1282.5 	"/>
	<polygon class="st8" points="841.7,1049.6 804.1,1264.3 816.8,1281.6 	"/>
	<polygon class="st8" points="901.7,1034 954.8,1248.8 975.8,1261.2 	"/>
	<polygon class="st8" points="885.2,1326.2 903.7,1301.7 875.8,1039.2 885.2,1326.2 	"/>
	<polygon class="st8" points="864.5,693.7 871.7,500 878.7,398.7 864,377.8 854.6,391 	"/>
	<polygon class="st8" points="819.8,782.6 705,430.5 679.2,414.6 676.6,425.9 	"/>
	<polygon class="st8" points="1270.4,1031 985.1,949.5 1254.7,1048.3 1268.9,1054 1310.7,1044.1 	"/>
	<polygon class="st8" points="864.1,957.5 851.5,1328.9 867.1,1350.2 877.7,1336.2 	"/>
	<polygon class="st8" points="777.7,805.6 556.8,523.4 524.3,517.9 525.2,524 	"/>
	<polygon class="st8" points="879.9,490.5 869.8,787.1 900.5,501.6 907.7,450.3 897.7,425.7 885.6,408.5 	"/>
	<polygon class="st8" points="823,1045.1 752.7,1262.1 770.2,1254.8 	"/>
	<polygon class="st8" points="989,932.3 1269.7,992.6 1285.4,996.5 1270.2,971.6 	"/>
	<polygon class="st8" points="995.8,511.3 904.4,793.6 1012.6,527.6 1054.3,433.9 1047.6,401.8 1032.6,410.2 	"/>
	<polygon class="st8" points="1277.7,1002.4 987.3,941 1263.2,1020.7 1309.1,1035.6 1291,1005.7 	"/>
	<polygon class="st8" points="1286.2,884.9 990.2,905.9 1277.3,906.5 1278.1,906.6 1308.1,884.2 	"/>
	<polygon class="st8" points="1221.8,1065.2 1255.8,1057.1 982.3,957.9 	"/>
	<polygon class="st8" points="455.6,972.7 442.6,994.1 727.5,934.2 	"/>
	<polygon class="st8" points="726,915 461.4,915.3 482.2,929.1 480.7,931.6 	"/>
	<polygon class="st8" points="474,942.5 462.7,961.1 726.4,924.6 	"/>
	<polygon class="st8" points="435,1006.5 419.6,1031.8 729.3,943.7 	"/>
	<polygon class="st8" points="418.6,1043.1 455.4,1052.9 731.8,953 	"/>
	<polygon class="st8" points="460.5,799.6 440.9,814.6 730.9,876.9 	"/>
	<polygon class="st8" points="733.7,867.7 483.8,777 485.8,780.2 470.8,791.7 	"/>
	<polygon class="st8" points="734.9,962.1 473.1,1057.7 501.7,1065.3 	"/>
	<polygon class="st8" points="414.2,883.9 445.6,904.8 726.2,905.4 	"/>
	<polygon class="st8" points="395.4,849.5 380.2,861.2 396.4,871.9 727.1,895.8 	"/>
	<polygon class="st8" points="429.9,823.1 407.3,840.4 728.6,886.3 	"/>
	<polygon class="st8" points="742.9,979.6 536.5,1089.6 533.3,1110 	"/>
	<polygon class="st8" points="780.3,1023.1 645.8,1195.7 647.8,1218.7 	"/>
	<polygon class="st8" points="772.9,1017 618.4,1188.9 640.7,1185.5 	"/>
	<polygon class="st8" points="538.5,1076.8 738.6,971 517.7,1069.6 538.8,1075.2 	"/>
	<polygon class="st8" points="788.2,1028.7 649.3,1235.1 651.8,1263.8 	"/>
	<polygon class="st8" points="805,1038.1 681.6,1291.8 706.1,1281.6 	"/>
	<polygon class="st8" points="765.9,1010.4 574.4,1195.7 602.2,1191.4 	"/>
	<polygon class="st8" points="747.8,987.9 531.1,1123.6 527.4,1147.4 	"/>
	<polygon class="st8" points="759.3,1003.3 520.8,1203.9 556.4,1198.5 	"/>
	<polygon class="st8" points="813.9,1042 719.6,1275.9 740.1,1267.4 	"/>
	<polygon class="st8" points="753.3,995.8 525.1,1162 520.6,1190.2 	"/>
</g>
<g>
	<path class="st8" d="M258.4,919.6l-101.8,7.3l-1.6-21.7l101.8-7.3L258.4,919.6z"/>
	<path class="st8" d="M257.8,810.4l-68.7,45.5l66.5,3.1l-1,21.7L152.6,876l1-22.3l66.2-44.3l-64-3l1-21.7l101.9,4.7L257.8,810.4z"/>
	<path class="st8" d="M783.8,257.8l-7.3-42.4l-47.5,8.2l7.3,42.4l-21.4,3.7l-17.4-100.6l21.4-3.7l6.8,39.5l47.5-8.2l-6.8-39.5
		l21.6-3.7l17.4,100.6L783.8,257.8z"/>
	<path class="st8" d="M817,201.3c0.5-30.8,23.3-52.4,54.2-51.9c30.8,0.5,52.9,22.9,52.4,53.6c-0.5,30.8-23.3,52.4-54.1,51.9
		C838.6,254.4,816.5,232,817,201.3z M901.3,202.6c0.3-19.1-11.5-33.7-30.4-34c-19-0.3-31.3,13.9-31.6,33c-0.3,19,11.5,33.7,30.5,34
		C888.7,235.9,901,221.6,901.3,202.6z"/>
	<path class="st8" d="M938.1,204.5c5.8-31,33-47.6,63.2-41.9c22,4.1,32.5,18.3,37.3,32.3l-20,5.6c-2.7-8.9-10.5-17.1-20.8-19
		c-18.4-3.4-34.2,8.1-37.7,27.1c-3.5,19,7.1,35.4,25.5,38.8c10.2,1.9,20.5-2.9,26.2-10.2l16.7,12.3c-9.4,11.2-24.4,21-46.4,16.9
		C951.8,260.8,932.4,235.4,938.1,204.5z"/>
	<path class="st8" d="M1445.5,636.6l19.8,6.4c-5,9.1-7.8,21.7-3.7,35.1c3.6,11.5,10.4,15.4,16.1,13.6c16.9-5.3-12.3-57.7,24.4-69.1
		c16.2-5,34,4.8,41.1,27.8c4.8,15.5,4.1,29.8-1.8,42.2l-19.1-6.7c4.9-10.2,4.9-21.7,1.9-31.7c-2.7-8.8-8.1-12.6-13.9-10.7
		c-15.3,4.8,12.4,57.5-24,68.8c-17.8,5.5-35.3-3.1-43.4-29.3C1437,664,1439.1,648.6,1445.5,636.6z"/>
	<path class="st8" d="M1459.3,739l100.3-18.9l4,21.4l-100.3,18.9L1459.3,739z"/>
	<path class="st8" d="M1518.9,775.2c32.2-1.9,54.1,21.4,55.9,51.3c1.2,21.1-8.7,35-20.3,43.3l-10.8-17.3
		c6.9-5.2,12.5-14.2,11.9-24.9c-1.1-18.6-16.1-31.3-35.3-30.1c-19.2,1.1-32.7,15.4-31.6,34c0.5,9,5,17.2,9,21.1l12.2-0.7l-1.6-26.9
		l18.9-1.1l2.8,48.6l-39.1,2.3c-12.2-9.7-20.5-23.8-21.6-42.1C1467.6,802.7,1486.8,777,1518.9,775.2z"/>
	<path class="st8" d="M1464.3,964.6l72-40.1l-66-8.2l2.7-21.6l101.3,12.5l-2.7,22.2l-69.4,39.1l63.6,7.9l-2.7,21.6l-101.3-12.5
		L1464.3,964.6z"/>
	<path class="st8" d="M1507.3,1017.6c29.3,9.4,43.3,37.6,33.8,67c-9.4,29.3-37.3,43.9-66.6,34.5s-43.3-37.6-33.9-66.9
		C1450.1,1022.8,1478,1008.2,1507.3,1017.6z M1481.4,1097.9c18.2,5.9,35.6-1.2,41.4-19.1c5.8-18.1-4.1-34-22.3-39.8
		c-18.1-5.8-35.6,1.2-41.4,19.3C1453.2,1076.1,1463.3,1092,1481.4,1097.9z"/>
</g>
<polygon class="st9" points="974.7,605.6 1038.9,389 908.8,389 842.9,607 660.1,609 622.8,733.4 805.6,730.4 633.2,1300.9 
	768.3,1300.9 938.3,728.3 1121.7,725.3 1157.6,603.6 "/>
<polygon class="st10" points="1150.2,609.2 967.3,611.2 1031.6,394.5 912.9,394.5 847,612.5 664.2,614.5 630.2,727.8 813.1,724.8 
	640.6,1295.4 764.2,1295.4 934.1,722.8 1117.6,719.8 "/>
<path class="st9" d="M1273.7,238.8l128-132H329.2l128.1,130.1C574.2,160.1,713.9,115.5,864,115.5
	C1015.4,115.5,1156.2,160.9,1273.7,238.8z"/>
<path class="st9" d="M462.7,1494.7l-133.5,137.6h1072.5l-135.9-138c-115.9,74.8-253.8,118.2-401.8,118.2
	C716.2,1612.5,578.5,1569.3,462.7,1494.7z"/>
<path class="st9" d="M235.5,462.1L102.7,333.3v1072.5l136.4-134.4c-75.9-117.3-119.9-257.2-119.9-407.5
	C119.2,716.1,161.9,578.3,235.5,462.1z"/>
<path class="st9" d="M1489.2,1271l139,134.8V333.3l-133.9,131.8c72.5,115.5,114.5,252.3,114.5,398.9
	C1608.8,1014.1,1564.9,1153.9,1489.2,1271z"/>
<g>
	<path class="st8" d="M572.6,1519.8l5.5-109.2l22.5,10l-5.9,83.1l57.7-60.1l22.5,10l-77.4,77.3L572.6,1519.8z"/>
	<path class="st8" d="M666.2,1555.1l26.9-98.4l21,5.7l-26.9,98.4L666.2,1555.1z"/>
	<path class="st8" d="M800.5,1579.6l-41-71.5l-7.3,66.1l-21.6-2.4l11.3-101.4l22.2,2.5l39.9,68.9l7.1-63.7l21.6,2.4l-11.3,101.4
		L800.5,1579.6z"/>
	<path class="st8" d="M859.5,1531.3c-2.8-31.4,19-54.7,49.6-57.3c22.3-2,36.3,9,44.6,21.1l-17.8,10.8c-5-7.9-14.7-13.6-25.1-12.7
		c-18.6,1.6-30.8,17-29.1,36.2c1.7,19.2,16.3,32.2,34.9,30.6c10.4-0.9,18.9-8.3,22.5-16.9l19.4,7.4c-6.1,13.3-17.9,26.8-40.2,28.7
		C887.7,1581.8,862.2,1562.5,859.5,1531.3z"/>
	<path class="st8" d="M996.4,1567l-23.1-99.4l70.3-16.3l4.3,18.6l-49.2,11.4l4.8,20.9l48.1-11.2l4.3,18.6l-48.1,11.2l5.3,22.7
		l49.2-11.4l4.3,18.6L996.4,1567z"/>
	<path class="st8" d="M1094.7,1527.5l4.6-20.2c9.5,4.2,22.3,5.9,35.3,0.6c11.2-4.6,14.4-11.7,12.1-17.2
		c-6.7-16.4-56.4,17.3-70.9-18.3c-6.4-15.7,1.8-34.3,24.1-43.4c15-6.1,29.3-6.7,42.2-1.9l-5,19.6c-10.5-4-22.1-3-31.7,0.9
		c-8.5,3.5-11.8,9.1-9.5,14.8c6.1,14.9,56.2-17.4,70.6,17.9c7.1,17.3-0.1,35.4-25.4,45.8C1122.7,1533.5,1107.2,1532.8,1094.7,1527.5
		z"/>
</g>
<g>
	<g>
		<path class="st11" d="M596.4,1021.7c-3.8,0-7.3-2.2-8.8-5.9c-2-4.9,0.4-10.4,5.2-12.4c1.2-0.5,125.7-50.4,268-57
			c74.7-3.5,149.1,9.9,198.4,21.8c53.4,12.8,88.7,26.3,90.2,26.9c4.9,1.9,7.3,7.4,5.5,12.3c-1.9,4.9-7.4,7.3-12.3,5.5
			c-1.4-0.5-142.3-53.8-280.9-47.4c-139.1,6.5-260.5,55.1-261.8,55.6C598.8,1021.4,597.6,1021.7,596.4,1021.7z"/>
		<path class="st11" d="M596.4,1028.2c-6.5,0-12.4-3.9-14.8-10c-1.6-4-1.6-8.3,0.1-12.2c1.7-3.9,4.8-7,8.7-8.6
			c1.2-0.5,126.7-50.8,270.1-57.4c8.1-0.4,16.4-0.6,24.8-0.6c67.6,0,132.7,12.2,175.5,22.5c53.9,13,89.5,26.5,91,27.1
			c8.2,3.2,12.4,12.4,9.2,20.7c-2.4,6.1-8.4,10.3-14.9,10.3c-2,0-3.9-0.4-5.7-1.1c-1.2-0.5-125.6-47.5-254.9-47.5
			c-7.9,0-15.8,0.2-23.4,0.5c-137.8,6.4-258.4,54.6-259.6,55.1C600.5,1027.8,598.5,1028.2,596.4,1028.2z M885.3,952.3
			c-8.2,0-16.3,0.2-24.2,0.6c-141.1,6.6-264.6,56-265.9,56.5c-1,0.4-1.5,1.2-1.6,1.6c-0.2,0.4-0.4,1.3,0,2.3
			c0.6,1.5,2.4,2.3,3.9,1.7c1.2-0.5,123.7-49.6,263.9-56.1c7.8-0.4,15.9-0.5,24-0.5c131.7,0,258.3,47.9,259.5,48.4
			c0.3,0.1,0.7,0.2,1.1,0.2c1,0,2.3-0.6,2.8-1.9c0.6-1.5-0.2-3.3-1.7-3.9c-1.5-0.6-36.3-13.8-89.4-26.6
			C1015.7,964.4,951.6,952.3,885.3,952.3z"/>
	</g>
</g>
<path class="st3" d="M1256.5,859.5c-0.8-0.9-8.3-9.2-27.1-9.2c-1,0-2,0-3.1,0.1c-12.7,0.6-21.2,6.5-26.1,11.6
	c-6-5-15.8-11.3-27.5-11.3c-7.7,0-14.9,2.6-21.6,7.9l-4.5,3.5l2.6,5.1c0.1,0.2,11.4,23.2,0.3,41.2c-4.1,6.7-14.2,11.1-25.6,11.1
	c-12.6,0-29.2-5.6-34.6-21.2c-3.4-10.1-2.8-19.6,2-28.4c5.6-10.2,14.9-16.2,18.7-17.2l7.4-1.9l-2.5-7.2c-0.4-1-8.4-23.6-31.7-26.2
	c0.7-10.4-0.6-28.6-14-46.9l-3.6-4.9l-5.3,2.8c-1.3,0.7-28.1,15.1-34,39c-3.8-1-8.6-1.8-13.7-1.8c-12.5,0-23.1,4.9-30.6,14.3
	l-4.7,5.7l6,4.3c0.6,0.4,13.9,10.7,10.5,33.1c-2.3,15.3-21.3,23.5-37.9,23.5c-9.7,0-18.8-2.7-25.6-7.5c-9.2-6.5-13.6-18.3-11.6-31.4
	c2.1-14.2,11.2-26,23-29.9l6.9-2.3l-2.5-6.8c-0.4-1-9.5-25.1-33.2-25.1c-3.5,0-7,0.5-10.7,1.6c-3.6-12.7-12.6-37-30.3-47.2l-3.6-2.1
	l-3.5,2.1c-1.3,0.8-29.1,17.8-32.4,46.2c-2.4-0.7-5.2-1.1-8.2-1.1c-9.2,0-22.9,4.2-36.1,24l-4,6.1l6.2,3.8
	c0.3,0.2,25.3,15.7,23.9,40c-1,17-21.6,33.1-42.4,33.1c-6.8,0-12.8-1.8-17.7-5.3c-10.6-7.5-13.4-17.4-13.9-24.5
	c-0.9-13.1,5-25,11.3-31l5.8-5.5l-6.2-5c-0.5-0.4-13.4-10.7-29-10.7c-4.8,0-9.3,0.9-13.5,2.8c-4.8-9.4-15.2-25-35.6-35.8l-5.6-3
	l-3.5,5.3c-0.6,1-14.3,22.2-10.2,45c-13.2,3.7-28.9,12.4-28.1,27.9l0.2,5.2l5,1.3c0.9,0.2,21.1,6.1,20.4,36.9
	c-0.7,31.8-25.6,34.3-33.2,34.3c-3.2,0-6.5-0.4-9.3-1.1c-16.2-4.2-23.7-15.7-23.7-36.3c0-10.9,0-18.1-1.7-23.3
	c-2.3-7.1-7.7-10.7-16.1-10.7c-2.1,0-4.6,0.2-7.6,0.6c-10.4,1.5-16.5,6.1-19.8,11.1c-7.8-4.6-20.7-10.4-35.8-10.4
	c-7,0-13.9,1.3-20.4,3.8l-9.8,3.8l7.3,7.6c0.7,0.8,75.1,77.9,112.2,149c9.3,17.8,16.2,31.4,21.7,42.3c5,9.9,8.5,16.8,11.3,21.9
	c-3.3,5.1-3.9,11.7-1,17.4c3,6,9,9.7,15.7,9.7c2.7,0,5.4-0.6,7.8-1.8c0.8-0.4,83.4-40.6,220.3-44.5c6.2-0.2,12.5-0.3,18.7-0.3
	c124.8,0,200.7,36.9,201.4,37.3c2.4,1.2,5.2,1.9,7.9,1.9h0c6.6,0,12.6-3.7,15.6-9.6c2.8-5.5,2.4-11.9-0.7-17
	c0.7-1.2,1.4-2.4,2.1-3.7c19.1-38.1,96.6-161.8,142.4-206.5l4.7-4.6L1256.5,859.5z"/>
<path class="st6" d="M485.8,868.1c0,0,75.3,77.8,113.4,150.6c38.1,72.8,37.1,78.5,46.8,74.5c9.7-4,164.3-56.8,277.7-44.1
	s164.7,61.3,183.8,23.3c19-37.9,97.1-162.8,143.8-208.4c0,0-6.3-7.5-24.6-6.7s-25.7,15-25.7,15s-22.3-26.5-45.5-8.3
	c0,0,13.2,26.4,0,48c-13.2,21.5-62.1,19.9-72.8-11.6c-10.8-31.5,15.7-52.1,25.7-54.6c0,0-8.3-24-33.1-21.5c0,0,6.6-24.8-11.6-49.7
	c0,0-31.5,16.6-31.5,42.2c0,0-28.1-13.2-44.7,7.4c0,0,17.4,12.5,13.2,39.8c-4.1,27.3-48.8,38.9-74.5,20.6
	c-25.7-18.2-16.6-63.7,13.2-73.7c0,0-11.6-31.5-42.2-16.6c0,0-7.4-38.1-29-50.5c0,0-33.1,19.9-29,51.3c0,0-22.3-19-45.5,15.7
	c0,0,29,17.4,27.3,46.4c-1.7,29-45.5,51.3-71.2,33.1c-25.7-18.2-18.2-52.1-3.3-66.2c0,0-22.3-18.2-41.4-3.3c0,0-7.4-24.8-35.6-39.7
	c0,0-15.7,24-7.4,46.4c0,0-30.6,5-29.8,22.3c0,0,26.5,6.6,25.7,43.9c-0.8,37.2-32.3,44.7-51.3,39.7c-19-5-29-19-29-43
	s0-28.9-17.4-26.4c-17.4,2.4-17.4,14.8-17.4,14.8S515.6,856.5,485.8,868.1z"/>
<path class="st8" d="M584.4,952c0,0,29.1,50.2,40.5,71.7l40.5,9.4c0,0-21.1,28.1-20.4,30.8s11.1,21.8,11.1,21.8
	s74.1-24.3,112.2-29.4c38.1-5.2,177.4-16.6,239.4,0.3s71.4,22.2,75.9,15.8c4.5-6.4,8-12.7,8-12.7l-20.8-30.1l38.5-10.7l43.7-73.1
	c0,0-25.6,11.4-58.5,0c-32.9-11.4-40.2-42.6-40.2-42.6s-3.1,8-13.2,12.1s-12.8,11.1-12.8,11.1s1.7-8.4-5.2-14.6
	c-9.7-8.7-10.4-15.2-10.4-15.2S988,923.2,952,919.1c-36-4.1-54.4-25.6-54.4-25.6s-2.5,6.6-12.4,13.2c-9.8,6.6-16,10-16.6,16.3
	c0,0-3.3-8.7-11.3-11.8c-8-3.1-16.6-12.1-19.1-17.7c-2.4-5.5-6.2,13.2-36,23.9c-29.8,10.7-67.6-5.9-75.9-16.6c0,0-5.2,9-10.4,15.2
	c-5.2,6.2-2.1,14.6-2.1,14.6s-2.8-6.9-14.9-10s-18-8-18-8s-10.4,28.1-38.8,40.5C613.9,965.5,584.4,952,584.4,952z"/>
<g>
	<path class="st6" d="M640.6,1106.3c-3.9,0-7.6-2.1-9.4-5.8c-2.6-5.2-0.5-11.5,4.7-14.1c3.5-1.8,88.2-43.3,232-47.5
		c144.2-4.2,229.9,38.2,233.5,40c5.2,2.6,7.3,8.9,4.6,14.1c-2.6,5.2-8.9,7.3-14.1,4.6c-0.8-0.4-85-41.8-223.4-37.8
		c-139.3,4-222.4,44.8-223.2,45.2C643.8,1105.9,642.2,1106.3,640.6,1106.3z"/>
</g>
<g>
	<path class="st6" d="M596.4,1021.7c-3.8,0-7.3-2.2-8.8-5.9c-2-4.9,0.4-10.4,5.2-12.4c1.2-0.5,125.7-50.4,268-57
		c74.7-3.5,149.1,9.9,198.4,21.8c53.4,12.8,88.7,26.3,90.2,26.9c4.9,1.9,7.3,7.4,5.5,12.3c-1.9,4.9-7.4,7.3-12.3,5.5
		c-1.4-0.5-142.3-53.8-280.9-47.4c-139.1,6.5-260.5,55.1-261.8,55.6C598.8,1021.4,597.6,1021.7,596.4,1021.7z"/>
</g>
<g>
	<polygon class="st6" points="746.2,989.1 785.3,1005.7 756.9,1035.2 715,1021 	"/>
	<circle class="st6" cx="692.2" cy="1025.8" r="15.9"/>
	<polygon class="st6" points="868.1,975.2 903.5,998.9 870,1022.5 831.5,1000.7 	"/>
	<circle class="st6" cx="809.1" cy="1003.2" r="15.9"/>
	<polygon class="st6" points="990.6,985.6 951.9,1003.3 981.1,1032 1022.6,1016.7 	"/>
	<circle class="st6" cx="1045.6" cy="1020.9" r="15.9"/>
	<circle class="st6" cx="928" cy="1001.4" r="15.9"/>
</g>
<g>
	<path class="st12" d="M721.9,882.4c0,0-5.5-12.8-2.8-29.4c2.8-16.6,12.5-23.6,5.5-26.3c-6.9-2.8-15.2,8.7-18,25.6
		C703.9,869.2,715.7,881.7,721.9,882.4z"/>
	<path class="st12" d="M696.3,872.3c0,0-14.2-22.2-20.1-40.5s8.3-24.9,15.6-10C699.1,836.6,696.3,872.3,696.3,872.3z"/>
	<path class="st12" d="M676.6,900c0,0,4.2-14.2-5.9-30.8c-10-16.6-19.4-13.9-16.6-23.6s21.1,3.2,26.7,18.4S682.8,891.4,676.6,900z"
		/>
	<ellipse class="st12" cx="702.2" cy="894" rx="8.3" ry="8.5"/>
	<path class="st12" d="M563.6,929.1c0,0-40.9-39.5-38.8-40.2c2.1-0.7,8,0.1,14.6,3.5c6.6,3.4,9,4.1,11.4-1.8
		c2.4-5.9,6.2-13.5,11.1-10.7C566.7,882.7,551.5,901.1,563.6,929.1z"/>
	<path class="st12" d="M867.1,854.3c0,0-4.5-21.6-7.6-40.7c-3.1-19.2-1.4-37.9,7.6-37.9s12.5,11.3,8,37.9
		C870.6,840.1,870.9,857,867.1,854.3z"/>
	<path class="st12" d="M890.7,868.5c0,0-8.4-3.1-5.4-30.5s21.4-36,25.5-30.5c4.2,5.5,0.7,10.4-8.3,20.4s-11.8,17.3-11.4,26.3
		C891.4,863.3,894.5,867.1,890.7,868.5z"/>
	<path class="st12" d="M843.9,871.2c0,0,7.5-0.2,9.5-22s-17.1-42.7-28.9-43.2c-11.8-0.5-5.2,9.6,4.5,17.9
		c9.7,8.3,14.2,26.3,14.6,34.3S840.8,869.3,843.9,871.2z"/>
	<path class="st12" d="M1018.5,880.6c0,0,12.8-8.1,13.9-26.1c1-17.9-8.7-30.4-17-29c-8.3,1.4-3.1,9,0,18
		C1018.5,852.6,1021.6,865.1,1018.5,880.6z"/>
	<path class="st12" d="M1042.1,864c0,0,21.5-46.5,18.7-58.1c-2.8-11.6-14.6-4.9-17,19.5C1041.4,849.8,1040.7,867,1042.1,864z"/>
	<path class="st12" d="M1057.6,886.5c0,0-9.4-10.4-2.8-27c6.6-16.6,23.6-23.9,29.4-18.7s-7.5,6.9-15.9,17.7
		C1060.1,869.2,1056.3,881,1057.6,886.5z"/>
	<ellipse class="st12" cx="1035" cy="889.8" rx="8.5" ry="9.2"/>
	<path class="st12" d="M1174.4,924.3l44-46.4c0,0-9.7,0-18,5.5c-8.3,5.5-6.2,9.4-9.4,1s-10.4-12.8-12.8-10c-2.4,2.8,6.2,14.2,1.7,26
		C1175.4,912.2,1168.5,925.7,1174.4,924.3z"/>
	<ellipse class="st12" cx="867.5" cy="884" rx="9.5" ry="9"/>
</g>
</svg>
