<?xml version="1.0" encoding="utf-8"?>
<!-- Generator: Adobe Illustrator 21.1.0, SVG Export Plug-In . SVG Version: 6.00 Build 0)  -->
<svg version="1.1" id="Layer_1" xmlns="http://www.w3.org/2000/svg" xmlns:xlink="http://www.w3.org/1999/xlink" x="0px" y="0px"
	 viewBox="0 0 785.5 301.7" style="enable-background:new 0 0 785.5 301.7;" xml:space="preserve">
<style type="text/css">
	.st0{fill:#F4CB25;}
	.st1{fill:#232D45;}
	.st2{fill:#B63226;}
</style>
<g>
	<g>
		<path class="st0" d="M104.7,158c0,20.5-13.7,25-28.2,25.9V130C95.3,130.6,104.7,140,104.7,158L104.7,158z M102.3,137.3
			c-0.5-0.6-1-1.2-1.5-1.8c-0.1-0.1-0.1-0.1-0.2-0.2c-1.4-1.4-2.9-2.6-4.5-3.7c0,0-0.1-0.1-0.1-0.1c-0.6-0.4-1.2-0.7-1.8-1
			c-0.4-0.2-0.9-0.4-1.3-0.7c-0.2-0.1-0.5-0.2-0.8-0.3c-4.8-2-10.6-3-17.4-3h-1.6v61c31.3-0.9,35.1-17.2,35.1-29.5
			c0-7.7-1.6-14-4.6-18.9c-0.2-0.2-0.3-0.5-0.5-0.7C102.8,138,102.5,137.6,102.3,137.3L102.3,137.3z"/>
	</g>
	<g>
		<path class="st0" d="M121.2,203.7c-11.6,8.7-27.6,13.5-45.2,13.5H45.4c-0.4,0-0.7,0-1.1-0.1h-4.1v-4.1c-0.1-0.3-0.1-0.7-0.1-1.1
			V102.2c0-0.4,0-0.7,0.1-1.1V97h4.1c0.3-0.1,0.7-0.1,1.1-0.1h31.9c16.8,0,32.4,4.8,43.9,13.4c14.1,10.6,21.6,26.6,21.6,46.3
			C142.8,176.7,135.3,193,121.2,203.7L121.2,203.7z M123.3,107.5c-12.1-9.1-28.4-14.1-46-14.1H40.2c-2,0-3.6,1.6-3.6,3.6v120
			c0,2,1.6,3.6,3.6,3.6h35.7c18.3,0,35.2-5,47.3-14.2c15-11.3,23-28.6,23-49.8C146.2,135.8,138.3,118.8,123.3,107.5L123.3,107.5z"/>
	</g>
	<g>
		<path class="st0" d="M164,212.4h-5.3v-5.3v-85.5v-5.4h5.3v0h54.8v0h5.3v5.4v14.8v5.3h-5c-0.1,0-0.2,0-0.3,0h-32v8.6h32
			c0,0,0,0,0,0h5.3v5.3v14.8v5.3h-5.3v0h-32V187h32v0h5.3v5.3v14.8v5.3h-5.3H164L164,212.4z M227.1,211.8v-24.2c0-2-1.6-3.6-3.6-3.6
			h-33.8v-5.4h33.8c2,0,3.6-1.6,3.6-3.6V151c0-2-1.6-3.6-3.6-3.6h-33.8v-2.8h33.8c2,0,3.6-1.6,3.6-3.6v-24.2c0-2-1.6-3.6-3.6-3.6
			h-64.2c-2,0-3.6,1.6-3.6,3.6v94.9c0,2,1.6,3.6,3.6,3.6h64.2C225.5,215.3,227.1,213.7,227.1,211.8L227.1,211.8z"/>
	</g>
	<g>
		<path class="st0" d="M377.5,211.8c0,0.4,0,0.7-0.1,1.1v4.1h-4.1c-0.3,0.1-0.7,0.1-1.1,0.1h-22.4c-0.4,0-0.7,0-1.1-0.1h-4.1v-4.1
			c-0.1-0.3-0.1-0.7-0.1-1.1v-52.9L322,213.8c-0.1,0.3-0.3,0.6-0.5,0.9l-0.9,2.3h-2.5c-0.3,0.1-0.7,0.1-1,0.1h-16
			c-0.3,0-0.7,0-1-0.1h-2.5l-0.9-2.3c-0.2-0.3-0.4-0.6-0.5-0.9l-21.7-54.5v52.5c0,0.4,0,0.7-0.1,1.1v4.1h-4.1
			c-0.3,0.1-0.7,0.1-1.1,0.1h-22.4c-0.4,0-0.7,0-1.1-0.1h-4.1v-4.1c-0.1-0.3-0.1-0.7-0.1-1.1V102.2c0-0.4,0-0.7,0.1-1.1V97h4.1
			c0.3-0.1,0.7-0.1,1.1-0.1h33c0.3,0,0.7,0,1,0.1h2.6l0.9,2.4c0.2,0.3,0.3,0.6,0.5,0.9l24.6,63.7l25.5-63.8c0.1-0.3,0.3-0.6,0.5-0.9
			l0.9-2.3h2.5c0.3-0.1,0.7-0.1,1-0.1h32.4c0.4,0,0.7,0,1.1,0.1h4.1v4.1c0.1,0.3,0.1,0.7,0.1,1.1V211.8L377.5,211.8z M377.4,93.5
			h-41.2c-1.5,0-2.8,0.9-3.3,2.2l-23.5,58.9l-22.7-58.9c-0.5-1.4-1.8-2.3-3.3-2.3h-41.8c-2,0-3.6,1.6-3.6,3.6v120
			c0,2,1.6,3.6,3.6,3.6h32.8c2,0,3.6-1.6,3.6-3.6v-39.7l16.3,41c0.5,1.4,1.8,2.2,3.3,2.2h23c1.4,0,2.7-0.9,3.3-2.2l17.2-41.9V217
			c0,2,1.6,3.6,3.6,3.6h32.8c2,0,3.6-1.6,3.6-3.6V97C381,95.1,379.4,93.5,377.4,93.5L377.4,93.5z"/>
	</g>
	<g>
		<path class="st0" d="M456.8,164.3c0,11.8-7.6,20.7-17.8,20.7c-10.2,0-17.9-8.9-17.9-20.7c0-11.8,7.7-20.7,17.9-20.7
			C449.1,143.6,456.8,152.5,456.8,164.3L456.8,164.3z M418.2,164.3c0,13.5,8.9,23.6,20.8,23.6c11.8,0,20.7-10.2,20.7-23.6
			c0-13.5-8.9-23.6-20.7-23.6C427.1,140.7,418.2,150.9,418.2,164.3L418.2,164.3z"/>
	</g>
	<g>
		<path class="st0" d="M489,164.3c0,27.8-22,49.5-50,49.5c-28.1,0-50.2-21.8-50.2-49.5c0-27.8,22-49.5,50.2-49.5
			C467.1,114.8,489,136.6,489,164.3L489,164.3z M401.8,127.1c-9.6,9.7-14.8,23-14.8,37.2c0,14.3,5.3,27.5,14.8,37.2
			c9.7,9.8,22.9,15.2,37.2,15.2c29.7,0,52.9-23,52.9-52.5c0-29.4-23.3-52.5-52.9-52.5C424.7,111.9,411.5,117.3,401.8,127.1
			L401.8,127.1z"/>
	</g>
	<g>
		<path class="st0" d="M559.1,187L559.1,187l5.3-0.1v5.4v14.8v5.3h-5.3h-52.5h-5.3v-5.3v-9.9v-75.6c0-0.1,0-0.2,0-0.3h0v-5.1h28v4.4
			c0.1,0.3,0.1,0.6,0.1,0.9V187H559.1L559.1,187z M532.3,116.9c0-2-1.6-3.6-3.6-3.6h-26.9c-2,0-3.6,1.6-3.6,3.6v94.9
			c0,2,1.6,3.6,3.6,3.6h61.9c2,0,3.6-1.6,3.6-3.6v-24.2c0-2-1.6-3.6-3.6-3.6h-31.5V116.9L532.3,116.9z"/>
	</g>
	<g>
		<path class="st0" d="M665.1,212.4h-5.8h-6.8H645h-3.7l-1.1-3.2c-0.1-0.1-0.2-0.3-0.2-0.4l-1.5-4.5l-1-2.7l0.1,0.1l-1.8-5.1h-22.9
			l-1.8,5.1l-3.9,10.8h-3.8h-7.5h-6.1h-5.8h-8.3l4.4-10l33.8-82.8c0.3-0.8,0.9-1.5,1.5-2.1l0.3-0.6h0.7c0.8-0.4,1.6-0.6,2.5-0.6H633
			c0.9,0,1.7,0.2,2.5,0.6h0.7l0.3,0.7c0.6,0.6,1.2,1.3,1.5,2.1l31.2,83l3.8,9.7H665.1L665.1,212.4z M639.6,115.6
			c-0.5-1.4-1.8-2.3-3.3-2.3h-20.6c-1.4,0-2.7,0.9-3.3,2.2l-38.8,94.9c-0.4,1.1-0.3,2.3,0.3,3.3c0.7,1,1.8,1.6,2.9,1.6h29.7
			c1.5,0,2.8-0.9,3.3-2.3l4.9-13.5h18.7l4.7,13.5c0.5,1.4,1.8,2.4,3.4,2.4h30.3c1.2,0,2.3-0.6,2.9-1.5c0.7-1,0.8-2.2,0.4-3.3
			L639.6,115.6L639.6,115.6z"/>
	</g>
	<g>
		<polygon class="st0" points="624.5,164 621.8,171.6 627.1,171.6 624.5,164 		"/>
	</g>
	<g>
		<path class="st0" d="M743.2,124.7L743.2,124.7l-27.7,48.5v33.9c0,0.1,0,0.2,0,0.3v5h-5.3h-17.5h-5.3v-5.3v-34.4l-26.6-48.5
			c-0.1-0.1-0.1-0.3-0.2-0.4l-3.6-7.5h8.4h20.9h0.8c0.9,0,1.7,0.2,2.5,0.6h0.5l0.2,0.4c0.7,0.5,1.3,1.2,1.6,2l10.3,21.4l11.3-21.6
			c0.4-0.8,1-1.4,1.7-1.9l0.2-0.3h0.3c0.6-0.3,1.3-0.5,2-0.6v-0.1h0.5h20.4h8.5L743.2,124.7L743.2,124.7z M749.9,115.1
			c-0.6-1.1-1.8-1.8-3.1-1.8h-31.3c-1.3,0-2.5,0.7-3.1,1.9l-9.9,19l-9.1-18.9c-0.6-1.2-1.8-2-3.2-2h-32.6c-1.3,0-2.4,0.7-3.1,1.7
			c-0.6,1.1-0.7,2.4-0.1,3.5l30,54.8v38.4c0,2,1.6,3.6,3.6,3.6h26.9c2,0,3.6-1.6,3.6-3.6V174l31.5-55.3
			C750.5,117.6,750.5,116.2,749.9,115.1L749.9,115.1z"/>
	</g>
	<g>
		<path class="st1" d="M70.3,192.9h-2.5v-71.7h6.9c24.6,0,38.8,12.7,38.8,36.8C113.5,183.8,96,192.9,70.3,192.9L70.3,192.9z
			 M77.3,102.2H45.4v109.6h30.5c30.1,0,61.5-14.7,61.5-55.3C137.5,117,105.7,102.2,77.3,102.2L77.3,102.2z"/>
	</g>
	<g>
		<polygon class="st1" points="181.4,170.4 218.8,170.4 218.8,155.7 181.4,155.7 181.4,136.4 218.8,136.4 218.8,121.6 164,121.6 
			164,207.1 218.8,207.1 218.8,192.3 181.4,192.3 181.4,170.4 		"/>
	</g>
	<g>
		<polygon class="st1" points="309.2,178.6 279.8,102.2 246.8,102.2 246.8,211.8 269.2,211.8 269.2,131.5 301.1,211.8 317.1,211.8 
			349.8,131.8 349.8,211.8 372.2,211.8 372.2,102.2 339.8,102.2 309.2,178.6 		"/>
	</g>
	<g>
		<path class="st1" d="M465,164.3c0,16.2-11,28.9-26,28.9c-15.1,0-26.1-12.7-26.1-28.9c0-16.2,11-28.9,26.1-28.9
			C454,135.4,465,148.1,465,164.3L465,164.3z M394.2,164.3c0,24.4,19.4,44.2,44.8,44.2c25.3,0,44.7-19.8,44.7-44.2
			c0-24.4-19.4-44.2-44.7-44.2C413.6,120.1,394.2,139.9,394.2,164.3L394.2,164.3z"/>
	</g>
	<g>
		<polygon class="st1" points="559.1,207.1 559.1,192.3 524.1,192.3 524.1,121.6 506.6,121.6 506.6,197.2 506.6,207.1 559.1,207.1 
					"/>
	</g>
	<g>
		<path class="st1" d="M624.6,148.2h0.1l9.9,28.7h-20.4L624.6,148.2L624.6,148.2z M603.3,207.1l5.7-15.9h30.4l5.5,15.9h20.1
			L633,121.6h-14.2l-34.7,85l0.5,0.5H603.3L603.3,207.1z"/>
	</g>
	<g>
		<polygon class="st1" points="710.2,171.8 738.7,121.6 718.3,121.6 702.2,152.4 702,152.4 687.2,121.6 665.5,121.6 692.7,171.3 
			692.7,207.1 710.2,207.1 710.2,171.8 		"/>
	</g>
	<g>
		<path class="st2" d="M378.2,55.5L388,54l4.4-8.9l4.4,8.9l9.9,1.4l-7.2,7l1.7,9.8l-8.8-4.6l-8.8,4.6l1.7-9.8L378.2,55.5L378.2,55.5
			z M413.6,67V35.9c0,0-16.6,2.7-22.3,2.6c-5.1,0-20.4-2.6-20.4-2.6V67c0,10.9,18.7,19.8,21.3,19.8C394.2,86.8,413.6,78,413.6,67
			L413.6,67z"/>
	</g>
	<g>
		<polygon class="st0" points="430.3,72.2 439.1,67.5 448,72.2 446.3,62.3 453.4,55.4 443.6,53.9 439.1,45 434.7,53.9 424.8,55.4 
			432,62.3 430.3,72.2 		"/>
	</g>
	<g>
		<polygon class="st0" points="477,72.2 485.8,67.5 494.7,72.2 493,62.3 500.1,55.4 490.2,53.9 485.8,45 481.4,53.9 471.5,55.4 
			478.7,62.3 477,72.2 		"/>
	</g>
	<g>
		<polygon class="st0" points="523.7,72.2 532.5,67.5 541.3,72.2 539.6,62.3 546.8,55.4 536.9,53.9 532.5,45 528.1,53.9 518.2,55.4 
			525.3,62.3 523.7,72.2 		"/>
	</g>
	<g>
		<polygon class="st0" points="243.6,72.2 252.4,67.5 261.3,72.2 259.6,62.3 266.7,55.4 256.9,53.9 252.4,45 248,53.9 238.1,55.4 
			245.3,62.3 243.6,72.2 		"/>
	</g>
	<g>
		<polygon class="st0" points="290.3,72.2 299.1,67.5 308,72.2 306.3,62.3 313.4,55.4 303.5,53.9 299.1,45 294.7,53.9 284.8,55.4 
			292,62.3 290.3,72.2 		"/>
	</g>
	<g>
		<polygon class="st0" points="337,72.2 345.8,67.5 354.6,72.2 352.9,62.3 360.1,55.4 350.2,53.9 345.8,45 341.4,53.9 331.5,55.4 
			338.6,62.3 337,72.2 		"/>
	</g>
</g>
<g>
	<path class="st2" d="M207.9,265.1v-33.6h6.9v33.6H207.9z"/>
	<path class="st2" d="M245.5,265.1l-15.4-21v21h-6.9v-33.6h6l15.6,21.1v-21.1h6.9v33.6H245.5z"/>
	<path class="st2" d="M271.5,237.3v27.8h-6.9v-27.8h-8v-5.8h22.8v5.8H271.5z"/>
	<path class="st2" d="M284.6,265.1v-33.6h21.6v5.8h-14.7v7.6h14.7v5.8h-14.7v8.6h14.7v5.8H284.6z"/>
	<path class="st2" d="M324,231.5c5.4,0,12.3,2.8,12.3,10.1c0,5.2-3.6,8.1-7.3,9.4c3,4.2,8,11,10.3,14.2h-8.6l-9.2-13.4h-1.2v13.4
		h-6.9v-33.6H324z M320.2,245.9h2.7c3.5,0,6-1.2,6-4.2c0-2.6-2.1-4.4-5.1-4.4h-3.6V245.9z"/>
	<path class="st2" d="M367,265.1l-15.4-21v21h-6.9v-33.6h6l15.6,21.1v-21.1h6.9v33.6H367z"/>
	<path class="st2" d="M402.7,265.1l-2.2-6.2h-12l-2.3,6.2h-7.6l13.7-33.6h5.6l12.6,33.6H402.7z M390.6,253.2h8l-3.9-11.3h0
		L390.6,253.2z"/>
	<path class="st2" d="M425.5,237.3v27.8h-6.9v-27.8h-8v-5.8h22.8v5.8H425.5z"/>
	<path class="st2" d="M438.5,265.1v-33.6h6.9v33.6H438.5z"/>
	<path class="st2" d="M470,265.6c-10,0-17.6-7.8-17.6-17.4c0-9.6,7.6-17.4,17.6-17.4c9.9,0,17.6,7.8,17.6,17.4
		C487.6,257.9,480,265.6,470,265.6z M470,236.9c-6,0-10.3,5-10.3,11.4c0,6.4,4.3,11.4,10.3,11.4c5.9,0,10.2-5,10.2-11.4
		C480.3,241.9,476,236.9,470,236.9z"/>
	<path class="st2" d="M516.9,265.1l-15.4-21v21h-6.9v-33.6h6l15.6,21.1v-21.1h6.9v33.6H516.9z"/>
	<path class="st2" d="M552.6,265.1l-2.2-6.2h-12l-2.3,6.2h-7.6l13.7-33.6h5.6l12.6,33.6H552.6z M540.5,253.2h8l-3.9-11.3h0
		L540.5,253.2z"/>
	<path class="st2" d="M566,265.1v-33.6h6.9v27.8h13.8v5.8H566z"/>
</g>
</svg>
