<?xml version="1.0" encoding="utf-8"?>
<!-- Generator: Adobe Illustrator 12.0.0, SVG Export Plug-In . SVG Version: 6.00 Build 51448)  -->
<!DOCTYPE svg PUBLIC "-//W3C//DTD SVG 1.1//EN" "http://www.w3.org/Graphics/SVG/1.1/DTD/svg11.dtd" [
	<!ENTITY ns_svg "http://www.w3.org/2000/svg">
	<!ENTITY ns_xlink "http://www.w3.org/1999/xlink">
]>
<svg  version="1.1" xmlns="&ns_svg;" xmlns:xlink="&ns_xlink;" width="114.544" height="417.16" viewBox="0 0 114.544 417.16"
	 overflow="visible" enable-background="new 0 0 114.544 417.16" xml:space="preserve">
<g id="Layer_2">
	<g>
		<line fill="#666666" stroke="#000000" stroke-width="3" x1="1.5" y1="415.656" x2="1.5" y2="415.656"/>
		<line fill="#666666" stroke="#000000" stroke-width="3" x1="113.044" y1="415.646" x2="113.044" y2="415.646"/>
		<path fill="#666666" stroke="#000000" stroke-width="3" d="M1.5,415.656"/>
		<path fill="#666666" stroke="#000000" stroke-width="3" d="M113.044,415.646"/>
		<path fill="#666666" stroke="#000000" stroke-width="3" d="M56.487,395.749c10.978,0,19.729,8.794,19.729,19.772l36.828,0.124
			V80.5L96.419,66.75l0.125-8.25H78.48c7.226-5.891,11.563-14.826,11.563-24.875c0-17.742-15.03-32.125-32.772-32.125
			C39.53,1.5,24.5,15.883,24.5,33.625c0,10.049,4.338,18.984,11.563,24.875H18l0.125,8.25L1.5,80.5v335.156l34.626-0.094
			C36.126,404.584,45.509,395.749,56.487,395.749z"/>
	</g>
	<g>
		<line fill="#B2B2B2" stroke="#000000" stroke-width="3" x1="12.928" y1="398.549" x2="12.928" y2="398.549"/>
		<line fill="#B2B2B2" stroke="#000000" stroke-width="3" x1="102.205" y1="398.551" x2="102.205" y2="398.551"/>
		<path fill="#B2B2B2" stroke="#000000" stroke-width="3" d="M57.115,382.249c12.213,0,23.877,6.504,29.948,16.251l15.142,0.051
			l-0.226-304.467L83.604,75.958v-4.333L57.115,71.75l-26.49-0.125v4.333L12.25,94.083l0.678,304.465l14.238-0.049
			C33.238,388.753,44.902,382.249,57.115,382.249z"/>
		<path fill="#B2B2B2" stroke="#000000" stroke-width="3" d="M102.205,398.551"/>
		<path fill="#B2B2B2" stroke="#000000" stroke-width="3" d="M12.928,398.549"/>
	</g>
	<path fill="#B2B2B2" stroke="#000000" stroke-width="3" d="M56.487,52.9c10.646,0,19.138-8.629,19.138-19.275
		c0-10.645-8.492-19.275-19.138-19.275S37.35,22.98,37.35,33.625C37.35,44.271,45.842,52.9,56.487,52.9z"/>
	<line fill="none" stroke="#000000" stroke-width="5" stroke-linecap="round" x1="56.487" y1="33.625" x2="56.487" y2="406.5"/>
	<path stroke="#000000" stroke-width="2" d="M56.487,38.444c2.661,0,4.784-2.158,4.784-4.819s-2.123-4.819-4.784-4.819
		c-2.662,0-4.785,2.158-4.785,4.819S53.826,38.444,56.487,38.444z"/>
	<path stroke="#000000" stroke-width="3" d="M56.487,414.853c3.991,0,7.177-3.235,7.177-7.228s-3.186-7.228-7.177-7.228
		c-3.992,0-7.177,3.235-7.177,7.228S52.495,414.853,56.487,414.853z"/>
</g>
<g id="Layer_3">
</g>
</svg>
