<?xml version="1.0" encoding="utf-8"?>
<!-- Generator: Adobe Illustrator 12.0.0, SVG Export Plug-In . SVG Version: 6.00 Build 51448)  -->
<!DOCTYPE svg PUBLIC "-//W3C//DTD SVG 1.1//EN" "http://www.w3.org/Graphics/SVG/1.1/DTD/svg11.dtd" [
	<!ENTITY ns_svg "http://www.w3.org/2000/svg">
	<!ENTITY ns_xlink "http://www.w3.org/1999/xlink">
]>
<svg  version="1.1" xmlns="&ns_svg;" xmlns:xlink="&ns_xlink;" width="588.478" height="540.366" viewBox="0 0 588.478 540.366"
	 overflow="visible" enable-background="new 0 0 588.478 540.366" xml:space="preserve">
<g id="Layer_2">
</g>
<g id="Layer_3">
	<path fill="#9D9FA1" stroke="#000000" stroke-width="3" d="M179.449,538.695c-20.682,1.677-74.344-8.385-84.406-57.017
		c-10.062-48.631,21.8-184.463,21.8-184.463c8.385-43.601,16.211-82.729,15.652-125.212c-0.559-42.482-9.503-80.493-29.067-110.678
		C83.864,31.141,67.653,16.887,42.22,18.564c-8.875,0.585-16.763,4.846-23.177,11.202l-0.3,0.537
		C44.456-6.59,141.438,10.458,176.654,13.253s116.267,3.913,147.57,3.354c31.304-0.559,57.576-15.651,77.698-15.092
		c20.124,0.559,68.755,49.19,87.202,99.498c18.445,50.308,15.092,115.709,1.118,189.494
		c-13.976,73.785-16.583,76.768-13.604,119.622c2.98,42.854,42.67,30.557,42.67,30.557l-9.131,37.452l-265.701,51.8l-49.004,7.452
		L179.449,538.695z"/>
	<g>
		<path d="M144.923,73.47h16.521v16.311h-16.521V73.47z M147.648,76.68v9.813h9.944V76.68H147.648z M152.457,79.759
			c1.048,0.044,1.646,0.629,1.795,1.756c-0.096,0.943-0.646,1.428-1.651,1.454c-1.048-0.07-1.62-0.528-1.716-1.375
			C150.832,80.554,151.356,79.942,152.457,79.759z"/>
		<path d="M175.161,73.484v13.074h12.826v3.275H172.03V73.497L175.161,73.484z M179.248,80.244c0.935-0.009,1.472,0.55,1.612,1.677
			c-0.087,0.943-0.659,1.432-1.716,1.467c-0.943-0.088-1.463-0.555-1.559-1.402C177.541,80.947,178.095,80.366,179.248,80.244z"/>
		<path d="M215.093,86.48v3.301h-16.507v-16.56h16.416v3.288h-13.219v9.97H215.093z"/>
		<path d="M225.43,73.169h3.17l5.162,10.899l5.109-10.769h3.052l-8.188,17.372l-8.188-17.346L225.43,73.169z"/>
		<path d="M268.676,86.572v3.262h-16.35v-16.35h16.258v3.249h-13.062v9.839H268.676z M258.261,81.829
			c0.087,0.847,0.655,1.389,1.703,1.625c0.995-0.184,1.542-0.747,1.637-1.69c-0.148-1.136-0.742-1.725-1.781-1.769
			C258.729,80.178,258.208,80.79,258.261,81.829z"/>
		<path d="M295.586,86.48v3.301h-16.507v-16.56h16.415v3.288h-13.219v9.97H295.586z"/>
		<path d="M305.595,74.178l17.176,8.214l-17.228,8.188v-3.039l10.689-5.123l-10.689-5.148v-3.092H305.595z"/>
		<path d="M336.016,86.48h13.114v3.354h-16.272V73.392l3.158-0.014V86.48z"/>
		<path d="M376.08,86.48v3.301h-16.509v-16.56h16.416v3.288h-13.219v9.97H376.08z"/>
		<path d="M386.403,73.47h16.52v16.311h-16.52V73.47z M389.127,76.68v9.813h9.944V76.68H389.127z M393.936,79.759
			c1.048,0.044,1.646,0.629,1.795,1.756c-0.097,0.943-0.646,1.428-1.651,1.454c-1.048-0.07-1.62-0.528-1.716-1.375
			C392.312,80.554,392.835,79.942,393.936,79.759z"/>
		<path d="M429.742,86.48v3.301h-16.509v-16.56h16.416v3.288H416.43v9.97H429.742z"/>
		<path d="M440.065,73.47h16.52v16.311h-16.52V73.47z M442.79,76.68v9.813h9.944V76.68H442.79z M447.597,79.759
			c1.049,0.044,1.647,0.629,1.796,1.756c-0.097,0.943-0.647,1.428-1.651,1.454c-1.048-0.07-1.62-0.528-1.716-1.375
			C445.974,80.554,446.498,79.942,447.597,79.759z"/>
		<path d="M148.487,118.847l9.774,0.026v-13.166h3.249v16.337l-16.246-0.013v-16.403h3.223V118.847z M153.413,112.021
			c1.031,0.043,1.616,0.642,1.755,1.795c-0.096,0.943-0.672,1.41-1.729,1.402c-0.952-0.035-1.476-0.48-1.572-1.336
			C151.814,112.834,152.33,112.213,153.413,112.021z"/>
		<path d="M171.768,105.366h3.17l5.162,10.9l5.109-10.769h3.052l-8.188,17.372l-8.188-17.346L171.768,105.366z"/>
		<path d="M198.585,105.667h16.521v16.311h-16.521V105.667z M201.311,108.877v9.813h9.944v-9.813H201.311z M206.119,111.956
			c1.048,0.043,1.646,0.628,1.795,1.756c-0.096,0.943-0.646,1.428-1.651,1.454c-1.048-0.07-1.62-0.528-1.716-1.375
			C204.494,112.751,205.018,112.14,206.119,111.956z"/>
		<path d="M241.924,118.677v3.301h-16.507v-16.56h16.416v3.289h-13.219v9.97H241.924z"/>
		<path d="M268.676,118.769v3.262h-16.35v-16.35h16.258v3.249h-13.062v9.839H268.676z M258.261,114.026
			c0.087,0.847,0.655,1.389,1.703,1.625c0.995-0.184,1.542-0.747,1.637-1.69c-0.148-1.135-0.742-1.725-1.781-1.769
			C258.729,112.375,258.208,112.987,258.261,114.026z"/>
		<path d="M295.586,118.677v3.301h-16.507v-16.56h16.415v3.289h-13.219v9.97H295.586z"/>
		<path d="M305.909,105.667h16.521v16.311h-16.521V105.667z M308.635,108.877v9.813h9.943v-9.813H308.635z M313.443,111.956
			c1.048,0.043,1.646,0.628,1.795,1.756c-0.096,0.943-0.646,1.428-1.651,1.454c-1.048-0.07-1.62-0.528-1.716-1.375
			C311.819,112.751,312.341,112.14,313.443,111.956z"/>
		<path d="M332.753,105.366h3.171l5.161,10.9l5.109-10.769h3.054l-8.188,17.372l-8.188-17.346L332.753,105.366z"/>
		<path d="M376.08,118.677v3.301h-16.509v-16.56h16.416v3.289h-13.219v9.97H376.08z"/>
		<path d="M389.966,118.847l9.773,0.026v-13.166h3.249v16.337l-16.245-0.013v-16.403h3.223V118.847z M394.892,112.021
			c1.031,0.043,1.615,0.642,1.756,1.795c-0.097,0.943-0.673,1.41-1.729,1.402c-0.952-0.035-1.477-0.48-1.572-1.336
			C393.294,112.834,393.809,112.213,394.892,112.021z"/>
		<path d="M416.64,105.681v13.075h12.825v3.275h-15.956v-16.337L416.64,105.681z M420.727,112.44
			c0.935-0.009,1.472,0.55,1.611,1.677c-0.087,0.943-0.659,1.433-1.716,1.467c-0.943-0.087-1.462-0.555-1.559-1.402
			C419.02,113.144,419.575,112.563,420.727,112.44z"/>
		<path d="M443.471,105.681v13.075h12.825v3.275H440.34v-16.337L443.471,105.681z M447.558,112.44
			c0.935-0.009,1.472,0.55,1.611,1.677c-0.087,0.943-0.659,1.433-1.716,1.467c-0.943-0.087-1.462-0.555-1.559-1.402
			C445.851,113.144,446.406,112.563,447.558,112.44z"/>
		<path d="M161.693,138.153l-0.052,3.197l-10.533,5.306l10.585,5.293v3.131l-17.018-8.45l16.939-8.477H161.693z"/>
		<path d="M175.03,150.875h13.114v3.354h-16.271v-16.441l3.157-0.014V150.875z"/>
		<path d="M201.717,153.914h-3.236l-0.04-16.245h16.809v3.223h-13.533V153.914z M207.625,144.206
			c-1.057,0.044-1.66,0.629-1.808,1.756c0.096,0.935,0.65,1.498,1.664,1.69c1.057-0.236,1.633-0.777,1.729-1.625
			C209.254,144.997,208.726,144.389,207.625,144.206z"/>
		<path d="M228.823,137.878v13.074h12.826v3.275h-15.957v-16.337L228.823,137.878z M232.91,144.638
			c0.935-0.009,1.472,0.55,1.612,1.677c-0.088,0.943-0.66,1.433-1.716,1.468c-0.943-0.087-1.463-0.555-1.559-1.402
			C231.203,145.341,231.757,144.761,232.91,144.638z"/>
		<path d="M252.248,137.865h16.521v16.311h-16.521V137.865z M254.973,141.075v9.813h9.944v-9.813H254.973z M259.781,144.153
			c1.048,0.044,1.646,0.629,1.795,1.755c-0.096,0.944-0.646,1.428-1.651,1.455c-1.048-0.07-1.62-0.528-1.716-1.375
			C258.156,144.948,258.68,144.337,259.781,144.153z"/>
		<path d="M279.091,137.563h3.171l5.161,10.9l5.109-10.769h3.054l-8.188,17.372l-8.188-17.346L279.091,137.563z"/>
		<path d="M309.473,151.044l9.773,0.026v-13.167h3.249v16.337l-16.245-0.013v-16.402h3.223V151.044z M314.399,144.219
			c1.031,0.043,1.615,0.642,1.756,1.795c-0.097,0.943-0.673,1.411-1.729,1.401c-0.953-0.035-1.478-0.48-1.572-1.336
			C312.801,145.031,313.316,144.412,314.399,144.219z"/>
		<path d="M349.249,150.875v3.301h-16.507v-16.56h16.414v3.288h-13.219v9.97H349.249z"/>
		<path d="M372.87,141.18h-13.285v-3.249h16.495l-0.04,16.35h-3.17V141.18z"/>
		<path d="M386.258,138.258l16.861,8.411l-16.913,8.411v-3.118l10.48-5.267l-10.48-5.358v-3.078H386.258z M388.696,144.966
			c0.864,0.104,1.419,0.69,1.663,1.755c-0.191,1.031-0.803,1.56-1.834,1.585c-1.117-0.079-1.698-0.651-1.742-1.716
			C386.974,145.464,387.613,144.922,388.696,144.966z"/>
		<path d="M413.233,137.865h16.521v16.311h-16.521V137.865z M415.958,141.075v9.813h9.944v-9.813H415.958z M420.767,144.153
			c1.048,0.044,1.646,0.629,1.795,1.755c-0.097,0.944-0.646,1.428-1.651,1.455c-1.048-0.07-1.62-0.528-1.716-1.375
			C419.143,144.948,419.666,144.337,420.767,144.153z"/>
		<path d="M456.834,138.153l-0.053,3.197l-10.533,5.306l10.586,5.293v3.131l-17.019-8.45l16.94-8.477H456.834z"/>
		<path d="M148.199,183.071h13.114v3.354h-16.271v-16.442l3.157-0.013V183.071z"/>
		<path d="M174.886,186.111h-3.236l-0.04-16.245h16.809v3.223h-13.534V186.111z M180.794,176.403
			c-1.057,0.043-1.66,0.629-1.808,1.756c0.096,0.935,0.65,1.498,1.664,1.689c1.057-0.236,1.633-0.777,1.729-1.625
			C182.423,177.193,181.895,176.586,180.794,176.403z"/>
		<path d="M198.638,170.167h16.416v16.206h-16.416V170.167z M201.729,173.573v9.76h9.892v-9.76H201.729z"/>
		<path d="M225.417,170.062h16.521v16.311h-16.521V170.062z M228.142,173.271v9.813h9.944v-9.813H228.142z M232.95,176.351
			c1.048,0.043,1.646,0.628,1.795,1.755c-0.096,0.943-0.646,1.428-1.651,1.454c-1.048-0.07-1.62-0.528-1.716-1.375
			C231.325,177.146,231.849,176.534,232.95,176.351z"/>
		<path d="M255.654,170.075v13.075h12.826v3.275h-15.957v-16.337L255.654,170.075z M259.741,176.835
			c0.935-0.008,1.472,0.55,1.612,1.677c-0.088,0.943-0.66,1.433-1.716,1.467c-0.943-0.087-1.463-0.555-1.559-1.402
			C258.034,177.538,258.588,176.958,259.741,176.835z"/>
		<path d="M282.642,183.242l9.773,0.026v-13.166h3.249v16.337l-16.245-0.013v-16.403h3.223V183.242z M287.568,176.416
			c1.031,0.044,1.615,0.642,1.755,1.795c-0.096,0.943-0.672,1.411-1.729,1.401c-0.953-0.035-1.477-0.48-1.572-1.335
			C285.97,177.229,286.485,176.608,287.568,176.416z"/>
		<path d="M305.922,169.76h3.171l5.162,10.9l5.108-10.769h3.054l-8.188,17.372l-8.188-17.346L305.922,169.76z"/>
		<path d="M332.793,170.167h16.415v16.206h-16.415V170.167z M335.884,173.573v9.76h9.893v-9.76H335.884z"/>
		<path d="M376.341,170.35l-0.053,3.197l-10.533,5.306l10.586,5.292v3.131l-17.019-8.45l16.939-8.477H376.341z"/>
		<path d="M386.403,170.062h16.52v16.311h-16.52V170.062z M389.127,173.271v9.813h9.944v-9.813H389.127z M393.936,176.351
			c1.048,0.043,1.646,0.628,1.795,1.755c-0.097,0.943-0.646,1.428-1.651,1.454c-1.048-0.07-1.62-0.528-1.716-1.375
			C392.312,177.146,392.835,176.534,393.936,176.351z"/>
		<path d="M416.509,183.071h13.114v3.354h-16.272v-16.442l3.158-0.013V183.071z"/>
		<path d="M443.628,183.242l9.772,0.026v-13.166h3.25v16.337l-16.245-0.013v-16.403h3.223V183.242z M448.554,176.416
			c1.031,0.044,1.615,0.642,1.756,1.795c-0.097,0.943-0.673,1.411-1.729,1.401c-0.952-0.035-1.477-0.48-1.572-1.335
			C446.957,177.229,447.471,176.608,448.554,176.416z"/>
		<path d="M148.487,215.439l9.774,0.026v-13.167h3.249v16.337l-16.246-0.014V202.22h3.223V215.439z M153.413,208.614
			c1.031,0.043,1.616,0.642,1.755,1.795c-0.096,0.943-0.672,1.411-1.729,1.402c-0.952-0.036-1.476-0.48-1.572-1.336
			C151.814,209.426,152.33,208.806,153.413,208.614z"/>
		<path d="M171.768,201.958h3.17l5.162,10.9l5.109-10.769h3.052l-8.188,17.372l-8.188-17.346L171.768,201.958z"/>
		<path d="M201.992,202.273v13.074h12.826v3.275h-15.957v-16.337L201.992,202.273z M206.079,209.033
			c0.935-0.009,1.472,0.55,1.612,1.677c-0.088,0.943-0.66,1.432-1.716,1.467c-0.943-0.087-1.463-0.555-1.559-1.402
			C204.372,209.736,204.926,209.155,206.079,209.033z"/>
		<path d="M225.417,202.259h16.521v16.311h-16.521V202.259z M228.142,205.469v9.813h9.944v-9.813H228.142z M232.95,208.548
			c1.048,0.044,1.646,0.629,1.795,1.756c-0.096,0.943-0.646,1.428-1.651,1.454c-1.048-0.07-1.62-0.528-1.716-1.375
			C231.325,209.343,231.849,208.731,232.95,208.548z"/>
		<path d="M255.523,215.269h13.114v3.354h-16.271v-16.441l3.157-0.014V215.269z"/>
		<path d="M295.586,215.269v3.301h-16.507v-16.56h16.415v3.288h-13.219v9.97H295.586z"/>
		<path d="M305.909,202.259h16.521v16.311h-16.521V202.259z M308.635,205.469v9.813h9.943v-9.813H308.635z M313.443,208.548
			c1.048,0.044,1.646,0.629,1.795,1.756c-0.096,0.943-0.646,1.428-1.651,1.454c-1.048-0.07-1.62-0.528-1.716-1.375
			C311.819,209.343,312.341,208.731,313.443,208.548z"/>
		<path d="M336.016,215.269h13.114v3.354h-16.272v-16.441l3.158-0.014V215.269z"/>
		<path d="M376.08,215.269v3.301h-16.509v-16.56h16.416v3.288h-13.219v9.97H376.08z"/>
		<path d="M389.678,215.269h13.114v3.354H386.52v-16.441l3.158-0.014V215.269z"/>
		<path d="M413.233,202.259h16.521v16.311h-16.521V202.259z M415.958,205.469v9.813h9.944v-9.813H415.958z M420.767,208.548
			c1.048,0.044,1.646,0.629,1.795,1.756c-0.097,0.943-0.646,1.428-1.651,1.454c-1.048-0.07-1.62-0.528-1.716-1.375
			C419.143,209.343,419.666,208.731,420.767,208.548z"/>
		<path d="M443.471,202.273v13.074h12.825v3.275H440.34v-16.337L443.471,202.273z M447.558,209.033
			c0.935-0.009,1.472,0.55,1.611,1.677c-0.087,0.943-0.659,1.432-1.716,1.467c-0.943-0.087-1.462-0.555-1.559-1.402
			C445.851,209.736,446.406,209.155,447.558,209.033z"/>
		<path d="M148.33,234.47v13.075h12.826v3.275h-15.957v-16.337L148.33,234.47z M152.417,241.229c0.935-0.008,1.472,0.55,1.612,1.678
			c-0.087,0.943-0.659,1.432-1.716,1.467c-0.943-0.087-1.463-0.555-1.559-1.402C150.71,241.933,151.264,241.352,152.417,241.229z"/>
		<path d="M171.768,234.156h3.17l5.162,10.899l5.109-10.769h3.052l-8.188,17.372l-8.188-17.346L171.768,234.156z"/>
		<path d="M201.992,234.47v13.075h12.826v3.275h-15.957v-16.337L201.992,234.47z M206.079,241.229
			c0.935-0.008,1.472,0.55,1.612,1.678c-0.088,0.943-0.66,1.432-1.716,1.467c-0.943-0.087-1.463-0.555-1.559-1.402
			C204.372,241.933,204.926,241.352,206.079,241.229z"/>
		<path d="M228.692,247.466h13.114v3.354h-16.271v-16.442l3.157-0.013V247.466z"/>
		<path d="M269.017,234.745l-0.053,3.197l-10.533,5.306l10.585,5.292v3.131l-17.018-8.45l16.939-8.477H269.017z"/>
		<path d="M278.935,234.85l16.861,8.41l-16.913,8.411v-3.118l10.48-5.267l-10.48-5.358v-3.078H278.935z M281.372,241.557
			c0.864,0.105,1.419,0.69,1.664,1.755c-0.192,1.031-0.803,1.56-1.834,1.586c-1.118-0.079-1.698-0.651-1.743-1.716
			C279.65,242.055,280.289,241.514,281.372,241.557z"/>
		<path d="M305.765,234.85l16.861,8.41l-16.913,8.411v-3.118l10.48-5.267l-10.48-5.358v-3.078H305.765z M308.203,241.557
			c0.864,0.105,1.419,0.69,1.663,1.755c-0.191,1.031-0.803,1.56-1.834,1.586c-1.117-0.079-1.698-0.651-1.742-1.716
			C306.482,242.055,307.12,241.514,308.203,241.557z"/>
		<path d="M345.789,247.532l0.027-9.892h-12.918v-3.275h16.063v16.455h-16.142v-3.288H345.789z"/>
		<path d="M362.978,234.47v13.075h12.825v3.275h-15.956v-16.337L362.978,234.47z M367.065,241.229
			c0.935-0.008,1.472,0.55,1.611,1.678c-0.087,0.943-0.659,1.432-1.716,1.467c-0.943-0.087-1.462-0.555-1.559-1.402
			C365.358,241.933,365.913,241.352,367.065,241.229z"/>
		<path d="M389.534,250.505h-3.236l-0.039-16.245h16.81v3.223h-13.534V250.505z M395.443,240.797
			c-1.058,0.043-1.659,0.629-1.808,1.756c0.095,0.935,0.649,1.498,1.663,1.689c1.057-0.235,1.634-0.777,1.729-1.625
			C397.072,241.588,396.543,240.981,395.443,240.797z"/>
		<path d="M416.509,247.466h13.114v3.354h-16.272v-16.442l3.158-0.013V247.466z"/>
		<path d="M456.834,234.745l-0.053,3.197l-10.533,5.306l10.586,5.292v3.131l-17.019-8.45l16.94-8.477H456.834z"/>
		<path d="M161.693,266.942l-0.052,3.196l-10.533,5.307l10.585,5.292v3.132l-17.018-8.45l16.939-8.477H161.693z"/>
		<path d="M175.03,279.664h13.114v3.354h-16.271v-16.441l3.157-0.014V279.664z"/>
		<path d="M201.992,266.667v13.074h12.826v3.275h-15.957v-16.338L201.992,266.667z M206.079,273.427
			c0.935-0.01,1.472,0.55,1.612,1.676c-0.088,0.944-0.66,1.434-1.716,1.469c-0.943-0.088-1.463-0.555-1.559-1.402
			C204.372,274.13,204.926,273.549,206.079,273.427z"/>
		<path d="M225.272,267.046l16.861,8.411l-16.913,8.411v-3.119l10.48-5.266l-10.48-5.358v-3.079H225.272z M227.709,273.754
			c0.864,0.104,1.419,0.69,1.664,1.755c-0.192,1.031-0.803,1.561-1.834,1.586c-1.118-0.079-1.699-0.65-1.743-1.717
			C225.989,274.252,226.626,273.71,227.709,273.754z"/>
		<path d="M255.379,282.703h-3.236l-0.04-16.246h16.809v3.224h-13.533V282.703z M261.288,272.995
			c-1.057,0.044-1.66,0.629-1.809,1.756c0.097,0.935,0.651,1.497,1.664,1.689c1.057-0.235,1.633-0.776,1.729-1.624
			C262.917,273.785,262.388,273.178,261.288,272.995z"/>
		<path d="M292.127,279.728l0.027-9.891h-12.918v-3.275h16.063v16.455h-16.141v-3.289H292.127z"/>
		<path d="M323.492,274.724l-18.656,9.209v-18.93L323.492,274.724z M307.796,270.152h-0.065v9.157l8.751-4.521L307.796,270.152z"/>
		<path d="M345.789,279.728l0.027-9.891h-12.918v-3.275h16.063v16.455h-16.142v-3.289H345.789z"/>
		<path d="M362.847,279.664h13.114v3.354h-16.272v-16.441l3.158-0.014V279.664z"/>
		<path d="M399.701,266.667l3.21,0.012v16.338h-16.495v-3.341h13.285V266.667z M394.459,273.099c1.04,0.044,1.63,0.633,1.77,1.77
			c-0.097,0.942-0.664,1.458-1.704,1.545c-0.986-0.139-1.523-0.633-1.611-1.48C392.862,273.894,393.377,273.283,394.459,273.099z"/>
		<path d="M416.365,282.703h-3.236l-0.039-16.246h16.809v3.224h-13.533V282.703z M422.274,272.995
			c-1.058,0.044-1.66,0.629-1.808,1.756c0.095,0.935,0.649,1.497,1.663,1.689c1.057-0.235,1.633-0.776,1.729-1.624
			C423.903,273.785,423.375,273.178,422.274,272.995z"/>
		<path d="M443.34,279.664h13.114v3.354h-16.272v-16.441l3.158-0.014V279.664z"/>
		<path d="M148.199,311.86h13.114v3.354h-16.271v-16.441l3.157-0.013V311.86z"/>
		<path d="M188.524,299.139l-0.052,3.196l-10.533,5.307l10.585,5.293v3.13l-17.018-8.45l16.939-8.476H188.524z"/>
		<path d="M201.992,298.864v13.075h12.826v3.274h-15.957v-16.337L201.992,298.864z M206.079,305.625
			c0.935-0.01,1.472,0.55,1.612,1.677c-0.088,0.942-0.66,1.432-1.716,1.467c-0.943-0.088-1.463-0.554-1.559-1.401
			C204.372,306.327,204.926,305.747,206.079,305.625z"/>
		<path d="M228.692,311.86h13.114v3.354h-16.271v-16.441l3.157-0.013V311.86z"/>
		<path d="M255.523,311.86h13.114v3.354h-16.271v-16.441l3.157-0.013V311.86z"/>
		<path d="M282.485,298.864v13.075h12.825v3.274h-15.956v-16.337L282.485,298.864z M286.572,305.625
			c0.934-0.01,1.472,0.55,1.611,1.677c-0.087,0.942-0.66,1.432-1.716,1.467c-0.944-0.088-1.462-0.554-1.559-1.401
			C284.865,306.327,285.419,305.747,286.572,305.625z"/>
		<path d="M309.041,314.9h-3.236l-0.039-16.246h16.81v3.223h-13.534V314.9z M314.95,305.192c-1.058,0.044-1.66,0.628-1.808,1.755
			c0.095,0.935,0.65,1.498,1.663,1.69c1.057-0.235,1.633-0.777,1.729-1.624C316.579,305.982,316.05,305.375,314.95,305.192z"/>
		<path d="M332.753,298.549h3.171l5.161,10.9l5.109-10.77h3.054l-8.188,17.372l-8.188-17.346L332.753,298.549z"/>
		<path d="M363.135,312.03l9.773,0.027V298.89h3.249v16.337l-16.245-0.014v-16.402h3.223V312.03z M368.061,305.205
			c1.031,0.043,1.615,0.643,1.756,1.795c-0.097,0.943-0.673,1.41-1.729,1.402c-0.952-0.035-1.477-0.481-1.572-1.337
			C366.463,306.017,366.978,305.397,368.061,305.205z"/>
		<path d="M389.809,298.864v13.075h12.825v3.274h-15.956v-16.337L389.809,298.864z M393.896,305.625
			c0.935-0.01,1.472,0.55,1.611,1.677c-0.087,0.942-0.659,1.432-1.716,1.467c-0.943-0.088-1.462-0.554-1.559-1.401
			C392.189,306.327,392.744,305.747,393.896,305.625z"/>
		<path d="M413.089,299.244l16.861,8.411l-16.913,8.41v-3.118l10.48-5.267l-10.48-5.357v-3.079H413.089z M415.527,305.952
			c0.864,0.104,1.419,0.69,1.663,1.756c-0.191,1.03-0.803,1.559-1.834,1.584c-1.117-0.077-1.698-0.649-1.742-1.716
			C413.805,306.449,414.444,305.908,415.527,305.952z"/>
		<path d="M443.34,311.86h13.114v3.354h-16.272v-16.441l3.158-0.013V311.86z"/>
		<path d="M148.199,344.058h13.114v3.354h-16.271V330.97l3.157-0.014V344.058z"/>
		<path d="M174.886,347.098h-3.236l-0.04-16.246h16.809v3.223h-13.534V347.098z M180.794,337.389
			c-1.057,0.044-1.66,0.629-1.808,1.756c0.096,0.935,0.65,1.498,1.664,1.69c1.057-0.235,1.633-0.777,1.729-1.624
			C182.423,338.18,181.895,337.573,180.794,337.389z"/>
		<path d="M201.861,344.058h13.114v3.354h-16.271V330.97l3.157-0.014V344.058z"/>
		<path d="M228.823,331.061v13.076h12.826v3.274h-15.957v-16.337L228.823,331.061z M232.91,337.823
			c0.935-0.01,1.472,0.549,1.612,1.677c-0.088,0.942-0.66,1.432-1.716,1.466c-0.943-0.087-1.463-0.554-1.559-1.4
			C231.203,338.525,231.757,337.945,232.91,337.823z"/>
		<path d="M269.017,331.337l-0.053,3.195l-10.533,5.307l10.585,5.294v3.131l-17.018-8.451l16.939-8.476H269.017z"/>
		<path d="M282.354,344.058h13.114v3.354h-16.272V330.97l3.158-0.014V344.058z"/>
		<path d="M305.765,331.442l16.861,8.411l-16.913,8.411v-3.119l10.48-5.267l-10.48-5.357v-3.079H305.765z M308.203,338.15
			c0.864,0.104,1.419,0.689,1.663,1.756c-0.191,1.03-0.803,1.559-1.834,1.584c-1.117-0.078-1.698-0.65-1.742-1.716
			C306.482,338.647,307.12,338.105,308.203,338.15z"/>
		<path d="M345.789,344.124l0.027-9.891h-12.918v-3.276h16.063v16.455h-16.142v-3.288H345.789z"/>
		<path d="M372.87,331.061l3.21,0.014v16.337h-16.495v-3.34h13.285V331.061z M367.628,337.494c1.04,0.045,1.63,0.634,1.77,1.77
			c-0.097,0.943-0.664,1.459-1.704,1.546c-0.986-0.14-1.523-0.633-1.611-1.48C366.031,338.289,366.545,337.677,367.628,337.494z"/>
		<path d="M389.678,344.058h13.114v3.354H386.52V330.97l3.158-0.014V344.058z"/>
		<path d="M416.365,347.098h-3.236l-0.039-16.246h16.809v3.223h-13.533V347.098z M422.274,337.389
			c-1.058,0.044-1.66,0.629-1.808,1.756c0.095,0.935,0.649,1.498,1.663,1.69c1.057-0.235,1.633-0.777,1.729-1.624
			C423.903,338.18,423.375,337.573,422.274,337.389z"/>
		<path d="M453.206,330.748h3.145l0.039,16.612h-16.142l0.027-3.485h12.931V330.748z"/>
		<path d="M148.055,379.295h-3.236l-0.04-16.246h16.809v3.223h-13.534V379.295z M153.963,369.586
			c-1.057,0.044-1.66,0.629-1.808,1.756c0.096,0.935,0.65,1.497,1.664,1.69c1.057-0.236,1.633-0.777,1.729-1.625
			C155.592,370.377,155.064,369.77,153.963,369.586z"/>
		<path d="M171.768,362.945h3.17l5.162,10.9l5.109-10.771h3.052l-8.188,17.373l-8.188-17.347L171.768,362.945z"/>
		<path d="M201.861,376.255h13.114v3.354h-16.271v-16.441l3.157-0.014V376.255z"/>
		<path d="M238.465,376.321l0.026-9.892h-12.917v-3.275h16.062v16.455h-16.141v-3.288H238.465z"/>
		<path d="M255.654,363.258v13.076h12.826v3.274h-15.957v-16.337L255.654,363.258z M259.741,370.019
			c0.935-0.009,1.472,0.55,1.612,1.677c-0.088,0.943-0.66,1.433-1.716,1.467c-0.943-0.087-1.463-0.554-1.559-1.4
			C258.034,370.722,258.588,370.141,259.741,370.019z"/>
		<path d="M295.848,363.535l-0.053,3.195l-10.533,5.307l10.585,5.293v3.132l-17.018-8.451l16.94-8.476H295.848z"/>
		<path d="M305.922,362.945h3.171l5.162,10.9l5.108-10.771h3.054l-8.188,17.373l-8.188-17.347L305.922,362.945z"/>
		<path d="M332.596,363.639l16.861,8.411l-16.913,8.411v-3.119l10.48-5.267l-10.48-5.357v-3.079H332.596z M335.034,370.346
			c0.864,0.104,1.419,0.69,1.663,1.756c-0.191,1.031-0.803,1.56-1.834,1.585c-1.117-0.078-1.698-0.65-1.742-1.716
			C333.312,370.844,333.951,370.302,335.034,370.346z"/>
		<path d="M372.62,376.321l0.027-9.892h-12.918v-3.275h16.063v16.455H359.65v-3.288H372.62z"/>
		<path d="M389.534,379.295h-3.236l-0.039-16.246h16.81v3.223h-13.534V379.295z M395.443,369.586
			c-1.058,0.044-1.659,0.629-1.808,1.756c0.095,0.935,0.649,1.497,1.663,1.69c1.057-0.236,1.634-0.777,1.729-1.625
			C397.072,370.377,396.543,369.77,395.443,369.586z"/>
		<path d="M430.003,363.535l-0.053,3.195l-10.533,5.307l10.586,5.293v3.132l-17.019-8.451l16.939-8.476H430.003z"/>
		<path d="M443.34,376.255h13.114v3.354h-16.272v-16.441l3.158-0.014V376.255z"/>
		<path d="M157.972,408.518l0.026-9.892h-12.917v-3.275h16.062v16.455h-16.141v-3.288H157.972z M152.457,401.902
			c1.022,0.044,1.607,0.638,1.755,1.781c-0.096,0.943-0.667,1.433-1.716,1.468c-0.961-0.079-1.489-0.546-1.585-1.402
			C150.858,402.701,151.374,402.085,152.457,401.902z"/>
		<path d="M175.161,395.456v13.075h12.826v3.275H172.03v-16.337L175.161,395.456z M179.248,402.216
			c0.935-0.009,1.472,0.55,1.612,1.677c-0.087,0.942-0.659,1.432-1.716,1.467c-0.943-0.087-1.463-0.554-1.559-1.401
			C177.541,402.918,178.095,402.338,179.248,402.216z"/>
		<path d="M215.355,395.731l-0.052,3.196l-10.533,5.307l10.585,5.293v3.13l-17.018-8.449l16.939-8.477H215.355z"/>
		<path d="M228.692,408.452h13.114v3.354h-16.271v-16.442l3.157-0.013V408.452z"/>
		<path d="M255.379,411.492h-3.236l-0.04-16.245h16.809v3.222h-13.533V411.492z M261.288,401.784
			c-1.057,0.044-1.66,0.629-1.809,1.756c0.097,0.935,0.651,1.497,1.664,1.69c1.057-0.236,1.633-0.777,1.729-1.625
			C262.917,402.575,262.388,401.967,261.288,401.784z"/>
		<path d="M295.848,395.731l-0.053,3.196l-10.533,5.307l10.585,5.293v3.13l-17.018-8.449l16.94-8.477H295.848z"/>
		<path d="M309.185,408.452h13.114v3.354h-16.272v-16.442l3.158-0.013V408.452z"/>
		<path d="M335.872,411.492h-3.236l-0.039-16.245h16.81v3.222h-13.534V411.492z M341.781,401.784
			c-1.058,0.044-1.659,0.629-1.808,1.756c0.095,0.935,0.649,1.497,1.663,1.69c1.057-0.236,1.634-0.777,1.729-1.625
			C343.41,402.575,342.881,401.967,341.781,401.784z"/>
		<path d="M372.87,395.456l3.21,0.014v16.337h-16.495v-3.341h13.285V395.456z M367.628,401.888c1.04,0.044,1.63,0.634,1.77,1.77
			c-0.097,0.943-0.664,1.458-1.704,1.545c-0.986-0.14-1.523-0.633-1.611-1.479C366.031,402.683,366.545,402.072,367.628,401.888z"/>
		<path d="M399.451,408.518l0.027-9.892H386.56v-3.275h16.063v16.455h-16.142v-3.288H399.451z"/>
		<path d="M416.365,411.492h-3.236l-0.039-16.245h16.809v3.222h-13.533V411.492z M422.274,401.784
			c-1.058,0.044-1.66,0.629-1.808,1.756c0.095,0.935,0.649,1.497,1.663,1.69c1.057-0.236,1.633-0.777,1.729-1.625
			C423.903,402.575,423.375,401.967,422.274,401.784z"/>
		<path d="M443.34,408.452h13.114v3.354h-16.272v-16.442l3.158-0.013V408.452z"/>
		<path d="M346.039,427.653l3.21,0.013v16.337h-16.495v-3.34h13.285V427.653z M340.797,434.085c1.04,0.044,1.63,0.634,1.77,1.769
			c-0.097,0.944-0.664,1.459-1.704,1.546c-0.986-0.14-1.523-0.633-1.611-1.479C339.2,434.88,339.715,434.269,340.797,434.085z"/>
		<path d="M376.341,427.928l-0.053,3.196l-10.533,5.307l10.586,5.292v3.131l-17.019-8.45l16.939-8.476H376.341z"/>
		<path d="M403.984,435.709l-18.655,9.21v-18.931L403.984,435.709z M388.29,431.137h-0.065v9.158l8.751-4.521L388.29,431.137z"/>
		<path d="M416.509,440.649h13.114v3.354h-16.272v-16.441l3.158-0.013V440.649z"/>
		<path d="M443.196,443.689h-3.236l-0.039-16.246h16.809v3.223h-13.533V443.689z M449.105,433.981
			c-1.058,0.044-1.659,0.628-1.809,1.756c0.096,0.934,0.65,1.497,1.664,1.689c1.057-0.235,1.634-0.777,1.729-1.624
			C450.734,434.771,450.206,434.165,449.105,433.981z"/>
	</g>
	<path id="bottom" fill="#9D9FA1" stroke="#000000" stroke-width="3" d="M177.982,416.836c0,0,190.216,18.819,246.859,30.745
		c56.644,11.925,112.913-15.651,131.919-14.906c19.006,0.744,30.93,31.676,30.185,43.601c-0.744,11.924-8.569,40.617-21.613,44.344
		c-13.043,3.728-114.404-0.744-163.222,1.864c-48.817,2.607-88.319,0.372-127.82,6.708c-39.501,6.336-87.107,10.318-103.505,9.572"
		/>
	<path fill="none" stroke="#000000" stroke-width="3" d="M170.505,452.612c10.062-6.149,23.594,5.618,24.595,17.887
		c1.491,18.26-26.272,34.657-40.806,17.329c-33.117-39.486,1.677-70.991,22.918-70.991s63.165,7.268,58.134,58.135
		c-5.031,50.866-35.215,62.047-55.898,63.724"/>
	<path fill="#BCBEC0" stroke="#000000" stroke-width="3" d="M2.253,83.126c1.677,6.148,9.533,56.839,89.996,32.7
		c27.949-8.384,30.464-12.018,30.464-12.018l-0.538-2.005c-4.593-14.636-10.792-28.204-18.748-40.478
		C83.864,31.141,67.653,16.887,42.22,18.564C16.786,20.241-0.542,52.103,1.694,76.977c2.236,24.875,17.328,40.806,41.364,39.688
		s30.464-20.402,31.303-36.333C75.199,64.4,59.828,52.662,48.368,52.662c-11.458,0-17.607,11.459-17.887,17.608
		c-0.279,6.148,2.795,18.446,22.918,13.975"/>
</g>
<g id="Layer_4">
</g>
</svg>
