<?xml version="1.0" encoding="utf-8"?>
<!-- Generator: Adobe Illustrator 12.0.0, SVG Export Plug-In . SVG Version: 6.00 Build 51448)  -->
<!DOCTYPE svg PUBLIC "-//W3C//DTD SVG 1.1//EN" "http://www.w3.org/Graphics/SVG/1.1/DTD/svg11.dtd" [
	<!ENTITY ns_svg "http://www.w3.org/2000/svg">
	<!ENTITY ns_xlink "http://www.w3.org/1999/xlink">
]>
<svg  version="1.1" xmlns="&ns_svg;" xmlns:xlink="&ns_xlink;" width="629.173" height="588.198" viewBox="0 0 629.173 588.198"
	 overflow="visible" enable-background="new 0 0 629.173 588.198" xml:space="preserve">
<g id="Layer_2">
</g>
<g id="Layer_3">
	<path fill="#9D9FA1" stroke="#000000" stroke-width="3" d="M160.673,543.221c-18.5,1.5-66.5-7.5-75.5-51s19.5-165,19.5-165
		c7.5-39,14.5-74,14-112s-8.5-72-26-99s-32-39.75-54.75-38.25c-7.938,0.523-14.994,4.334-20.731,10.02l-0.269,0.48
		c23-33,109.75-17.75,141.25-15.25s104,3.5,132,3s51.5-14,69.5-13.5s61.5,44,78,89s13.5,103.5,1,169.5s-14.833,68.667-12.167,107
		s38.167,27.333,38.167,27.333l-8.167,33.5L218.84,535.388l-43.833,6.666L160.673,543.221z"/>
	<g>
		<path d="M129.791,127.084h14.777v14.59h-14.777V127.084z M132.228,129.955v8.777h8.895v-8.777H132.228z M136.529,132.709
			c0.938,0.039,1.473,0.563,1.605,1.57c-0.086,0.844-0.578,1.277-1.477,1.301c-0.938-0.063-1.449-0.473-1.535-1.23
			C135.076,133.42,135.544,132.873,136.529,132.709z"/>
		<path d="M156.837,127.096v11.695h11.473v2.93h-14.273v-14.613L156.837,127.096z M160.494,133.143
			c0.836-0.008,1.316,0.492,1.441,1.5c-0.078,0.844-0.59,1.281-1.535,1.313c-0.844-0.078-1.309-0.496-1.395-1.254
			C158.966,133.771,159.462,133.252,160.494,133.143z"/>
		<path d="M192.556,138.721v2.953h-14.766v-14.813h14.684v2.941H180.65v8.918H192.556z"/>
		<path d="M201.802,126.814h2.836l4.617,9.75l4.57-9.633h2.73l-7.324,15.539l-7.324-15.516L201.802,126.814z"/>
		<path d="M240.486,138.803v2.918h-14.625v-14.625h14.543v2.906H228.72v8.801H240.486z M231.169,134.561
			c0.078,0.758,0.586,1.242,1.523,1.453c0.891-0.164,1.379-0.668,1.465-1.512c-0.133-1.016-0.664-1.543-1.594-1.582
			C231.587,133.084,231.123,133.631,231.169,134.561z"/>
		<path d="M264.556,138.721v2.953h-14.766v-14.813h14.684v2.941H252.65v8.918H264.556z"/>
		<path d="M273.509,127.717l15.363,7.348l-15.41,7.324v-2.719l9.563-4.582l-9.563-4.605v-2.766H273.509z"/>
		<path d="M300.72,138.721h11.73v3h-14.555v-14.707l2.824-0.012V138.721z"/>
		<path d="M336.556,138.721v2.953h-14.766v-14.813h14.684v2.941H324.65v8.918H336.556z"/>
		<path d="M345.791,127.084h14.777v14.59h-14.777V127.084z M348.228,129.955v8.777h8.895v-8.777H348.228z M352.529,132.709
			c0.938,0.039,1.473,0.563,1.605,1.57c-0.086,0.844-0.578,1.277-1.477,1.301c-0.938-0.063-1.449-0.473-1.535-1.23
			C351.076,133.42,351.544,132.873,352.529,132.709z"/>
		<path d="M384.556,138.721v2.953h-14.766v-14.813h14.684v2.941H372.65v8.918H384.556z"/>
		<path d="M393.791,127.084h14.777v14.59h-14.777V127.084z M396.228,129.955v8.777h8.895v-8.777H396.228z M400.529,132.709
			c0.938,0.039,1.473,0.563,1.605,1.57c-0.086,0.844-0.578,1.277-1.477,1.301c-0.938-0.063-1.449-0.473-1.535-1.23
			C399.076,133.42,399.544,132.873,400.529,132.709z"/>
		<path d="M132.978,167.673l8.742,0.023v-11.777h2.906v14.613l-14.531-0.012v-14.672h2.883V167.673z M137.384,161.567
			c0.922,0.039,1.445,0.574,1.57,1.605c-0.086,0.844-0.602,1.262-1.547,1.254c-0.852-0.031-1.32-0.43-1.406-1.195
			C135.955,162.294,136.416,161.739,137.384,161.567z"/>
		<path d="M153.802,155.614h2.836l4.617,9.75l4.57-9.633h2.73l-7.324,15.539l-7.324-15.516L153.802,155.614z"/>
		<path d="M177.791,155.884h14.777v14.59h-14.777V155.884z M180.228,158.755v8.777h8.895v-8.777H180.228z M184.529,161.509
			c0.938,0.039,1.473,0.563,1.605,1.57c-0.086,0.844-0.578,1.277-1.477,1.301c-0.938-0.063-1.449-0.473-1.535-1.23
			C183.076,162.22,183.544,161.673,184.529,161.509z"/>
		<path d="M216.556,167.521v2.953h-14.766v-14.813h14.684v2.941H204.65v8.918H216.556z"/>
		<path d="M240.486,167.603v2.918h-14.625v-14.625h14.543v2.906H228.72v8.801H240.486z M231.169,163.36
			c0.078,0.758,0.586,1.242,1.523,1.453c0.891-0.164,1.379-0.668,1.465-1.512c-0.133-1.016-0.664-1.543-1.594-1.582
			C231.587,161.884,231.123,162.431,231.169,163.36z"/>
		<path d="M264.556,167.521v2.953h-14.766v-14.813h14.684v2.941H252.65v8.918H264.556z"/>
		<path d="M273.791,155.884h14.777v14.59h-14.777V155.884z M276.228,158.755v8.777h8.895v-8.777H276.228z M280.529,161.509
			c0.938,0.039,1.473,0.563,1.605,1.57c-0.086,0.844-0.578,1.277-1.477,1.301c-0.938-0.063-1.449-0.473-1.535-1.23
			C279.076,162.22,279.544,161.673,280.529,161.509z"/>
		<path d="M297.802,155.614h2.836l4.617,9.75l4.57-9.633h2.73l-7.324,15.539l-7.324-15.516L297.802,155.614z"/>
		<path d="M336.556,167.521v2.953h-14.766v-14.813h14.684v2.941H324.65v8.918H336.556z"/>
		<path d="M348.978,167.673l8.742,0.023v-11.777h2.906v14.613l-14.531-0.012v-14.672h2.883V167.673z M353.384,161.567
			c0.922,0.039,1.445,0.574,1.57,1.605c-0.086,0.844-0.602,1.262-1.547,1.254c-0.852-0.031-1.32-0.43-1.406-1.195
			C351.955,162.294,352.416,161.739,353.384,161.567z"/>
		<path d="M372.837,155.896v11.695h11.473v2.93h-14.273v-14.613L372.837,155.896z M376.494,161.942
			c0.836-0.008,1.316,0.492,1.441,1.5c-0.078,0.844-0.59,1.281-1.535,1.313c-0.844-0.078-1.309-0.496-1.395-1.254
			C374.966,162.571,375.462,162.052,376.494,161.942z"/>
		<path d="M396.837,155.896v11.695h11.473v2.93h-14.273v-14.613L396.837,155.896z M400.494,161.942
			c0.836-0.008,1.316,0.492,1.441,1.5c-0.078,0.844-0.59,1.281-1.535,1.313c-0.844-0.078-1.309-0.496-1.395-1.254
			C398.966,162.571,399.462,162.052,400.494,161.942z"/>
		<path d="M144.791,184.942l-0.047,2.859l-9.422,4.746l9.469,4.734v2.801l-15.223-7.559l15.152-7.582H144.791z"/>
		<path d="M156.72,196.321h11.73v3h-14.555v-14.707l2.824-0.012V196.321z"/>
		<path d="M180.591,199.04h-2.895l-0.035-14.531h15.035v2.883h-12.105V199.04z M185.876,190.356
			c-0.945,0.039-1.484,0.563-1.617,1.57c0.086,0.836,0.582,1.34,1.488,1.512c0.945-0.211,1.461-0.695,1.547-1.453
			C187.333,191.063,186.861,190.52,185.876,190.356z"/>
		<path d="M204.837,184.696v11.695h11.473v2.93h-14.273v-14.613L204.837,184.696z M208.494,190.743
			c0.836-0.008,1.316,0.492,1.441,1.5c-0.078,0.844-0.59,1.281-1.535,1.313c-0.844-0.078-1.309-0.496-1.395-1.254
			C206.966,191.372,207.462,190.852,208.494,190.743z"/>
		<path d="M225.791,184.684h14.777v14.59h-14.777V184.684z M228.228,187.555v8.777h8.895v-8.777H228.228z M232.529,190.309
			c0.938,0.039,1.473,0.563,1.605,1.57c-0.086,0.844-0.578,1.277-1.477,1.301c-0.938-0.063-1.449-0.473-1.535-1.23
			C231.076,191.02,231.544,190.473,232.529,190.309z"/>
		<path d="M249.802,184.415h2.836l4.617,9.75l4.57-9.633h2.73l-7.324,15.539l-7.324-15.516L249.802,184.415z"/>
		<path d="M276.978,196.473l8.742,0.023v-11.777h2.906v14.613l-14.531-0.012v-14.672h2.883V196.473z M281.384,190.368
			c0.922,0.039,1.445,0.574,1.57,1.605c-0.086,0.844-0.602,1.262-1.547,1.254c-0.852-0.031-1.32-0.43-1.406-1.195
			C279.955,191.094,280.416,190.54,281.384,190.368z"/>
		<path d="M312.556,196.321v2.953h-14.766v-14.813h14.684v2.941H300.65v8.918H312.556z"/>
		<path d="M333.685,187.649h-11.883v-2.906h14.754l-0.035,14.625h-2.836V187.649z"/>
		<path d="M345.662,185.036l15.082,7.523l-15.129,7.523v-2.789l9.375-4.711l-9.375-4.793v-2.754H345.662z M347.841,191.036
			c0.773,0.094,1.27,0.617,1.488,1.57c-0.172,0.922-0.719,1.395-1.641,1.418c-1-0.07-1.52-0.582-1.559-1.535
			C346.302,191.481,346.873,190.997,347.841,191.036z"/>
		<path d="M369.791,184.684h14.777v14.59h-14.777V184.684z M372.228,187.555v8.777h8.895v-8.777H372.228z M376.529,190.309
			c0.938,0.039,1.473,0.563,1.605,1.57c-0.086,0.844-0.578,1.277-1.477,1.301c-0.938-0.063-1.449-0.473-1.535-1.23
			C375.076,191.02,375.544,190.473,376.529,190.309z"/>
		<path d="M408.791,184.942l-0.047,2.859l-9.422,4.746l9.469,4.734v2.801l-15.223-7.559l15.152-7.582H408.791z"/>
		<path d="M132.72,225.121h11.73v3h-14.555v-14.707l2.824-0.012V225.121z"/>
		<path d="M156.591,227.839h-2.895l-0.035-14.531h15.035v2.883h-12.105V227.839z M161.876,219.156
			c-0.945,0.039-1.484,0.563-1.617,1.57c0.086,0.836,0.582,1.34,1.488,1.512c0.945-0.211,1.461-0.695,1.547-1.453
			C163.333,219.863,162.861,219.32,161.876,219.156z"/>
		<path d="M177.837,213.578h14.684v14.496h-14.684V213.578z M180.603,216.625v8.73h8.848v-8.73H180.603z"/>
		<path d="M201.791,213.484h14.777v14.59h-14.777V213.484z M204.228,216.355v8.777h8.895v-8.777H204.228z M208.529,219.109
			c0.938,0.039,1.473,0.563,1.605,1.57c-0.086,0.844-0.578,1.277-1.477,1.301c-0.938-0.063-1.449-0.473-1.535-1.23
			C207.076,219.82,207.544,219.273,208.529,219.109z"/>
		<path d="M228.837,213.496v11.695h11.473v2.93h-14.273v-14.613L228.837,213.496z M232.494,219.542
			c0.836-0.008,1.316,0.492,1.441,1.5c-0.078,0.844-0.59,1.281-1.535,1.313c-0.844-0.078-1.309-0.496-1.395-1.254
			C230.966,220.171,231.462,219.652,232.494,219.542z"/>
		<path d="M252.978,225.273l8.742,0.023v-11.777h2.906v14.613l-14.531-0.012v-14.672h2.883V225.273z M257.384,219.167
			c0.922,0.039,1.445,0.574,1.57,1.605c-0.086,0.844-0.602,1.262-1.547,1.254c-0.852-0.031-1.32-0.43-1.406-1.195
			C255.955,219.894,256.416,219.339,257.384,219.167z"/>
		<path d="M273.802,213.214h2.836l4.617,9.75l4.57-9.633h2.73l-7.324,15.539l-7.324-15.516L273.802,213.214z"/>
		<path d="M297.837,213.578h14.684v14.496h-14.684V213.578z M300.603,216.625v8.73h8.848v-8.73H300.603z"/>
		<path d="M336.791,213.742l-0.047,2.859l-9.422,4.746l9.469,4.734v2.801l-15.223-7.559l15.152-7.582H336.791z"/>
		<path d="M345.791,213.484h14.777v14.59h-14.777V213.484z M348.228,216.355v8.777h8.895v-8.777H348.228z M352.529,219.109
			c0.938,0.039,1.473,0.563,1.605,1.57c-0.086,0.844-0.578,1.277-1.477,1.301c-0.938-0.063-1.449-0.473-1.535-1.23
			C351.076,219.82,351.544,219.273,352.529,219.109z"/>
		<path d="M372.72,225.121h11.73v3h-14.555v-14.707l2.824-0.012V225.121z"/>
		<path d="M396.978,225.273l8.742,0.023v-11.777h2.906v14.613l-14.531-0.012v-14.672h2.883V225.273z M401.384,219.167
			c0.922,0.039,1.445,0.574,1.57,1.605c-0.086,0.844-0.602,1.262-1.547,1.254c-0.852-0.031-1.32-0.43-1.406-1.195
			C399.955,219.894,400.416,219.339,401.384,219.167z"/>
		<path d="M132.978,254.073l8.742,0.023v-11.777h2.906v14.613l-14.531-0.012v-14.672h2.883V254.073z M137.384,247.968
			c0.922,0.039,1.445,0.574,1.57,1.605c-0.086,0.844-0.602,1.262-1.547,1.254c-0.852-0.031-1.32-0.43-1.406-1.195
			C135.955,248.694,136.416,248.14,137.384,247.968z"/>
		<path d="M153.802,242.015h2.836l4.617,9.75l4.57-9.633h2.73l-7.324,15.539l-7.324-15.516L153.802,242.015z"/>
		<path d="M180.837,242.296v11.695h11.473v2.93h-14.273v-14.613L180.837,242.296z M184.494,248.343
			c0.836-0.008,1.316,0.492,1.441,1.5c-0.078,0.844-0.59,1.281-1.535,1.313c-0.844-0.078-1.309-0.496-1.395-1.254
			C182.966,248.972,183.462,248.452,184.494,248.343z"/>
		<path d="M201.791,242.284h14.777v14.59h-14.777V242.284z M204.228,245.155v8.777h8.895v-8.777H204.228z M208.529,247.909
			c0.938,0.039,1.473,0.563,1.605,1.57c-0.086,0.844-0.578,1.277-1.477,1.301c-0.938-0.063-1.449-0.473-1.535-1.23
			C207.076,248.62,207.544,248.073,208.529,247.909z"/>
		<path d="M228.72,253.921h11.73v3h-14.555v-14.707l2.824-0.012V253.921z"/>
		<path d="M264.556,253.921v2.953h-14.766v-14.813h14.684v2.941H252.65v8.918H264.556z"/>
		<path d="M273.791,242.284h14.777v14.59h-14.777V242.284z M276.228,245.155v8.777h8.895v-8.777H276.228z M280.529,247.909
			c0.938,0.039,1.473,0.563,1.605,1.57c-0.086,0.844-0.578,1.277-1.477,1.301c-0.938-0.063-1.449-0.473-1.535-1.23
			C279.076,248.62,279.544,248.073,280.529,247.909z"/>
		<path d="M300.72,253.921h11.73v3h-14.555v-14.707l2.824-0.012V253.921z"/>
		<path d="M336.556,253.921v2.953h-14.766v-14.813h14.684v2.941H324.65v8.918H336.556z"/>
		<path d="M348.72,253.921h11.73v3h-14.555v-14.707l2.824-0.012V253.921z"/>
		<path d="M369.791,242.284h14.777v14.59h-14.777V242.284z M372.228,245.155v8.777h8.895v-8.777H372.228z M376.529,247.909
			c0.938,0.039,1.473,0.563,1.605,1.57c-0.086,0.844-0.578,1.277-1.477,1.301c-0.938-0.063-1.449-0.473-1.535-1.23
			C375.076,248.62,375.544,248.073,376.529,247.909z"/>
		<path d="M396.837,242.296v11.695h11.473v2.93h-14.273v-14.613L396.837,242.296z M400.494,248.343
			c0.836-0.008,1.316,0.492,1.441,1.5c-0.078,0.844-0.59,1.281-1.535,1.313c-0.844-0.078-1.309-0.496-1.395-1.254
			C398.966,248.972,399.462,248.452,400.494,248.343z"/>
		<path d="M132.837,271.096v11.695h11.473v2.93h-14.273v-14.613L132.837,271.096z M136.494,277.143
			c0.836-0.008,1.316,0.492,1.441,1.5c-0.078,0.844-0.59,1.281-1.535,1.313c-0.844-0.078-1.309-0.496-1.395-1.254
			C134.966,277.771,135.462,277.252,136.494,277.143z"/>
		<path d="M153.802,270.814h2.836l4.617,9.75l4.57-9.633h2.73l-7.324,15.539l-7.324-15.516L153.802,270.814z"/>
		<path d="M180.837,271.096v11.695h11.473v2.93h-14.273v-14.613L180.837,271.096z M184.494,277.143
			c0.836-0.008,1.316,0.492,1.441,1.5c-0.078,0.844-0.59,1.281-1.535,1.313c-0.844-0.078-1.309-0.496-1.395-1.254
			C182.966,277.771,183.462,277.252,184.494,277.143z"/>
		<path d="M204.72,282.721h11.73v3h-14.555v-14.707l2.824-0.012V282.721z"/>
		<path d="M240.791,271.342l-0.047,2.859l-9.422,4.746l9.469,4.734v2.801l-15.223-7.559l15.152-7.582H240.791z"/>
		<path d="M249.662,271.436l15.082,7.523l-15.129,7.523v-2.789l9.375-4.711l-9.375-4.793v-2.754H249.662z M251.841,277.436
			c0.773,0.094,1.27,0.617,1.488,1.57c-0.172,0.922-0.719,1.395-1.641,1.418c-1-0.07-1.52-0.582-1.559-1.535
			C250.302,277.881,250.873,277.396,251.841,277.436z"/>
		<path d="M273.662,271.436l15.082,7.523l-15.129,7.523v-2.789l9.375-4.711l-9.375-4.793v-2.754H273.662z M275.841,277.436
			c0.773,0.094,1.27,0.617,1.488,1.57c-0.172,0.922-0.719,1.395-1.641,1.418c-1-0.07-1.52-0.582-1.559-1.535
			C274.302,277.881,274.873,277.396,275.841,277.436z"/>
		<path d="M309.462,282.779l0.023-8.848h-11.555v-2.93h14.367v14.719h-14.438v-2.941H309.462z"/>
		<path d="M324.837,271.096v11.695h11.473v2.93h-14.273v-14.613L324.837,271.096z M328.494,277.143
			c0.836-0.008,1.316,0.492,1.441,1.5c-0.078,0.844-0.59,1.281-1.535,1.313c-0.844-0.078-1.309-0.496-1.395-1.254
			C326.966,277.771,327.462,277.252,328.494,277.143z"/>
		<path d="M348.591,285.439h-2.895l-0.035-14.531h15.035v2.883h-12.105V285.439z M353.876,276.756
			c-0.945,0.039-1.484,0.563-1.617,1.57c0.086,0.836,0.582,1.34,1.488,1.512c0.945-0.211,1.461-0.695,1.547-1.453
			C355.333,277.463,354.861,276.92,353.876,276.756z"/>
		<path d="M372.72,282.721h11.73v3h-14.555v-14.707l2.824-0.012V282.721z"/>
		<path d="M408.791,271.342l-0.047,2.859l-9.422,4.746l9.469,4.734v2.801l-15.223-7.559l15.152-7.582H408.791z"/>
		<path d="M144.791,300.142l-0.047,2.859l-9.422,4.746l9.469,4.734v2.801l-15.223-7.559l15.152-7.582H144.791z"/>
		<path d="M156.72,311.521h11.73v3h-14.555v-14.707l2.824-0.012V311.521z"/>
		<path d="M180.837,299.896v11.695h11.473v2.93h-14.273v-14.613L180.837,299.896z M184.494,305.942
			c0.836-0.008,1.316,0.492,1.441,1.5c-0.078,0.844-0.59,1.281-1.535,1.313c-0.844-0.078-1.309-0.496-1.395-1.254
			C182.966,306.571,183.462,306.052,184.494,305.942z"/>
		<path d="M201.662,300.235l15.082,7.523l-15.129,7.523v-2.789l9.375-4.711l-9.375-4.793v-2.754H201.662z M203.841,306.235
			c0.773,0.094,1.27,0.617,1.488,1.57c-0.172,0.922-0.719,1.395-1.641,1.418c-1-0.07-1.52-0.582-1.559-1.535
			C202.302,306.681,202.873,306.196,203.841,306.235z"/>
		<path d="M228.591,314.239h-2.895l-0.035-14.531h15.035v2.883h-12.105V314.239z M233.876,305.556
			c-0.945,0.039-1.484,0.563-1.617,1.57c0.086,0.836,0.582,1.34,1.488,1.512c0.945-0.211,1.461-0.695,1.547-1.453
			C235.333,306.263,234.861,305.72,233.876,305.556z"/>
		<path d="M261.462,311.579l0.023-8.848h-11.555v-2.93h14.367v14.719h-14.438v-2.941H261.462z"/>
		<path d="M289.517,307.103l-16.688,8.238v-16.934L289.517,307.103z M275.478,303.013h-0.059v8.191l7.828-4.043L275.478,303.013z"/>
		<path d="M309.462,311.579l0.023-8.848h-11.555v-2.93h14.367v14.719h-14.438v-2.941H309.462z"/>
		<path d="M324.72,311.521h11.73v3h-14.555v-14.707l2.824-0.012V311.521z"/>
		<path d="M357.685,299.896l2.871,0.012v14.613h-14.754v-2.988h11.883V299.896z M352.998,305.649
			c0.93,0.039,1.457,0.566,1.582,1.582c-0.086,0.844-0.594,1.305-1.523,1.383c-0.883-0.125-1.363-0.566-1.441-1.324
			C351.568,306.36,352.029,305.813,352.998,305.649z"/>
		<path d="M372.591,314.239h-2.895l-0.035-14.531h15.035v2.883h-12.105V314.239z M377.876,305.556
			c-0.945,0.039-1.484,0.563-1.617,1.57c0.086,0.836,0.582,1.34,1.488,1.512c0.945-0.211,1.461-0.695,1.547-1.453
			C379.333,306.263,378.861,305.72,377.876,305.556z"/>
		<path d="M396.72,311.521h11.73v3h-14.555v-14.707l2.824-0.012V311.521z"/>
		<path d="M132.72,340.32h11.73v3h-14.555v-14.707l2.824-0.012V340.32z"/>
		<path d="M168.791,328.941l-0.047,2.859l-9.422,4.746l9.469,4.734v2.801l-15.223-7.559l15.152-7.582H168.791z"/>
		<path d="M180.837,328.695v11.695h11.473v2.93h-14.273v-14.613L180.837,328.695z M184.494,334.742
			c0.836-0.008,1.316,0.492,1.441,1.5c-0.078,0.844-0.59,1.281-1.535,1.313c-0.844-0.078-1.309-0.496-1.395-1.254
			C182.966,335.371,183.462,334.852,184.494,334.742z"/>
		<path d="M204.72,340.32h11.73v3h-14.555v-14.707l2.824-0.012V340.32z"/>
		<path d="M228.72,340.32h11.73v3h-14.555v-14.707l2.824-0.012V340.32z"/>
		<path d="M252.837,328.695v11.695h11.473v2.93h-14.273v-14.613L252.837,328.695z M256.494,334.742
			c0.836-0.008,1.316,0.492,1.441,1.5c-0.078,0.844-0.59,1.281-1.535,1.313c-0.844-0.078-1.309-0.496-1.395-1.254
			C254.966,335.371,255.462,334.852,256.494,334.742z"/>
		<path d="M276.591,343.039h-2.895l-0.035-14.531h15.035v2.883h-12.105V343.039z M281.876,334.355
			c-0.945,0.039-1.484,0.563-1.617,1.57c0.086,0.836,0.582,1.34,1.488,1.512c0.945-0.211,1.461-0.695,1.547-1.453
			C283.333,335.063,282.861,334.52,281.876,334.355z"/>
		<path d="M297.802,328.414h2.836l4.617,9.75l4.57-9.633h2.73l-7.324,15.539l-7.324-15.516L297.802,328.414z"/>
		<path d="M324.978,340.473l8.742,0.023v-11.777h2.906v14.613l-14.531-0.012v-14.672h2.883V340.473z M329.384,334.367
			c0.922,0.039,1.445,0.574,1.57,1.605c-0.086,0.844-0.602,1.262-1.547,1.254c-0.852-0.031-1.32-0.43-1.406-1.195
			C327.955,335.094,328.416,334.539,329.384,334.367z"/>
		<path d="M348.837,328.695v11.695h11.473v2.93h-14.273v-14.613L348.837,328.695z M352.494,334.742
			c0.836-0.008,1.316,0.492,1.441,1.5c-0.078,0.844-0.59,1.281-1.535,1.313c-0.844-0.078-1.309-0.496-1.395-1.254
			C350.966,335.371,351.462,334.852,352.494,334.742z"/>
		<path d="M369.662,329.035l15.082,7.523l-15.129,7.523v-2.789l9.375-4.711l-9.375-4.793v-2.754H369.662z M371.841,335.035
			c0.773,0.094,1.27,0.617,1.488,1.57c-0.172,0.922-0.719,1.395-1.641,1.418c-1-0.07-1.52-0.582-1.559-1.535
			C370.302,335.48,370.873,334.996,371.841,335.035z"/>
		<path d="M396.72,340.32h11.73v3h-14.555v-14.707l2.824-0.012V340.32z"/>
		<path d="M132.72,369.121h11.73v3h-14.555v-14.707l2.824-0.012V369.121z"/>
		<path d="M156.591,371.84h-2.895l-0.035-14.531h15.035v2.883h-12.105V371.84z M161.876,363.156
			c-0.945,0.039-1.484,0.563-1.617,1.57c0.086,0.836,0.582,1.34,1.488,1.512c0.945-0.211,1.461-0.695,1.547-1.453
			C163.333,363.863,162.861,363.32,161.876,363.156z"/>
		<path d="M180.72,369.121h11.73v3h-14.555v-14.707l2.824-0.012V369.121z"/>
		<path d="M204.837,357.496v11.695h11.473v2.93h-14.273v-14.613L204.837,357.496z M208.494,363.543
			c0.836-0.008,1.316,0.492,1.441,1.5c-0.078,0.844-0.59,1.281-1.535,1.313c-0.844-0.078-1.309-0.496-1.395-1.254
			C206.966,364.172,207.462,363.652,208.494,363.543z"/>
		<path d="M240.791,357.742l-0.047,2.859l-9.422,4.746l9.469,4.734v2.801l-15.223-7.559l15.152-7.582H240.791z"/>
		<path d="M252.72,369.121h11.73v3h-14.555v-14.707l2.824-0.012V369.121z"/>
		<path d="M273.662,357.836l15.082,7.523l-15.129,7.523v-2.789l9.375-4.711l-9.375-4.793v-2.754H273.662z M275.841,363.836
			c0.773,0.094,1.27,0.617,1.488,1.57c-0.172,0.922-0.719,1.395-1.641,1.418c-1-0.07-1.52-0.582-1.559-1.535
			C274.302,364.281,274.873,363.797,275.841,363.836z"/>
		<path d="M309.462,369.18l0.023-8.848h-11.555v-2.93h14.367v14.719h-14.438v-2.941H309.462z"/>
		<path d="M333.685,357.496l2.871,0.012v14.613h-14.754v-2.988h11.883V357.496z M328.998,363.25c0.93,0.039,1.457,0.566,1.582,1.582
			c-0.086,0.844-0.594,1.305-1.523,1.383c-0.883-0.125-1.363-0.566-1.441-1.324C327.568,363.961,328.029,363.414,328.998,363.25z"/>
		<path d="M348.72,369.121h11.73v3h-14.555v-14.707l2.824-0.012V369.121z"/>
		<path d="M372.591,371.84h-2.895l-0.035-14.531h15.035v2.883h-12.105V371.84z M377.876,363.156
			c-0.945,0.039-1.484,0.563-1.617,1.57c0.086,0.836,0.582,1.34,1.488,1.512c0.945-0.211,1.461-0.695,1.547-1.453
			C379.333,363.863,378.861,363.32,377.876,363.156z"/>
		<path d="M405.544,357.215h2.813l0.035,14.859h-14.438l0.023-3.117h11.566V357.215z"/>
		<path d="M132.591,400.64h-2.895l-0.035-14.531h15.035v2.883h-12.105V400.64z M137.876,391.956
			c-0.945,0.039-1.484,0.563-1.617,1.57c0.086,0.836,0.582,1.34,1.488,1.512c0.945-0.211,1.461-0.695,1.547-1.453
			C139.333,392.663,138.861,392.12,137.876,391.956z"/>
		<path d="M153.802,386.015h2.836l4.617,9.75l4.57-9.633h2.73l-7.324,15.539l-7.324-15.516L153.802,386.015z"/>
		<path d="M180.72,397.921h11.73v3h-14.555v-14.707l2.824-0.012V397.921z"/>
		<path d="M213.462,397.979l0.023-8.848h-11.555v-2.93h14.367v14.719h-14.438v-2.941H213.462z"/>
		<path d="M228.837,386.296v11.695h11.473v2.93h-14.273v-14.613L228.837,386.296z M232.494,392.343
			c0.836-0.008,1.316,0.492,1.441,1.5c-0.078,0.844-0.59,1.281-1.535,1.313c-0.844-0.078-1.309-0.496-1.395-1.254
			C230.966,392.972,231.462,392.452,232.494,392.343z"/>
		<path d="M264.791,386.542l-0.047,2.859l-9.422,4.746l9.469,4.734v2.801l-15.223-7.559l15.152-7.582H264.791z"/>
		<path d="M273.802,386.015h2.836l4.617,9.75l4.57-9.633h2.73l-7.324,15.539l-7.324-15.516L273.802,386.015z"/>
		<path d="M297.662,386.636l15.082,7.523l-15.129,7.523v-2.789l9.375-4.711l-9.375-4.793v-2.754H297.662z M299.841,392.636
			c0.773,0.094,1.27,0.617,1.488,1.57c-0.172,0.922-0.719,1.395-1.641,1.418c-1-0.07-1.52-0.582-1.559-1.535
			C298.302,393.081,298.873,392.597,299.841,392.636z"/>
		<path d="M333.462,397.979l0.023-8.848h-11.555v-2.93h14.367v14.719h-14.438v-2.941H333.462z"/>
		<path d="M348.591,400.64h-2.895l-0.035-14.531h15.035v2.883h-12.105V400.64z M353.876,391.956
			c-0.945,0.039-1.484,0.563-1.617,1.57c0.086,0.836,0.582,1.34,1.488,1.512c0.945-0.211,1.461-0.695,1.547-1.453
			C355.333,392.663,354.861,392.12,353.876,391.956z"/>
		<path d="M384.791,386.542l-0.047,2.859l-9.422,4.746l9.469,4.734v2.801l-15.223-7.559l15.152-7.582H384.791z"/>
		<path d="M396.72,397.921h11.73v3h-14.555v-14.707l2.824-0.012V397.921z"/>
		<path d="M141.462,426.779l0.023-8.848h-11.555v-2.93h14.367v14.719h-14.438v-2.941H141.462z M136.529,420.861
			c0.914,0.039,1.438,0.57,1.57,1.594c-0.086,0.844-0.598,1.281-1.535,1.313c-0.859-0.07-1.332-0.488-1.418-1.254
			C135.099,421.576,135.56,421.025,136.529,420.861z"/>
		<path d="M156.837,415.096v11.695h11.473v2.93h-14.273v-14.613L156.837,415.096z M160.494,421.143
			c0.836-0.008,1.316,0.492,1.441,1.5c-0.078,0.844-0.59,1.281-1.535,1.313c-0.844-0.078-1.309-0.496-1.395-1.254
			C158.966,421.771,159.462,421.252,160.494,421.143z"/>
		<path d="M192.791,415.342l-0.047,2.859l-9.422,4.746l9.469,4.734v2.801l-15.223-7.559l15.152-7.582H192.791z"/>
		<path d="M204.72,426.721h11.73v3h-14.555v-14.707l2.824-0.012V426.721z"/>
		<path d="M228.591,429.439h-2.895l-0.035-14.531h15.035v2.883h-12.105V429.439z M233.876,420.756
			c-0.945,0.039-1.484,0.563-1.617,1.57c0.086,0.836,0.582,1.34,1.488,1.512c0.945-0.211,1.461-0.695,1.547-1.453
			C235.333,421.463,234.861,420.92,233.876,420.756z"/>
		<path d="M264.791,415.342l-0.047,2.859l-9.422,4.746l9.469,4.734v2.801l-15.223-7.559l15.152-7.582H264.791z"/>
		<path d="M276.72,426.721h11.73v3h-14.555v-14.707l2.824-0.012V426.721z"/>
		<path d="M300.591,429.439h-2.895l-0.035-14.531h15.035v2.883h-12.105V429.439z M305.876,420.756
			c-0.945,0.039-1.484,0.563-1.617,1.57c0.086,0.836,0.582,1.34,1.488,1.512c0.945-0.211,1.461-0.695,1.547-1.453
			C307.333,421.463,306.861,420.92,305.876,420.756z"/>
		<path d="M333.685,415.096l2.871,0.012v14.613h-14.754v-2.988h11.883V415.096z M328.998,420.85c0.93,0.039,1.457,0.566,1.582,1.582
			c-0.086,0.844-0.594,1.305-1.523,1.383c-0.883-0.125-1.363-0.566-1.441-1.324C327.568,421.561,328.029,421.014,328.998,420.85z"/>
		<path d="M357.462,426.779l0.023-8.848h-11.555v-2.93h14.367v14.719h-14.438v-2.941H357.462z"/>
		<path d="M372.591,429.439h-2.895l-0.035-14.531h15.035v2.883h-12.105V429.439z M377.876,420.756
			c-0.945,0.039-1.484,0.563-1.617,1.57c0.086,0.836,0.582,1.34,1.488,1.512c0.945-0.211,1.461-0.695,1.547-1.453
			C379.333,421.463,378.861,420.92,377.876,420.756z"/>
		<path d="M396.72,426.721h11.73v3h-14.555v-14.707l2.824-0.012V426.721z"/>
		<path d="M309.685,443.896l2.871,0.012v14.613h-14.754v-2.988h11.883V443.896z M304.998,449.649
			c0.93,0.039,1.457,0.566,1.582,1.582c-0.086,0.844-0.594,1.305-1.523,1.383c-0.883-0.125-1.363-0.566-1.441-1.324
			C303.568,450.36,304.029,449.813,304.998,449.649z"/>
		<path d="M336.791,444.142l-0.047,2.859l-9.422,4.746l9.469,4.734v2.801l-15.223-7.559l15.152-7.582H336.791z"/>
		<path d="M361.517,451.103l-16.688,8.238v-16.934L361.517,451.103z M347.478,447.013h-0.059v8.191l7.828-4.043L347.478,447.013z"/>
		<path d="M372.72,455.521h11.73v3h-14.555v-14.707l2.824-0.012V455.521z"/>
		<path d="M396.591,458.239h-2.895l-0.035-14.531h15.035v2.883h-12.105V458.239z M401.876,449.556
			c-0.945,0.039-1.484,0.563-1.617,1.57c0.086,0.836,0.582,1.34,1.488,1.512c0.945-0.211,1.461-0.695,1.547-1.453
			C403.333,450.263,402.861,449.72,401.876,449.556z"/>
	</g>
	<path id="bottom" fill="#9D9FA1" stroke="#000000" stroke-width="3" d="M159.361,434.221c0,0,170.146,16.833,220.813,27.5
		s101-13.999,118-13.333s27.666,28.334,27,39s-7.666,36.332-19.333,39.666s-102.333-0.666-146,1.667s-79,0.333-114.333,6
		s-77.917,9.229-92.583,8.563"/>
	<path fill="none" stroke="#000000" stroke-width="3" d="M152.673,466.221c9-5.5,21.104,5.025,22,16c1.333,16.333-23.5,31-36.5,15.5
		c-29.623-35.319,1.5-63.5,20.5-63.5s56.5,6.5,52,52s-31.5,55.5-50,57"/>
	<path fill="#BCBEC0" stroke="#000000" stroke-width="3" d="M2.173,135.721c1.5,5.5,8.527,50.842,80.5,29.25
		c25-7.5,27.25-10.75,27.25-10.75l-0.48-1.793c-4.109-13.092-9.654-25.228-16.77-36.207c-17.5-27-32-39.75-54.75-38.25
		s-38.25,30-36.25,52.25s15.5,36.5,37,35.5s27.25-18.25,28-32.5s-13-24.75-23.25-24.75s-15.75,10.25-16,15.75s2.5,16.5,20.5,12.5"/>
</g>
<g id="Layer_4">
</g>
<g id="Layer_1">
	<g>
		<path fill="#BCBEC0" stroke="#000000" stroke-width="3" d="M309.967,122.399c0,0-97.701,22.36-69.534,175.556
			c0,0,116.814,21.872,145.326-72.075"/>
		<path fill="#BCBEC0" stroke="#000000" stroke-width="3" d="M310.097,244.985c0,0,95.184,14.461,123.586-94.02l-62.212-74.902
			c-92.842,17.475-68.551,129.891-68.551,129.891"/>
		<path fill="#BCBEC0" stroke="#000000" stroke-width="3" d="M349.81,137.967c0,0-5.549-68.296,76.029-98.729l48.145,33.543
			c-20.465,113.82-115.858,106.521-115.858,106.521"/>
		<path fill="#BCBEC0" stroke="#000000" stroke-width="3" d="M408.127,87.272c0,0-5.982-70.508,100.204-85.538
			c0,0-2.187,78.079-76.436,90.768"/>
	</g>
	<path fill="#BCBEC0" stroke="#000000" stroke-width="3" d="M472.219,37.275c0,0-307.882,312.357-454.662,548.471
		c0,0,14.04-3.828,20.165-7.552c6.125-3.723,0.038-9.023,9.388-20.232c9.35-11.207,11.784,0.807,15.58-7.014
		C110.379,452.706,472.219,37.275,472.219,37.275z"/>
</g>
</svg>
