<?xml version="1.0" encoding="utf-8"?>
<!-- Generator: Adobe Illustrator 12.0.0, SVG Export Plug-In . SVG Version: 6.00 Build 51448)  -->
<!DOCTYPE svg PUBLIC "-//W3C//DTD SVG 1.1//EN" "http://www.w3.org/Graphics/SVG/1.1/DTD/svg11.dtd" [
	<!ENTITY ns_svg "http://www.w3.org/2000/svg">
	<!ENTITY ns_xlink "http://www.w3.org/1999/xlink">
]>
<svg  version="1.1" id="Layer_1" xmlns="&ns_svg;" xmlns:xlink="&ns_xlink;" width="437.147" height="578.396"
	 viewBox="0 0 437.147 578.396" overflow="visible" enable-background="new 0 0 437.147 578.396" xml:space="preserve">
<g>
	<path fill="#BCBEC0" stroke="#000000" stroke-width="3" d="M273.5,131.542c0,0-84,31-41.5,163.5c0,0,106,6,120.5-80.5"/>
	<path fill="#BCBEC0" stroke="#000000" stroke-width="3" d="M287.653,240.135c0,0,85.986,1.911,98.726-97.452l-63.694-59.236
		c-80.255,26.115-45.859,122.93-45.859,122.93"/>
	<path fill="#BCBEC0" stroke="#000000" stroke-width="3" d="M310.583,140.771c0,0-12.739-59.873,56.051-96.178l46.497,24.204
		c-5.096,103.185-90.446,107.643-90.446,107.643"/>
	<path fill="#BCBEC0" stroke="#000000" stroke-width="3" d="M356.442,89.179c0,0-13.375-61.783,78.981-87.261
		c0,0,7.006,69.427-57.325,89.172"/>
</g>
<path fill="#BCBEC0" stroke="#000000" stroke-width="3" d="M407.5,37.542c0,0-237,312-340,538c0,0,12-5,17-9s-1-8,6-19
	s10.532-0.637,13-8C134.5,447.042,407.5,37.542,407.5,37.542z"/>
<g>
	<path fill="#BCBEC0" stroke="#000000" stroke-width="3" d="M163.648,131.542c0,0,84,31,41.5,163.5c0,0-106,6-120.5-80.5"/>
	<path fill="#BCBEC0" stroke="#000000" stroke-width="3" d="M149.495,240.135c0,0-85.986,1.911-98.726-97.452l63.694-59.236
		c80.255,26.115,45.859,122.93,45.859,122.93"/>
	<path fill="#BCBEC0" stroke="#000000" stroke-width="3" d="M126.565,140.771c0,0,12.739-59.873-56.051-96.178L24.017,68.797
		c5.096,103.185,90.446,107.643,90.446,107.643"/>
	<path fill="#BCBEC0" stroke="#000000" stroke-width="3" d="M80.706,89.179c0,0,13.375-61.783-78.981-87.261
		c0,0-7.006,69.427,57.325,89.172"/>
</g>
<path fill="#BCBEC0" stroke="#000000" stroke-width="3" d="M29.648,37.542c0,0,237,312,340,538c0,0-12-5-17-9s1-8-6-19
	s-10.532-0.637-13-8C302.648,447.042,29.648,37.542,29.648,37.542z"/>
</svg>
