<?xml version="1.0" encoding="utf-8"?>
<!-- Generator: Adobe Illustrator 12.0.0, SVG Export Plug-In . SVG Version: 6.00 Build 51448)  -->
<!DOCTYPE svg PUBLIC "-//W3C//DTD SVG 1.1//EN" "http://www.w3.org/Graphics/SVG/1.1/DTD/svg11.dtd" [
	<!ENTITY ns_svg "http://www.w3.org/2000/svg">
	<!ENTITY ns_xlink "http://www.w3.org/1999/xlink">
]>
<svg  version="1.1" id="Layer_1" xmlns="&ns_svg;" xmlns:xlink="&ns_xlink;" width="360.373" height="587.065"
	 viewBox="0 0 360.373 587.065" overflow="visible" enable-background="new 0 0 360.373 587.065" xml:space="preserve">
<g>
	<g>
		<path id="blade" fill="#BCBEC0" stroke="#000000" stroke-width="3" d="M71.552,137.167c8.166,14.143,18.328,2.208,18.328,2.208
			l257.882,446.665c0,0-45.413-48.553-57.626-69.706L71.552,137.167z"/>
		<g id="Hilt_x5F_Grip">
			
				<rect x="6.575" y="17.648" transform="matrix(-0.866 0.5 -0.5 -0.866 36.634 35.7043)" fill="#808284" stroke="#000000" stroke-width="3" width="13.917" height="10.225"/>
			
				<rect x="11.687" y="26.503" transform="matrix(-0.866 0.5 -0.5 -0.866 50.6003 49.6713)" fill="#BCBEC0" stroke="#000000" stroke-width="3" width="13.917" height="10.224"/>
			
				<rect x="16.8" y="35.357" transform="matrix(-0.866 0.5 -0.5 -0.866 64.5679 63.6373)" fill="#808284" stroke="#000000" stroke-width="3" width="13.917" height="10.225"/>
			
				<rect x="21.912" y="44.212" transform="matrix(-0.866 0.5 -0.5 -0.866 78.5336 77.6054)" fill="#BCBEC0" stroke="#000000" stroke-width="3" width="13.917" height="10.224"/>
			
				<rect x="27.024" y="53.066" transform="matrix(-0.866 0.5 -0.5 -0.866 92.5022 91.5698)" fill="#808284" stroke="#000000" stroke-width="3" width="13.916" height="10.224"/>
			
				<rect x="32.136" y="61.921" transform="matrix(-0.866 0.5 -0.5 -0.866 106.4669 105.5395)" fill="#BCBEC0" stroke="#000000" stroke-width="3" width="13.917" height="10.225"/>
			
				<rect x="37.249" y="70.775" transform="matrix(-0.866 0.5 -0.5 -0.866 120.4337 119.5062)" fill="#808284" stroke="#000000" stroke-width="3" width="13.917" height="10.224"/>
			
				<rect x="42.361" y="79.63" transform="matrix(-0.866 0.5 -0.5 -0.866 134.4022 133.4709)" fill="#BCBEC0" stroke="#000000" stroke-width="3" width="13.917" height="10.225"/>
			
				<rect x="47.473" y="88.485" transform="matrix(-0.866 0.5 -0.5 -0.866 148.3669 147.4398)" fill="#808284" stroke="#000000" stroke-width="3" width="13.917" height="10.224"/>
			
				<rect x="52.585" y="97.339" transform="matrix(-0.866 0.5 -0.5 -0.866 162.3352 161.4041)" fill="#BCBEC0" stroke="#000000" stroke-width="3" width="13.917" height="10.225"/>
			
				<rect x="57.697" y="106.194" transform="matrix(-0.866 0.5 -0.5 -0.866 176.3024 175.3715)" fill="#808284" stroke="#000000" stroke-width="3" width="13.917" height="10.225"/>
			
				<rect x="62.81" y="115.048" transform="matrix(-0.866 0.5 -0.5 -0.866 190.2672 189.3412)" fill="#BCBEC0" stroke="#000000" stroke-width="3" width="13.917" height="10.224"/>
			
				<rect x="67.921" y="123.903" transform="matrix(-0.866 0.5 -0.5 -0.866 204.2359 203.3046)" fill="#808284" stroke="#000000" stroke-width="3" width="13.917" height="10.225"/>
		</g>
		<polygon fill="#808284" stroke="#000000" stroke-width="3" points="73.218,139.485 36.078,160.928 26.744,145.328 69.602,134.358 
					"/>
		<path id="blade_2_" fill="#808284" stroke="#000000" stroke-width="3" d="M97.255,122.328c8.166,14.143-7.251,16.977-7.251,16.977
			l257.881,446.665c0,0-19.341-63.604-31.553-84.758L97.255,122.328z"/>
		<g id="Hilt_x5F_Grip_1_">
			
				<rect x="20.226" y="9.766" transform="matrix(0.866 -0.5 0.5 0.866 -3.7973 15.5848)" fill="#BCBEC0" stroke="#000000" stroke-width="3" width="13.917" height="10.225"/>
			
				<rect x="25.338" y="18.621" transform="matrix(0.866 -0.5 0.5 0.866 -7.5397 19.3271)" fill="#808284" stroke="#000000" stroke-width="3" width="13.917" height="10.224"/>
			
				<rect x="30.451" y="27.475" transform="matrix(0.866 -0.5 0.5 0.866 -11.2821 23.0708)" fill="#BCBEC0" stroke="#000000" stroke-width="3" width="13.917" height="10.224"/>
			
				<rect x="35.563" y="36.33" transform="matrix(0.866 -0.5 0.5 0.866 -15.0243 26.8115)" fill="#808284" stroke="#000000" stroke-width="3" width="13.917" height="10.225"/>
			
				<rect x="40.675" y="45.185" transform="matrix(0.866 -0.5 0.5 0.866 -18.7666 30.5536)" fill="#BCBEC0" stroke="#000000" stroke-width="3" width="13.917" height="10.224"/>
			
				<rect x="45.787" y="54.039" transform="matrix(0.866 -0.5 0.5 0.866 -22.5095 34.2981)" fill="#808284" stroke="#000000" stroke-width="3" width="13.917" height="10.224"/>
			
				<rect x="50.899" y="62.894" transform="matrix(0.866 -0.5 0.5 0.866 -26.251 38.0381)" fill="#BCBEC0" stroke="#000000" stroke-width="3" width="13.917" height="10.224"/>
			
				<rect x="56.012" y="71.748" transform="matrix(0.866 -0.5 0.5 0.866 -29.9942 41.7831)" fill="#808284" stroke="#000000" stroke-width="3" width="13.917" height="10.224"/>
			
				<rect x="61.124" y="80.603" transform="matrix(0.866 -0.5 0.5 0.866 -33.7362 45.5241)" fill="#BCBEC0" stroke="#000000" stroke-width="3" width="13.916" height="10.224"/>
			
				<rect x="66.236" y="89.457" transform="matrix(0.866 -0.5 0.5 0.866 -37.4791 49.2679)" fill="#808284" stroke="#000000" stroke-width="3" width="13.917" height="10.225"/>
			
				<rect x="71.348" y="98.312" transform="matrix(0.866 -0.5 0.5 0.866 -41.2216 53.0104)" fill="#BCBEC0" stroke="#000000" stroke-width="3" width="13.917" height="10.224"/>
			
				<rect x="76.46" y="107.167" transform="matrix(0.866 -0.5 0.5 0.866 -44.9624 56.7491)" fill="#808284" stroke="#000000" stroke-width="3" width="13.917" height="10.224"/>
			
				<rect x="81.572" y="116.022" transform="matrix(0.866 -0.5 0.5 0.866 -48.7065 60.4953)" fill="#BCBEC0" stroke="#000000" stroke-width="3" width="13.917" height="10.225"/>
		</g>
		<polygon fill="#BCBEC0" stroke="#000000" stroke-width="3" points="98.429,124.929 135.569,103.486 126.727,87.603 
			95.796,119.234 		"/>
		<path id="blade_1_" fill="#808284" stroke="#000000" stroke-width="3" d="M89.942,139.34c0,0,15.407-2.993,7.313-17.013
			c-8.094-14.02-17.538-0.697-17.538-0.697s-16.26,1.517-8.166,15.537C79.646,151.187,89.942,139.34,89.942,139.34z"/>
		<path fill="#BCBEC0" stroke="#000000" stroke-width="3" d="M21.046,20.718C29.399,15.895,34.201,8.571,31.77,4.361
			c-2.432-4.211-11.175-3.715-19.529,1.108l0.615-0.355C4.502,9.937-0.299,17.261,2.132,21.472
			c2.431,4.211,11.175,3.714,19.528-1.109L21.046,20.718z"/>
	</g>
	<g>
		<path id="blade_4_" fill="#BCBEC0" stroke="#000000" stroke-width="3" d="M263.117,122.328
			c-8.165,14.143,7.251,16.977,7.251,16.977L12.487,585.969c0,0,19.341-63.604,31.554-84.758L263.117,122.328z"/>
		<g id="Hilt_x5F_Grip_3_">
			
				<rect x="326.229" y="9.766" transform="matrix(-0.866 -0.5 0.5 -0.866 614.2979 194.3563)" fill="#808284" stroke="#000000" stroke-width="3" width="13.916" height="10.225"/>
			
				<rect x="321.117" y="18.621" transform="matrix(-0.866 -0.5 0.5 -0.866 600.3309 208.3234)" fill="#BCBEC0" stroke="#000000" stroke-width="3" width="13.916" height="10.224"/>
			
				<rect x="316.005" y="27.475" transform="matrix(-0.866 -0.5 0.5 -0.866 586.3583 222.2975)" fill="#808284" stroke="#000000" stroke-width="3" width="13.916" height="10.224"/>
			
				<rect x="310.893" y="36.33" transform="matrix(-0.866 -0.5 0.5 -0.866 572.3969 236.257)" fill="#BCBEC0" stroke="#000000" stroke-width="3" width="13.916" height="10.225"/>
			
				<rect x="305.782" y="45.185" transform="matrix(-0.866 -0.5 0.5 -0.866 558.4247 250.2332)" fill="#808284" stroke="#000000" stroke-width="3" width="13.915" height="10.224"/>
			
				<rect x="300.669" y="54.039" transform="matrix(-0.866 -0.5 0.5 -0.866 544.4587 264.1979)" fill="#BCBEC0" stroke="#000000" stroke-width="3" width="13.916" height="10.224"/>
			
				<rect x="295.557" y="62.894" transform="matrix(-0.866 -0.5 0.5 -0.866 530.4979 278.1578)" fill="#808284" stroke="#000000" stroke-width="3" width="13.916" height="10.224"/>
			
				<rect x="290.444" y="71.748" transform="matrix(-0.866 -0.5 0.5 -0.866 516.5245 292.1306)" fill="#BCBEC0" stroke="#000000" stroke-width="3" width="13.916" height="10.224"/>
			
				<rect x="285.332" y="80.603" transform="matrix(-0.866 -0.5 0.5 -0.866 502.5641 306.091)" fill="#808284" stroke="#000000" stroke-width="3" width="13.916" height="10.224"/>
			
				<rect x="280.22" y="89.457" transform="matrix(-0.866 -0.5 0.5 -0.866 488.5903 320.0637)" fill="#BCBEC0" stroke="#000000" stroke-width="3" width="13.916" height="10.225"/>
			
				<rect x="275.107" y="98.312" transform="matrix(-0.866 -0.5 0.5 -0.866 474.6231 334.0305)" fill="#808284" stroke="#000000" stroke-width="3" width="13.916" height="10.224"/>
			
				<rect x="269.995" y="107.167" transform="matrix(-0.866 -0.5 0.5 -0.866 460.6631 347.9917)" fill="#BCBEC0" stroke="#000000" stroke-width="3" width="13.916" height="10.224"/>
			
				<rect x="264.883" y="116.021" transform="matrix(-0.866 -0.5 0.5 -0.866 446.6888 361.9636)" fill="#808284" stroke="#000000" stroke-width="3" width="13.916" height="10.225"/>
		</g>
		<polygon fill="#808284" stroke="#000000" stroke-width="3" points="261.943,124.929 224.804,103.486 233.646,87.603 
			264.575,119.234 		"/>
		<path id="blade_3_" fill="#808284" stroke="#000000" stroke-width="3" d="M288.82,137.167
			c-8.165,14.143-18.329,2.208-18.329,2.208L12.61,586.041c0,0,45.413-48.553,57.625-69.706L288.82,137.167z"/>
		<g id="Hilt_x5F_Grip_2_">
			
				<rect x="339.88" y="17.648" transform="matrix(0.866 0.5 -0.5 0.866 57.8458 -170.3671)" fill="#BCBEC0" stroke="#000000" stroke-width="3" width="13.917" height="10.225"/>
			
				<rect x="334.768" y="26.503" transform="matrix(0.866 0.5 -0.5 0.866 61.5819 -166.6163)" fill="#808284" stroke="#000000" stroke-width="3" width="13.917" height="10.224"/>
			
				<rect x="329.655" y="35.357" transform="matrix(0.866 0.5 -0.5 0.866 65.3304 -162.8824)" fill="#BCBEC0" stroke="#000000" stroke-width="3" width="13.917" height="10.225"/>
			
				<rect x="324.543" y="44.212" transform="matrix(0.866 0.5 -0.5 0.866 69.0663 -159.1321)" fill="#808284" stroke="#000000" stroke-width="3" width="13.917" height="10.224"/>
			
				<rect x="319.431" y="53.067" transform="matrix(0.866 0.5 -0.5 0.866 72.8151 -155.398)" fill="#BCBEC0" stroke="#000000" stroke-width="3" width="13.917" height="10.224"/>
			
				<rect x="314.319" y="61.921" transform="matrix(0.866 0.5 -0.5 0.866 76.5508 -151.6484)" fill="#808284" stroke="#000000" stroke-width="3" width="13.917" height="10.225"/>
			
				<rect x="309.207" y="70.775" transform="matrix(0.866 0.5 -0.5 0.866 80.2929 -147.9064)" fill="#BCBEC0" stroke="#000000" stroke-width="3" width="13.917" height="10.224"/>
			
				<rect x="304.095" y="79.63" transform="matrix(0.866 0.5 -0.5 0.866 84.0421 -144.1711)" fill="#808284" stroke="#000000" stroke-width="3" width="13.917" height="10.225"/>
			
				<rect x="298.982" y="88.484" transform="matrix(0.866 0.5 -0.5 0.866 87.7772 -140.4222)" fill="#BCBEC0" stroke="#000000" stroke-width="3" width="13.917" height="10.224"/>
			
				<rect x="293.87" y="97.339" transform="matrix(0.866 0.5 -0.5 0.866 91.5267 -136.6865)" fill="#808284" stroke="#000000" stroke-width="3" width="13.917" height="10.225"/>
			
				<rect x="288.758" y="106.194" transform="matrix(0.866 0.5 -0.5 0.866 95.2692 -132.944)" fill="#BCBEC0" stroke="#000000" stroke-width="3" width="13.917" height="10.225"/>
			
				<rect x="283.646" y="115.048" transform="matrix(0.866 0.5 -0.5 0.866 99.0038 -129.1959)" fill="#808284" stroke="#000000" stroke-width="3" width="13.917" height="10.224"/>
			
				<rect x="278.533" y="123.903" transform="matrix(0.866 0.5 -0.5 0.866 102.7538 -125.4594)" fill="#BCBEC0" stroke="#000000" stroke-width="3" width="13.917" height="10.225"/>
		</g>
		<polygon fill="#BCBEC0" stroke="#000000" stroke-width="3" points="287.154,139.485 324.294,160.928 333.629,145.328 
			290.771,134.358 		"/>
		<path id="blade_6_" fill="#808284" stroke="#000000" stroke-width="3" d="M270.431,139.34c0,0,10.295,11.847,18.39-2.173
			c8.095-14.02-8.165-15.537-8.165-15.537s-9.443-13.323-17.538,0.697C255.023,136.348,270.431,139.34,270.431,139.34z"/>
		<path fill="#BCBEC0" stroke="#000000" stroke-width="3" d="M338.712,20.363c8.354,4.823,17.098,5.32,19.529,1.109
			c2.431-4.211-2.371-11.535-10.725-16.358l0.614,0.355c-8.354-4.823-17.098-5.319-19.529-1.108
			c-2.431,4.21,2.371,11.534,10.725,16.357L338.712,20.363z"/>
	</g>
</g>
</svg>
