<?xml version="1.0" encoding="utf-8"?>
<!-- Generator: Adobe Illustrator 12.0.0, SVG Export Plug-In . SVG Version: 6.00 Build 51448)  -->
<!DOCTYPE svg PUBLIC "-//W3C//DTD SVG 1.1//EN" "http://www.w3.org/Graphics/SVG/1.1/DTD/svg11.dtd" [
	<!ENTITY ns_svg "http://www.w3.org/2000/svg">
	<!ENTITY ns_xlink "http://www.w3.org/1999/xlink">
]>
<svg  version="1.1" id="Layer_1" xmlns="&ns_svg;" xmlns:xlink="&ns_xlink;" width="484.339" height="666.334"
	 viewBox="0 0 484.339 666.334" overflow="visible" enable-background="new 0 0 484.339 666.334" xml:space="preserve">
<path fill="#BCBEC0" stroke="#000000" stroke-width="3" stroke-linejoin="round" d="M242.339,250.667"/>
<path fill="#BCBEC0" stroke="#000000" stroke-width="3" stroke-linejoin="round" d="M242,624.667c0,0,83.627-23.667,85.294-21.333
	s19.833,1.833,18.167,27c-1.667,25.167-84.794,34.5-103.461,34.5h0.339c-18.667,0-101.794-9.333-103.46-34.5s16.5-24.666,18.167-27
	s85.294,21.333,85.294,21.333H242z"/>
<path fill="#9D9FA1" stroke="#000000" stroke-width="3" stroke-linejoin="round" d="M242,596.917l75.044-19.75c0,0,22,10.25,18,27
	s-67.794,27.25-93.044,27.25h0.339c-25.25,0-89.044-10.5-93.044-27.25s18-27,18-27l75.044,19.75H242z"/>
<path fill="#BCBEC0" stroke="#000000" stroke-width="3" stroke-linejoin="round" d="M242,571c0,0,62.961-20,65.294-18.666
	s23.333,16.666,17.667,27.333C319.293,590.334,286,604.334,242,604.334h0.339c-44,0-77.293-14-82.96-24.667
	s15.333-25.999,17.667-27.333S242.339,571,242.339,571H242z"/>
<path fill="none" d="M86.545,263.667c-5.5,8.167,18.167,14.667,12.5,38.5c0,0-44.5,24.25-40,102.5c2.039,35.452,28.5,61,54,62.5
	s31.5-8.5,31.5-8.5l97.625,0.125l97.624-0.125c0,0,6,10,31.5,8.5s51.962-27.048,54-62.5c4.5-78.25-40-102.5-40-102.5
	c-5.667-23.833,18-30.333,12.5-38.5c-10.995-16.325-36.522-81.617-45.115-118H131.66C123.067,182.05,97.54,247.342,86.545,263.667z"
	/>
<path fill="#B2B2B2" stroke="#000000" stroke-width="3" d="M242.339,574.501c-0.054-0.004-0.115-0.01-0.169-0.014
	c-0.055,0.004-0.117,0.01-0.17,0.014H242.339z"/>
<polygon fill="#B2B2B2" stroke="#000000" stroke-width="3" points="242.339,458.792 242.17,458.792 242,458.792 "/>
<g>
	<g>
		<path fill="#B2B2B2" d="M472.794,349.167c-6-17-69-130-78-161.5s-25.523-90.935,4-90.5c11.333,0.167-1,28.25,27,28.25
			s21.5-33.75,21.5-33.75s-6.5-34.75-44.25-34.75c-31.2,0-47.2,30.91-51.813,55.75c-0.969,5.215-1.437,10.163-1.437,14.5
			c0,4.372,1.063,10.789,2.885,18.5c8.593,36.383,34.12,101.675,45.115,118c5.5,8.167-18.167,14.667-12.5,38.5
			c0,0,44.5,24.25,40,102.5c-2.038,35.452-28.5,61-54,62.5s-31.5-8.5-31.5-8.5l-97.624,0.125l-97.625-0.125c0,0-6,10-31.5,8.5
			s-51.961-27.048-54-62.5c-4.5-78.25,40-102.5,40-102.5c5.667-23.833-18-30.333-12.5-38.5c10.995-16.325,36.522-81.617,45.115-118
			c1.821-7.711,2.885-14.128,2.885-18.5c0-4.337-0.468-9.285-1.436-14.5c-4.614-24.84-20.614-55.75-51.814-55.75
			c-37.75,0-44.25,34.75-44.25,34.75s-6.5,33.75,21.5,33.75s15.667-28.083,27-28.25c29.523-0.435,13,59,4,90.5s-72,144.5-78,161.5
			s-17.167,66.167-8.167,77.167s21.292,10.333,23.333,30.334c6.404,62.73,51.333,83.666,78,83.666s63.333-15.5,71-15.5
			s17-1.833,17,9.834s-24.833,7-13.5,20.5c11.286,13.443,50.125,18.291,62.958,19.319c12.833-1.028,51.673-5.876,62.957-19.319
			c11.334-13.5-13.5-8.833-13.5-20.5s9.334-9.834,17-9.834c7.667,0,44.333,15.5,71,15.5s71.596-20.936,78-83.666
			c2.042-20.001,14.334-19.334,23.334-30.334S478.794,366.167,472.794,349.167z"/>
		<path fill="#B2B2B2" d="M356.146,113.58L356.146,113.58c-0.885,4.763-1.353,9.461-1.353,13.587c0,2.602,0.478,7.725,2.751,17.351
			c8.682,36.76,33.873,100.732,44.396,116.356c1.217,1.808,1.711,3.562,1.711,5.242c0,4.363-3.325,8.235-5.95,11.292
			c-3.93,4.576-8.286,9.648-8.286,17.632c0,1.261,0.156,2.626,0.393,4.043c8.728,5.767,40.809,31.27,40.809,94.531
			c0,3.652-0.106,7.432-0.331,11.34c-2.271,39.511-32.237,65.647-58.698,67.204c-20.899,1.229-30.336-4.86-34.056-8.488
			c-4.328,0.006-95.356,0.122-95.356,0.122s-91.041-0.116-95.369-0.122c-3.719,3.628-13.156,9.718-34.055,8.488
			c-26.46-1.557-56.426-27.693-58.698-67.204c-0.225-3.908-0.332-7.688-0.332-11.34c0-63.262,32.081-88.765,40.809-94.531
			c0.237-1.417,0.393-2.781,0.393-4.043c0-7.984-4.356-13.057-8.286-17.632c-2.625-3.057-5.951-6.929-5.951-11.292
			c0-1.681,0.494-3.435,1.711-5.242c10.523-15.625,35.714-79.598,44.396-116.356c2.274-9.626,2.751-14.749,2.751-17.351
			c0-4.125-0.468-8.824-1.352-13.587c-4.426-23.832-19.365-51.663-46.898-51.663c-33.003,0-39.095,29.433-39.338,30.686
			c-0.777,4.124-1.604,16.259,3.825,22.807c2.794,3.37,6.969,5.008,12.763,5.008c13,0,14.256-6.466,15.846-14.653
			c1.042-5.365,2.617-13.472,11.08-13.597c6.755-0.1,12.3,2.426,16.036,7.304c12.39,16.177,2.803,54.716-7.155,89.569
			c-5.696,19.937-31.754,70.288-52.692,110.746c-12.46,24.077-23.222,44.872-25.401,51.045
			c-7.743,21.938-15.158,64.824-9.012,72.337c2.573,3.145,5.512,5.211,8.623,7.399c6.667,4.688,14.224,10.003,15.815,25.593
			c5.93,58.089,46.921,79.174,73.026,79.174c16.616,0,37.4-6.321,52.577-10.937c9.859-2.999,15.156-4.563,18.423-4.563l2.648-0.05
			c4.974-0.138,11.164-0.31,15.391,3.801c2.628,2.557,3.961,6.285,3.961,11.083l0,0c0,8.605-7.871,11.717-12.574,13.575
			c-1.139,0.45-2.707,1.075-3.609,1.59c0.246,0.452,0.694,1.146,1.512,2.12c9.03,10.757,42.388,16.133,59.129,17.515
			c16.74-1.382,50.099-6.758,59.127-17.515c0.818-0.975,1.268-1.668,1.513-2.12c-0.901-0.515-2.47-1.14-3.608-1.59
			c-4.703-1.858-12.574-4.97-12.574-13.575l0,0c0-4.797,1.333-8.526,3.961-11.083c4.227-4.11,10.417-3.938,15.391-3.801l2.648,0.05
			c3.268,0,8.564,1.564,18.424,4.563c15.176,4.615,35.961,10.937,52.576,10.937c26.105,0,67.096-21.085,73.025-79.174
			c1.592-15.59,9.148-20.904,15.816-25.593c3.111-2.188,6.05-4.255,8.622-7.399c6.147-7.514-1.269-50.398-9.012-72.337
			c-2.179-6.173-12.94-26.968-25.401-51.045c-20.938-40.458-46.995-90.809-52.691-110.746c-9.958-34.854-19.545-73.393-7.155-89.569
			c3.736-4.878,9.281-7.404,16.036-7.304c8.464,0.125,10.038,8.232,11.08,13.597c1.591,8.187,2.847,14.653,15.847,14.653
			c5.794,0,9.969-1.638,12.764-5.008c5.429-6.547,4.602-18.683,3.824-22.806c-0.243-1.253-6.335-30.686-39.338-30.686
			C375.511,61.917,360.572,89.748,356.146,113.58z"/>
	</g>
	<g>
		<path fill="#9D9FA1" d="M472.794,349.167c-6-17-69-130-78-161.5s-25.523-90.935,4-90.5c11.333,0.167-1,28.25,27,28.25
			s21.5-33.75,21.5-33.75s-6.5-34.75-44.25-34.75c-31.2,0-47.2,30.91-51.813,55.75c-0.969,5.215-1.437,10.163-1.437,14.5
			c0,4.372,1.063,10.789,2.885,18.5c8.593,36.383,34.12,101.675,45.115,118c5.5,8.167-18.167,14.667-12.5,38.5
			c0,0,44.5,24.25,40,102.5c-2.038,35.452-28.5,61-54,62.5s-31.5-8.5-31.5-8.5l-97.624,0.125l-97.625-0.125c0,0-6,10-31.5,8.5
			s-51.961-27.048-54-62.5c-4.5-78.25,40-102.5,40-102.5c5.667-23.833-18-30.333-12.5-38.5c10.995-16.325,36.522-81.617,45.115-118
			c1.821-7.711,2.885-14.128,2.885-18.5c0-4.337-0.468-9.285-1.436-14.5c-4.614-24.84-20.614-55.75-51.814-55.75
			c-37.75,0-44.25,34.75-44.25,34.75s-6.5,33.75,21.5,33.75s15.667-28.083,27-28.25c29.523-0.435,13,59,4,90.5s-72,144.5-78,161.5
			s-17.167,66.167-8.167,77.167s21.292,10.333,23.333,30.334c6.404,62.73,51.333,83.666,78,83.666s63.333-15.5,71-15.5
			s17-1.833,17,9.834s-24.833,7-13.5,20.5c11.286,13.443,50.125,18.291,62.958,19.319c12.833-1.028,51.673-5.876,62.957-19.319
			c11.334-13.5-13.5-8.833-13.5-20.5s9.334-9.834,17-9.834c7.667,0,44.333,15.5,71,15.5s71.596-20.936,78-83.666
			c2.042-20.001,14.334-19.334,23.334-30.334S478.794,366.167,472.794,349.167z"/>
		<path fill="#BCBEC0" d="M356.146,113.58L356.146,113.58c-0.885,4.763-1.353,9.461-1.353,13.587c0,2.602,0.478,7.725,2.751,17.351
			c8.682,36.76,33.873,100.732,44.396,116.356c1.217,1.808,1.711,3.562,1.711,5.242c0,4.363-3.325,8.235-5.95,11.292
			c-3.93,4.576-8.286,9.648-8.286,17.632c0,1.261,0.156,2.626,0.393,4.043c8.728,5.767,40.809,31.27,40.809,94.531
			c0,3.652-0.106,7.432-0.331,11.34c-2.271,39.511-32.237,65.647-58.698,67.204c-20.899,1.229-30.336-4.86-34.056-8.488
			c-4.328,0.006-95.356,0.122-95.356,0.122s-91.041-0.116-95.369-0.122c-3.719,3.628-13.156,9.718-34.055,8.488
			c-26.46-1.557-56.426-27.693-58.698-67.204c-0.225-3.908-0.332-7.688-0.332-11.34c0-63.262,32.081-88.765,40.809-94.531
			c0.237-1.417,0.393-2.781,0.393-4.043c0-7.984-4.356-13.057-8.286-17.632c-2.625-3.057-5.951-6.929-5.951-11.292
			c0-1.681,0.494-3.435,1.711-5.242c10.523-15.625,35.714-79.598,44.396-116.356c2.274-9.626,2.751-14.749,2.751-17.351
			c0-4.125-0.468-8.824-1.352-13.587c-4.426-23.832-19.365-51.663-46.898-51.663c-33.003,0-39.095,29.433-39.338,30.686
			c-0.777,4.124-1.604,16.259,3.825,22.807c2.794,3.37,6.969,5.008,12.763,5.008c13,0,14.256-6.466,15.846-14.653
			c1.042-5.365,2.617-13.472,11.08-13.597c6.755-0.1,12.3,2.426,16.036,7.304c12.39,16.177,2.803,54.716-7.155,89.569
			c-5.696,19.937-31.754,70.288-52.692,110.746c-12.46,24.077-23.222,44.872-25.401,51.045
			c-7.743,21.938-15.158,64.824-9.012,72.337c2.573,3.145,5.512,5.211,8.623,7.399c6.667,4.688,14.224,10.003,15.815,25.593
			c5.93,58.089,46.921,79.174,73.026,79.174c16.616,0,37.4-6.321,52.577-10.937c9.859-2.999,15.156-4.563,18.423-4.563l2.648-0.05
			c4.974-0.138,11.164-0.31,15.391,3.801c2.628,2.557,3.961,6.285,3.961,11.083l0,0c0,8.605-7.871,11.717-12.574,13.575
			c-1.139,0.45-2.707,1.075-3.609,1.59c0.246,0.452,0.694,1.146,1.512,2.12c9.03,10.757,42.388,16.133,59.129,17.515
			c16.74-1.382,50.099-6.758,59.127-17.515c0.818-0.975,1.268-1.668,1.513-2.12c-0.901-0.515-2.47-1.14-3.608-1.59
			c-4.703-1.858-12.574-4.97-12.574-13.575l0,0c0-4.797,1.333-8.526,3.961-11.083c4.227-4.11,10.417-3.938,15.391-3.801l2.648,0.05
			c3.268,0,8.564,1.564,18.424,4.563c15.176,4.615,35.961,10.937,52.576,10.937c26.105,0,67.096-21.085,73.025-79.174
			c1.592-15.59,9.148-20.904,15.816-25.593c3.111-2.188,6.05-4.255,8.622-7.399c6.147-7.514-1.269-50.398-9.012-72.337
			c-2.179-6.173-12.94-26.968-25.401-51.045c-20.938-40.458-46.995-90.809-52.691-110.746c-9.958-34.854-19.545-73.393-7.155-89.569
			c3.736-4.878,9.281-7.404,16.036-7.304c8.464,0.125,10.038,8.232,11.08,13.597c1.591,8.187,2.847,14.653,15.847,14.653
			c5.794,0,9.969-1.638,12.764-5.008c5.429-6.547,4.602-18.683,3.824-22.806c-0.243-1.253-6.335-30.686-39.338-30.686
			C375.511,61.917,360.572,89.748,356.146,113.58z"/>
	</g>
	<g>
		<path fill="none" stroke="#000000" stroke-width="3" d="M472.794,349.167c-6-17-69-130-78-161.5s-25.523-90.935,4-90.5
			c11.333,0.167-1,28.25,27,28.25s21.5-33.75,21.5-33.75s-6.5-34.75-44.25-34.75c-31.2,0-47.2,30.91-51.813,55.75
			c-0.969,5.215-1.437,10.163-1.437,14.5c0,4.372,1.063,10.789,2.885,18.5c8.593,36.383,34.12,101.675,45.115,118
			c5.5,8.167-18.167,14.667-12.5,38.5c0,0,44.5,24.25,40,102.5c-2.038,35.452-28.5,61-54,62.5s-31.5-8.5-31.5-8.5l-97.624,0.125
			l-97.625-0.125c0,0-6,10-31.5,8.5s-51.961-27.048-54-62.5c-4.5-78.25,40-102.5,40-102.5c5.667-23.833-18-30.333-12.5-38.5
			c10.995-16.325,36.522-81.617,45.115-118c1.821-7.711,2.885-14.128,2.885-18.5c0-4.337-0.468-9.285-1.436-14.5
			c-4.614-24.84-20.614-55.75-51.814-55.75c-37.75,0-44.25,34.75-44.25,34.75s-6.5,33.75,21.5,33.75s15.667-28.083,27-28.25
			c29.523-0.435,13,59,4,90.5s-72,144.5-78,161.5s-17.167,66.167-8.167,77.167s21.292,10.333,23.333,30.334
			c6.404,62.73,51.333,83.666,78,83.666s63.333-15.5,71-15.5s17-1.833,17,9.834s-24.833,7-13.5,20.5
			c11.286,13.443,50.125,18.291,62.958,19.319c12.833-1.028,51.673-5.876,62.957-19.319c11.334-13.5-13.5-8.833-13.5-20.5
			s9.334-9.834,17-9.834c7.667,0,44.333,15.5,71,15.5s71.596-20.936,78-83.666c2.042-20.001,14.334-19.334,23.334-30.334
			S478.794,366.167,472.794,349.167z"/>
		<path fill="none" stroke="#000000" stroke-width="3" d="M356.146,113.58L356.146,113.58c-0.885,4.763-1.353,9.461-1.353,13.587
			c0,2.602,0.478,7.725,2.751,17.351c8.682,36.76,33.873,100.732,44.396,116.356c1.217,1.808,1.711,3.562,1.711,5.242
			c0,4.363-3.325,8.235-5.95,11.292c-3.93,4.576-8.286,9.648-8.286,17.632c0,1.261,0.156,2.626,0.393,4.043
			c8.728,5.767,40.809,31.27,40.809,94.531c0,3.652-0.106,7.432-0.331,11.34c-2.271,39.511-32.237,65.647-58.698,67.204
			c-20.899,1.229-30.336-4.86-34.056-8.488c-4.328,0.006-95.356,0.122-95.356,0.122s-91.041-0.116-95.369-0.122
			c-3.719,3.628-13.156,9.718-34.055,8.488c-26.46-1.557-56.426-27.693-58.698-67.204c-0.225-3.908-0.332-7.688-0.332-11.34
			c0-63.262,32.081-88.765,40.809-94.531c0.237-1.417,0.393-2.781,0.393-4.043c0-7.984-4.356-13.057-8.286-17.632
			c-2.625-3.057-5.951-6.929-5.951-11.292c0-1.681,0.494-3.435,1.711-5.242c10.523-15.625,35.714-79.598,44.396-116.356
			c2.274-9.626,2.751-14.749,2.751-17.351c0-4.125-0.468-8.824-1.352-13.587c-4.426-23.832-19.365-51.663-46.898-51.663
			c-33.003,0-39.095,29.433-39.338,30.686c-0.777,4.124-1.604,16.259,3.825,22.807c2.794,3.37,6.969,5.008,12.763,5.008
			c13,0,14.256-6.466,15.846-14.653c1.042-5.365,2.617-13.472,11.08-13.597c6.755-0.1,12.3,2.426,16.036,7.304
			c12.39,16.177,2.803,54.716-7.155,89.569c-5.696,19.937-31.754,70.288-52.692,110.746c-12.46,24.077-23.222,44.872-25.401,51.045
			c-7.743,21.938-15.158,64.824-9.012,72.337c2.573,3.145,5.512,5.211,8.623,7.399c6.667,4.688,14.224,10.003,15.815,25.593
			c5.93,58.089,46.921,79.174,73.026,79.174c16.616,0,37.4-6.321,52.577-10.937c9.859-2.999,15.156-4.563,18.423-4.563l2.648-0.05
			c4.974-0.138,11.164-0.31,15.391,3.801c2.628,2.557,3.961,6.285,3.961,11.083l0,0c0,8.605-7.871,11.717-12.574,13.575
			c-1.139,0.45-2.707,1.075-3.609,1.59c0.246,0.452,0.694,1.146,1.512,2.12c9.03,10.757,42.388,16.133,59.129,17.515
			c16.74-1.382,50.099-6.758,59.127-17.515c0.818-0.975,1.268-1.668,1.513-2.12c-0.901-0.515-2.47-1.14-3.608-1.59
			c-4.703-1.858-12.574-4.97-12.574-13.575l0,0c0-4.797,1.333-8.526,3.961-11.083c4.227-4.11,10.417-3.938,15.391-3.801l2.648,0.05
			c3.268,0,8.564,1.564,18.424,4.563c15.176,4.615,35.961,10.937,52.576,10.937c26.105,0,67.096-21.085,73.025-79.174
			c1.592-15.59,9.148-20.904,15.816-25.593c3.111-2.188,6.05-4.255,8.622-7.399c6.147-7.514-1.269-50.398-9.012-72.337
			c-2.179-6.173-12.94-26.968-25.401-51.045c-20.938-40.458-46.995-90.809-52.691-110.746c-9.958-34.854-19.545-73.393-7.155-89.569
			c3.736-4.878,9.281-7.404,16.036-7.304c8.464,0.125,10.038,8.232,11.08,13.597c1.591,8.187,2.847,14.653,15.847,14.653
			c5.794,0,9.969-1.638,12.764-5.008c5.429-6.547,4.602-18.683,3.824-22.806c-0.243-1.253-6.335-30.686-39.338-30.686
			C375.511,61.917,360.572,89.748,356.146,113.58z"/>
	</g>
</g>
<rect x="194.631" y="48.833" fill="#BCBEC0" stroke="#000000" stroke-width="3" stroke-linejoin="round" width="13.331" height="422.167"/>
<rect x="154.553" y="71.333" fill="#BCBEC0" stroke="#000000" stroke-width="3" stroke-linejoin="round" width="13.33" height="399.667"/>
<ellipse fill="#9D9FA1" stroke="#000000" stroke-width="3" stroke-linejoin="round" cx="161.218" cy="69.75" rx="12.667" ry="6.25"/>
<ellipse fill="#9D9FA1" stroke="#000000" stroke-width="3" stroke-linejoin="round" cx="161.218" cy="54.667" rx="21.083" ry="11.167"/>
<ellipse fill="#9D9FA1" stroke="#000000" stroke-width="3" stroke-linejoin="round" cx="201.296" cy="46.75" rx="12.667" ry="6.25"/>
<ellipse fill="#9D9FA1" stroke="#000000" stroke-width="3" stroke-linejoin="round" cx="201.296" cy="31.667" rx="21.083" ry="11.167"/>
<path fill="#9D9FA1" stroke="#000000" stroke-width="3" stroke-linejoin="round" d="M242,506.667l79.294,1l18.5-49
	c0,0,6,10,31.5,8.5s51.962-27.048,54-62.5c4.5-78.25-40-102.5-40-102.5s70.75,6.25,64,123c-2.282,39.484-36,93-69,95
	s-67.5-7.5-100-6s-35.794,37.5-38.294,54.5h0.339c-2.5-17-5.794-53-38.294-54.5s-67,8-100,6s-66.717-55.516-69-95
	c-6.75-116.75,64-123,64-123s-44.5,24.25-40,102.5c2.039,35.452,28.5,61,54,62.5s31.5-8.5,31.5-8.5l18.5,49l79.294-1H242z"/>
<polyline fill="#BCBEC0" stroke="#000000" stroke-width="3" stroke-linejoin="round" points="333.044,475.917 242,475.917 
	242.339,475.917 151.295,475.917 "/>
<rect x="316.456" y="71.333" fill="#BCBEC0" stroke="#000000" stroke-width="3" stroke-linejoin="round" width="13.33" height="399.667"/>
<rect x="276.377" y="48.833" fill="#BCBEC0" stroke="#000000" stroke-width="3" stroke-linejoin="round" width="13.33" height="422.167"/>
<polygon fill="#BCBEC0" stroke="#000000" stroke-width="3" stroke-linejoin="round" points="244,30.333 248.895,30.333 
	248.895,250.667 248.895,471.001 244,471.001 240.339,471.001 235.444,471.001 235.444,250.667 235.444,30.333 240.339,30.333 "/>
<path fill="#B2B2B2" stroke="#000000" stroke-width="3" stroke-linejoin="round" d="M131.66,145.667h221.019
	c-1.821-7.711-2.885-14.128-2.885-18.5c0-4.337,0.468-9.285,1.437-14.5H133.109c0.968,5.215,1.436,10.163,1.436,14.5
	C134.545,131.539,133.481,137.956,131.66,145.667z"/>
<path fill="#9D9FA1" stroke="#000000" stroke-width="3" stroke-linejoin="round" d="M138.913,117.667
	c0.401,3.306,0.632,6.527,0.632,9.5c0,3.444-0.552,7.898-1.672,13.5c11.397,0,197.195,0,208.593,0
	c-1.12-5.602-1.672-10.056-1.672-13.5c0-2.973,0.23-6.195,0.633-9.5C334.729,117.667,149.61,117.667,138.913,117.667z"/>
<ellipse fill="#9D9FA1" stroke="#000000" stroke-width="3" stroke-linejoin="round" cx="323.121" cy="69.75" rx="12.666" ry="6.25"/>
<ellipse fill="#9D9FA1" stroke="#000000" stroke-width="3" stroke-linejoin="round" cx="323.121" cy="54.667" rx="21.084" ry="11.167"/>
<ellipse fill="#9D9FA1" stroke="#000000" stroke-width="3" stroke-linejoin="round" cx="283.042" cy="46.75" rx="12.667" ry="6.25"/>
<ellipse fill="#9D9FA1" stroke="#000000" stroke-width="3" stroke-linejoin="round" cx="283.042" cy="31.667" rx="21.083" ry="11.167"/>
<path fill="#9D9FA1" stroke="#000000" stroke-width="3" stroke-linejoin="round" d="M242,21.5c6.996,0,10.709,2.798,10.709,6.25
	S248.996,34,242,34h0.339c-6.995,0-10.709-2.798-10.709-6.25s3.714-6.25,10.709-6.25H242z"/>
<path fill="#9D9FA1" stroke="#000000" stroke-width="3" stroke-linejoin="round" d="M242,23.833c11.645,0,19.126-5,19.126-11.167
	C261.126,6.5,253.645,1.5,242,1.5h0.339c-11.644,0-19.126,5-19.126,11.167c0,6.167,7.482,11.167,19.126,11.167H242z"/>
</svg>
