<?xml version="1.0" encoding="utf-8"?>
<!-- Generator: Adobe Illustrator 12.0.0, SVG Export Plug-In . SVG Version: 6.00 Build 51448)  -->
<!DOCTYPE svg PUBLIC "-//W3C//DTD SVG 1.1//EN" "http://www.w3.org/Graphics/SVG/1.1/DTD/svg11.dtd" [
	<!ENTITY ns_svg "http://www.w3.org/2000/svg">
	<!ENTITY ns_xlink "http://www.w3.org/1999/xlink">
]>
<svg  version="1.1" xmlns="&ns_svg;" xmlns:xlink="&ns_xlink;" width="474.92" height="593.9" viewBox="0 0 474.92 593.9"
	 overflow="visible" enable-background="new 0 0 474.92 593.9" xml:space="preserve">
<g id="Layer_4">
</g>
<g id="Layer_3">
	<path fill="#9D9FA1" stroke="#000000" stroke-width="3" stroke-linejoin="round" d="M237.46,20.5c-8.791-6.272-29.799-19-55.696-19
		c-18.11,0-38.656,9.679-58.525,19.039C107.625,27.895,91.479,35.5,81.096,35.5c-20.094,0-26.046-10.368-26.29-10.81
		c-0.123-0.238-3.734-7.228-3.734-7.228l-6.799,4.691C2.925,51.382,2.229,58.344,1.932,61.316
		C1.499,65.647,1.425,195.9,1.563,287.377c0.064,42.898,0.207,104.18,0.521,152.515c0.461,71.14,0.855,71.926,1.906,74.028
		c1.214,2.428,3.688,4.829,9.664,10.507c6.593,6.265,17.627,16.749,20.086,22.933c3.272,8.23,12.173,5.457,15.098,4.545
		c0.539-0.168,1.291-0.398,1.912-0.559c1.321,0.947,3.449,2.604,5.389,4.112c14.229,11.071,43.839,34.108,70.958,34.108
		c25.774,0,48.053-10.505,57.927-15.986c7.239,7.063,23.559,18.819,52.199,18.819h0.477c28.64,0,44.96-11.757,52.199-18.819
		c9.874,5.481,32.152,15.986,57.927,15.986c27.119,0,56.729-23.037,70.959-34.108c1.938-1.509,4.067-3.164,5.389-4.112
		c0.62,0.16,1.372,0.391,1.911,0.559c1.788,0.558,3.638,1.134,5.643,1.243c4.318,0.236,7.941-1.981,9.455-5.788
		c2.459-6.184,13.493-16.668,20.086-22.933c5.976-5.678,8.449-8.079,9.663-10.508c1.052-2.102,1.444-2.888,1.906-74.027
		c0.313-48.336,0.456-109.617,0.521-152.515c0.137-91.478,0.063-221.732-0.369-226.06c-0.297-2.974-0.994-9.935-42.342-39.164
		l-6.756-4.775c0,0-3.654,7.074-3.776,7.312c-0.245,0.443-6.197,10.81-26.29,10.81c-10.384,0-26.528-7.605-42.143-14.961
		C331.813,11.179,311.266,1.5,293.156,1.5C267.259,1.5,246.251,14.227,237.46,20.5z"/>
	<path fill="#BCBEC0" stroke="#000000" stroke-width="3" stroke-linejoin="round" d="M237.222,585.2
		c-36.666,0-50.792-20.833-50.792-20.833s-27,18-59.334,18c-32.333,0-70.666-37.667-74.666-38.334s-10.625,4.125-12,0.667
		c-4.674-11.754-28-30-30-34s-2-442-1.334-448.667c0.667-6.667,39.334-34,39.334-34S55.764,42.7,81.096,42.7
		c25.334,0,69.334-34,100.668-34c31.333,0,55.458,20.667,55.458,20.667h0.477c0,0,24.125-20.667,55.458-20.667
		c31.334,0,75.334,34,100.668,34c25.332,0,32.666-14.667,32.666-14.667s38.667,27.333,39.334,34
		C466.49,68.7,466.49,506.7,464.49,510.7s-25.326,22.246-30,34c-1.375,3.458-8-1.334-12-0.667s-42.333,38.334-74.666,38.334
		c-32.334,0-59.334-18-59.334-18S274.364,585.2,237.698,585.2H237.222z"/>
	<g>
		<g>
			<path fill="#9D9FA1" stroke="#9D9FA1" stroke-width="3" d="M136.806,183.646l-1.724,0.869
				c-7.958,3.77-46.181,19.475-62.592,21.906c-2.731,0.404-4.618,2.947-4.213,5.679c0.404,2.731,2.947,4.618,5.679,4.213
				c19.761-2.927,61.316-20.822,65.408-22.761l2.021-1.016c7.818-4.026,26.125-13.456,63.777-5.283
				c2.699,0.586,5.361-1.127,5.947-3.826s-1.127-5.361-3.826-5.947C166.122,168.546,144.823,179.516,136.806,183.646z"/>
		</g>
		<g>
			<path fill="#9D9FA1" stroke="#9D9FA1" stroke-width="3" d="M144.038,238.368l-4.652,2.494
				c-12.072,5.813-29.599,12.417-42.588,13.523c-2.751,0.234-4.792,2.654-4.558,5.406s2.654,4.792,5.406,4.558
				c18.047-1.536,39.832-11.469,46.078-14.477l5.201-2.779c8.089-4.531,18.156-10.169,38.776-9.396
				c2.76,0.104,5.081-2.05,5.184-4.809c0.104-2.76-2.05-5.081-4.809-5.184C164.646,226.825,152.735,233.497,144.038,238.368z"/>
		</g>
		<g>
			<path fill="#9D9FA1" stroke="#9D9FA1" stroke-width="3" d="M136.806,74.646l-1.724,0.869
				c-7.958,3.77-46.181,19.475-62.592,21.906c-2.731,0.404-4.618,2.947-4.213,5.679c0.404,2.731,2.947,4.618,5.679,4.213
				c19.761-2.927,61.316-20.822,65.408-22.761l2.021-1.016c7.818-4.026,26.125-13.456,63.777-5.283
				c2.699,0.586,5.361-1.127,5.947-3.826s-1.127-5.361-3.826-5.947C166.122,59.546,144.823,70.516,136.806,74.646z"/>
		</g>
		<g>
			<path fill="#9D9FA1" stroke="#9D9FA1" stroke-width="3" d="M144.038,129.368l-4.652,2.494
				c-12.072,5.813-29.599,12.417-42.588,13.523c-2.751,0.234-4.792,2.654-4.558,5.406s2.654,4.792,5.406,4.558
				c18.047-1.536,39.832-11.469,46.078-14.477l5.201-2.779c8.089-4.531,18.156-10.169,38.776-9.396
				c2.76,0.104,5.081-2.05,5.184-4.809c0.104-2.76-2.05-5.081-4.809-5.184C164.646,117.825,152.735,124.497,144.038,129.368z"/>
		</g>
		<g>
			<path fill="#9D9FA1" stroke="#9D9FA1" stroke-width="3" d="M136.806,289.646l-1.724,0.869
				c-7.958,3.771-46.181,19.476-62.592,21.906c-2.731,0.404-4.618,2.946-4.213,5.679c0.404,2.731,2.947,4.617,5.679,4.213
				c19.761-2.928,61.316-20.822,65.408-22.761l2.021-1.017c7.818-4.025,26.125-13.455,63.777-5.282
				c2.699,0.586,5.361-1.127,5.947-3.825c0.586-2.699-1.127-5.361-3.826-5.947C166.122,274.546,144.823,285.516,136.806,289.646z"/>
		</g>
		<g>
			<path fill="#9D9FA1" stroke="#9D9FA1" stroke-width="3" d="M144.038,344.368l-4.652,2.493
				c-12.072,5.813-29.599,12.418-42.588,13.523c-2.751,0.234-4.792,2.654-4.558,5.406c0.234,2.751,2.654,4.792,5.406,4.558
				c18.047-1.536,39.832-11.47,46.078-14.478l5.201-2.778c8.089-4.53,18.156-10.169,38.776-9.396c2.76,0.104,5.081-2.051,5.184-4.81
				c0.104-2.76-2.05-5.081-4.809-5.185C164.646,332.825,152.735,339.496,144.038,344.368z"/>
		</g>
		<g>
			<path fill="#9D9FA1" stroke="#9D9FA1" stroke-width="3" d="M136.806,393.646l-1.724,0.869
				c-7.958,3.771-46.181,19.476-62.592,21.906c-2.731,0.404-4.618,2.946-4.213,5.679c0.404,2.731,2.947,4.617,5.679,4.213
				c19.761-2.928,61.316-20.822,65.408-22.761l2.021-1.017c7.818-4.025,26.125-13.455,63.777-5.282
				c2.699,0.586,5.361-1.127,5.947-3.825c0.586-2.699-1.127-5.361-3.826-5.947C166.122,378.547,144.823,389.516,136.806,393.646z"/>
		</g>
		<g>
			<path fill="#9D9FA1" stroke="#9D9FA1" stroke-width="3" d="M136.806,490.646l-1.724,0.869
				c-7.958,3.771-46.181,19.476-62.592,21.906c-2.731,0.404-4.618,2.946-4.213,5.679c0.404,2.731,2.947,4.617,5.679,4.213
				c19.761-2.928,61.316-20.822,65.408-22.761l2.021-1.017c7.818-4.025,26.125-13.455,63.777-5.282
				c2.699,0.586,5.361-1.127,5.947-3.825c0.586-2.699-1.127-5.361-3.826-5.947C166.122,475.547,144.823,486.516,136.806,490.646z"/>
		</g>
		<g>
			<path fill="#9D9FA1" stroke="#9D9FA1" stroke-width="3" d="M144.038,448.368l-4.652,2.493
				c-12.072,5.813-29.599,12.418-42.588,13.523c-2.751,0.234-4.792,2.654-4.558,5.406c0.234,2.751,2.654,4.792,5.406,4.558
				c18.047-1.536,39.832-11.47,46.078-14.478l5.201-2.778c8.089-4.53,18.156-10.169,38.776-9.396c2.76,0.104,5.081-2.051,5.184-4.81
				c0.104-2.76-2.05-5.081-4.809-5.185C164.646,436.825,152.735,443.496,144.038,448.368z"/>
		</g>
		<g>
			<path fill="#9D9FA1" stroke="#9D9FA1" stroke-width="3" d="M337.573,183.646l1.724,0.869c7.959,3.77,46.182,19.475,62.593,21.906
				c2.731,0.404,4.618,2.947,4.213,5.679c-0.404,2.731-2.946,4.618-5.679,4.213c-19.762-2.927-61.316-20.822-65.408-22.761
				l-2.021-1.016c-7.817-4.026-26.125-13.456-63.777-5.283c-2.698,0.586-5.36-1.127-5.946-3.826s1.127-5.361,3.825-5.947
				C308.257,168.546,329.557,179.516,337.573,183.646z"/>
		</g>
		<g>
			<path fill="#9D9FA1" stroke="#9D9FA1" stroke-width="3" d="M330.341,238.368l4.651,2.494c12.072,5.813,29.6,12.417,42.588,13.523
				c2.752,0.234,4.793,2.654,4.559,5.406s-2.654,4.792-5.406,4.558c-18.047-1.536-39.831-11.469-46.078-14.477l-5.2-2.779
				c-8.089-4.531-18.155-10.169-38.776-9.396c-2.76,0.104-5.08-2.05-5.184-4.809c-0.104-2.76,2.049-5.081,4.809-5.184
				C309.732,226.825,321.645,233.497,330.341,238.368z"/>
		</g>
		<g>
			<path fill="#9D9FA1" stroke="#9D9FA1" stroke-width="3" d="M337.573,74.646l1.724,0.869c7.959,3.77,46.182,19.475,62.593,21.906
				c2.731,0.404,4.618,2.947,4.213,5.679c-0.404,2.731-2.946,4.618-5.679,4.213c-19.762-2.927-61.316-20.822-65.408-22.761
				l-2.021-1.016c-7.817-4.026-26.125-13.456-63.777-5.283c-2.698,0.586-5.36-1.127-5.946-3.826s1.127-5.361,3.825-5.947
				C308.257,59.546,329.557,70.516,337.573,74.646z"/>
		</g>
		<g>
			<path fill="#9D9FA1" stroke="#9D9FA1" stroke-width="3" d="M330.341,129.368l4.651,2.494c12.072,5.813,29.6,12.417,42.588,13.523
				c2.752,0.234,4.793,2.654,4.559,5.406s-2.654,4.792-5.406,4.558c-18.047-1.536-39.831-11.469-46.078-14.477l-5.2-2.779
				c-8.089-4.531-18.155-10.169-38.776-9.396c-2.76,0.104-5.08-2.05-5.184-4.809c-0.104-2.76,2.049-5.081,4.809-5.184
				C309.732,117.825,321.645,124.497,330.341,129.368z"/>
		</g>
		<g>
			<path fill="#9D9FA1" stroke="#9D9FA1" stroke-width="3" d="M337.573,289.646l1.724,0.869
				c7.959,3.771,46.182,19.476,62.593,21.906c2.731,0.404,4.618,2.946,4.213,5.679c-0.404,2.731-2.946,4.617-5.679,4.213
				c-19.762-2.928-61.316-20.822-65.408-22.761l-2.021-1.017c-7.817-4.025-26.125-13.455-63.777-5.282
				c-2.698,0.586-5.36-1.127-5.946-3.825c-0.586-2.699,1.127-5.361,3.825-5.947C308.257,274.546,329.557,285.516,337.573,289.646z"
				/>
		</g>
		<g>
			<path fill="#9D9FA1" stroke="#9D9FA1" stroke-width="3" d="M330.341,344.368l4.651,2.493c12.072,5.813,29.6,12.418,42.588,13.523
				c2.752,0.234,4.793,2.654,4.559,5.406c-0.234,2.751-2.654,4.792-5.406,4.558c-18.047-1.536-39.831-11.47-46.078-14.478
				l-5.2-2.778c-8.089-4.53-18.155-10.169-38.776-9.396c-2.76,0.104-5.08-2.051-5.184-4.81c-0.104-2.76,2.049-5.081,4.809-5.185
				C309.732,332.825,321.645,339.496,330.341,344.368z"/>
		</g>
		<g>
			<path fill="#9D9FA1" stroke="#9D9FA1" stroke-width="3" d="M337.573,393.646l1.724,0.869
				c7.959,3.771,46.182,19.476,62.593,21.906c2.731,0.404,4.618,2.946,4.213,5.679c-0.404,2.731-2.946,4.617-5.679,4.213
				c-19.762-2.928-61.316-20.822-65.408-22.761l-2.021-1.017c-7.817-4.025-26.125-13.455-63.777-5.282
				c-2.698,0.586-5.36-1.127-5.946-3.825c-0.586-2.699,1.127-5.361,3.825-5.947C308.257,378.547,329.557,389.516,337.573,393.646z"
				/>
		</g>
		<g>
			<path fill="#9D9FA1" stroke="#9D9FA1" stroke-width="3" d="M337.573,490.646l1.724,0.869
				c7.959,3.771,46.182,19.476,62.593,21.906c2.731,0.404,4.618,2.946,4.213,5.679c-0.404,2.731-2.946,4.617-5.679,4.213
				c-19.762-2.928-61.316-20.822-65.408-22.761l-2.021-1.017c-7.817-4.025-26.125-13.455-63.777-5.282
				c-2.698,0.586-5.36-1.127-5.946-3.825c-0.586-2.699,1.127-5.361,3.825-5.947C308.257,475.547,329.557,486.516,337.573,490.646z"
				/>
		</g>
		<g>
			<path fill="#9D9FA1" stroke="#9D9FA1" stroke-width="3" d="M330.341,448.368l4.651,2.493c12.072,5.813,29.6,12.418,42.588,13.523
				c2.752,0.234,4.793,2.654,4.559,5.406c-0.234,2.751-2.654,4.792-5.406,4.558c-18.047-1.536-39.831-11.47-46.078-14.478
				l-5.2-2.778c-8.089-4.53-18.155-10.169-38.776-9.396c-2.76,0.104-5.08-2.051-5.184-4.81c-0.104-2.76,2.049-5.081,4.809-5.185
				C309.732,436.825,321.645,443.496,330.341,448.368z"/>
		</g>
	</g>
	<g>
		<g>
			<path fill="#9D9FA1" stroke="#000000" stroke-width="3" d="M136.806,179.646l-1.724,0.869
				c-7.958,3.77-46.181,19.475-62.592,21.906c-2.731,0.404-4.618,2.947-4.213,5.679c0.404,2.731,2.947,4.618,5.679,4.213
				c19.761-2.927,61.316-20.822,65.408-22.761l2.021-1.016c7.818-4.026,26.125-13.456,63.777-5.283
				c2.699,0.586,5.361-1.127,5.947-3.826s-1.127-5.361-3.826-5.947C166.122,164.546,144.823,175.516,136.806,179.646z"/>
		</g>
		<g>
			<path fill="#9D9FA1" stroke="#000000" stroke-width="3" d="M144.038,234.368l-4.652,2.494
				c-12.072,5.813-29.599,12.417-42.588,13.523c-2.751,0.234-4.792,2.654-4.558,5.406s2.654,4.792,5.406,4.558
				c18.047-1.536,39.832-11.469,46.078-14.477l5.201-2.779c8.089-4.531,18.156-10.169,38.776-9.396
				c2.76,0.104,5.081-2.05,5.184-4.809c0.104-2.76-2.05-5.081-4.809-5.184C164.646,222.825,152.735,229.497,144.038,234.368z"/>
		</g>
		<g>
			<path fill="#9D9FA1" stroke="#000000" stroke-width="3" d="M136.806,70.646l-1.724,0.869
				c-7.958,3.77-46.181,19.475-62.592,21.906c-2.731,0.404-4.618,2.947-4.213,5.679c0.404,2.731,2.947,4.618,5.679,4.213
				c19.761-2.927,61.316-20.822,65.408-22.761l2.021-1.016c7.818-4.026,26.125-13.456,63.777-5.283
				c2.699,0.586,5.361-1.127,5.947-3.826s-1.127-5.361-3.826-5.947C166.122,55.546,144.823,66.516,136.806,70.646z"/>
		</g>
		<g>
			<path fill="#9D9FA1" stroke="#000000" stroke-width="3" d="M144.038,125.368l-4.652,2.494
				c-12.072,5.813-29.599,12.417-42.588,13.523c-2.751,0.234-4.792,2.654-4.558,5.406s2.654,4.792,5.406,4.558
				c18.047-1.536,39.832-11.469,46.078-14.477l5.201-2.779c8.089-4.531,18.156-10.169,38.776-9.396
				c2.76,0.104,5.081-2.05,5.184-4.809c0.104-2.76-2.05-5.081-4.809-5.184C164.646,113.825,152.735,120.497,144.038,125.368z"/>
		</g>
		<g>
			<path fill="#9D9FA1" stroke="#000000" stroke-width="3" d="M136.806,285.646l-1.724,0.869
				c-7.958,3.771-46.181,19.476-62.592,21.906c-2.731,0.404-4.618,2.946-4.213,5.679c0.404,2.731,2.947,4.617,5.679,4.213
				c19.761-2.928,61.316-20.822,65.408-22.761l2.021-1.017c7.818-4.025,26.125-13.455,63.777-5.282
				c2.699,0.586,5.361-1.127,5.947-3.825c0.586-2.699-1.127-5.361-3.826-5.947C166.122,270.546,144.823,281.516,136.806,285.646z"/>
		</g>
		<g>
			<path fill="#9D9FA1" stroke="#000000" stroke-width="3" d="M144.038,340.368l-4.652,2.493
				c-12.072,5.813-29.599,12.418-42.588,13.523c-2.751,0.234-4.792,2.654-4.558,5.406c0.234,2.751,2.654,4.792,5.406,4.558
				c18.047-1.536,39.832-11.47,46.078-14.478l5.201-2.778c8.089-4.53,18.156-10.169,38.776-9.396c2.76,0.104,5.081-2.051,5.184-4.81
				c0.104-2.76-2.05-5.081-4.809-5.185C164.646,328.825,152.735,335.496,144.038,340.368z"/>
		</g>
		<g>
			<path fill="#9D9FA1" stroke="#000000" stroke-width="3" d="M136.806,389.646l-1.724,0.869
				c-7.958,3.771-46.181,19.476-62.592,21.906c-2.731,0.404-4.618,2.946-4.213,5.679c0.404,2.731,2.947,4.617,5.679,4.213
				c19.761-2.928,61.316-20.822,65.408-22.761l2.021-1.017c7.818-4.025,26.125-13.455,63.777-5.282
				c2.699,0.586,5.361-1.127,5.947-3.825c0.586-2.699-1.127-5.361-3.826-5.947C166.122,374.547,144.823,385.516,136.806,389.646z"/>
		</g>
		<g>
			<path fill="#9D9FA1" stroke="#000000" stroke-width="3" d="M136.806,486.646l-1.724,0.869
				c-7.958,3.771-46.181,19.476-62.592,21.906c-2.731,0.404-4.618,2.946-4.213,5.679c0.404,2.731,2.947,4.617,5.679,4.213
				c19.761-2.928,61.316-20.822,65.408-22.761l2.021-1.017c7.818-4.025,26.125-13.455,63.777-5.282
				c2.699,0.586,5.361-1.127,5.947-3.825c0.586-2.699-1.127-5.361-3.826-5.947C166.122,471.547,144.823,482.516,136.806,486.646z"/>
		</g>
		<g>
			<path fill="#9D9FA1" stroke="#000000" stroke-width="3" d="M144.038,444.368l-4.652,2.493
				c-12.072,5.813-29.599,12.418-42.588,13.523c-2.751,0.234-4.792,2.654-4.558,5.406c0.234,2.751,2.654,4.792,5.406,4.558
				c18.047-1.536,39.832-11.47,46.078-14.478l5.201-2.778c8.089-4.53,18.156-10.169,38.776-9.396c2.76,0.104,5.081-2.051,5.184-4.81
				c0.104-2.76-2.05-5.081-4.809-5.185C164.646,432.825,152.735,439.496,144.038,444.368z"/>
		</g>
		<g>
			<path fill="#9D9FA1" stroke="#000000" stroke-width="3" d="M337.573,179.646l1.724,0.869c7.959,3.77,46.182,19.475,62.593,21.906
				c2.731,0.404,4.618,2.947,4.213,5.679c-0.404,2.731-2.946,4.618-5.679,4.213c-19.762-2.927-61.316-20.822-65.408-22.761
				l-2.021-1.016c-7.817-4.026-26.125-13.456-63.777-5.283c-2.698,0.586-5.36-1.127-5.946-3.826s1.127-5.361,3.825-5.947
				C308.257,164.546,329.557,175.516,337.573,179.646z"/>
		</g>
		<g>
			<path fill="#9D9FA1" stroke="#000000" stroke-width="3" d="M330.341,234.368l4.651,2.494c12.072,5.813,29.6,12.417,42.588,13.523
				c2.752,0.234,4.793,2.654,4.559,5.406s-2.654,4.792-5.406,4.558c-18.047-1.536-39.831-11.469-46.078-14.477l-5.2-2.779
				c-8.089-4.531-18.155-10.169-38.776-9.396c-2.76,0.104-5.08-2.05-5.184-4.809c-0.104-2.76,2.049-5.081,4.809-5.184
				C309.732,222.825,321.645,229.497,330.341,234.368z"/>
		</g>
		<g>
			<path fill="#9D9FA1" stroke="#000000" stroke-width="3" d="M337.573,70.646l1.724,0.869c7.959,3.77,46.182,19.475,62.593,21.906
				c2.731,0.404,4.618,2.947,4.213,5.679c-0.404,2.731-2.946,4.618-5.679,4.213c-19.762-2.927-61.316-20.822-65.408-22.761
				l-2.021-1.016c-7.817-4.026-26.125-13.456-63.777-5.283c-2.698,0.586-5.36-1.127-5.946-3.826s1.127-5.361,3.825-5.947
				C308.257,55.546,329.557,66.516,337.573,70.646z"/>
		</g>
		<g>
			<path fill="#9D9FA1" stroke="#000000" stroke-width="3" d="M330.341,125.368l4.651,2.494c12.072,5.813,29.6,12.417,42.588,13.523
				c2.752,0.234,4.793,2.654,4.559,5.406s-2.654,4.792-5.406,4.558c-18.047-1.536-39.831-11.469-46.078-14.477l-5.2-2.779
				c-8.089-4.531-18.155-10.169-38.776-9.396c-2.76,0.104-5.08-2.05-5.184-4.809c-0.104-2.76,2.049-5.081,4.809-5.184
				C309.732,113.825,321.645,120.497,330.341,125.368z"/>
		</g>
		<g>
			<path fill="#9D9FA1" stroke="#000000" stroke-width="3" d="M337.573,285.646l1.724,0.869
				c7.959,3.771,46.182,19.476,62.593,21.906c2.731,0.404,4.618,2.946,4.213,5.679c-0.404,2.731-2.946,4.617-5.679,4.213
				c-19.762-2.928-61.316-20.822-65.408-22.761l-2.021-1.017c-7.817-4.025-26.125-13.455-63.777-5.282
				c-2.698,0.586-5.36-1.127-5.946-3.825c-0.586-2.699,1.127-5.361,3.825-5.947C308.257,270.546,329.557,281.516,337.573,285.646z"
				/>
		</g>
		<g>
			<path fill="#9D9FA1" stroke="#000000" stroke-width="3" d="M330.341,340.368l4.651,2.493c12.072,5.813,29.6,12.418,42.588,13.523
				c2.752,0.234,4.793,2.654,4.559,5.406c-0.234,2.751-2.654,4.792-5.406,4.558c-18.047-1.536-39.831-11.47-46.078-14.478
				l-5.2-2.778c-8.089-4.53-18.155-10.169-38.776-9.396c-2.76,0.104-5.08-2.051-5.184-4.81c-0.104-2.76,2.049-5.081,4.809-5.185
				C309.732,328.825,321.645,335.496,330.341,340.368z"/>
		</g>
		<g>
			<path fill="#9D9FA1" stroke="#000000" stroke-width="3" d="M337.573,389.646l1.724,0.869
				c7.959,3.771,46.182,19.476,62.593,21.906c2.731,0.404,4.618,2.946,4.213,5.679c-0.404,2.731-2.946,4.617-5.679,4.213
				c-19.762-2.928-61.316-20.822-65.408-22.761l-2.021-1.017c-7.817-4.025-26.125-13.455-63.777-5.282
				c-2.698,0.586-5.36-1.127-5.946-3.825c-0.586-2.699,1.127-5.361,3.825-5.947C308.257,374.547,329.557,385.516,337.573,389.646z"
				/>
		</g>
		<g>
			<path fill="#9D9FA1" stroke="#000000" stroke-width="3" d="M337.573,486.646l1.724,0.869
				c7.959,3.771,46.182,19.476,62.593,21.906c2.731,0.404,4.618,2.946,4.213,5.679c-0.404,2.731-2.946,4.617-5.679,4.213
				c-19.762-2.928-61.316-20.822-65.408-22.761l-2.021-1.017c-7.817-4.025-26.125-13.455-63.777-5.282
				c-2.698,0.586-5.36-1.127-5.946-3.825c-0.586-2.699,1.127-5.361,3.825-5.947C308.257,471.547,329.557,482.516,337.573,486.646z"
				/>
		</g>
		<g>
			<path fill="#9D9FA1" stroke="#000000" stroke-width="3" d="M330.341,444.368l4.651,2.493c12.072,5.813,29.6,12.418,42.588,13.523
				c2.752,0.234,4.793,2.654,4.559,5.406c-0.234,2.751-2.654,4.792-5.406,4.558c-18.047-1.536-39.831-11.47-46.078-14.478
				l-5.2-2.778c-8.089-4.53-18.155-10.169-38.776-9.396c-2.76,0.104-5.08-2.051-5.184-4.81c-0.104-2.76,2.049-5.081,4.809-5.185
				C309.732,432.825,321.645,439.496,330.341,444.368z"/>
		</g>
	</g>
	<g>
		<rect x="233.514" y="19.846" width="8" height="572.854"/>
	</g>
</g>
<g id="Layer_2">
</g>
<g id="Layer_1">
</g>
</svg>
