<?xml version="1.0" encoding="utf-8"?>
<!-- Generator: Adobe Illustrator 12.0.0, SVG Export Plug-In . SVG Version: 6.00 Build 51448)  -->
<!DOCTYPE svg PUBLIC "-//W3C//DTD SVG 1.1//EN" "http://www.w3.org/Graphics/SVG/1.1/DTD/svg11.dtd" [
	<!ENTITY ns_svg "http://www.w3.org/2000/svg">
	<!ENTITY ns_xlink "http://www.w3.org/1999/xlink">
]>
<svg  version="1.1" xmlns="&ns_svg;" xmlns:xlink="&ns_xlink;" width="404.124" height="417.336" viewBox="0 0 404.124 417.336"
	 overflow="visible" enable-background="new 0 0 404.124 417.336" xml:space="preserve">
<g id="Layer_2">
	<path fill="#8C8C8C" stroke="#000000" stroke-width="3" d="M221.005,415.521c0-10.979-8.751-19.772-19.729-19.772
		c-10.979,0-20.361,8.835-20.361,19.813L1.623,415.834c0,0-1.833-28.834,8.667-37.334s36.618-15.829,41-23
		c5.5-9,3.75-24.166,3.75-24.166h53.5l0-6.251c0,0,13.083-0.75,17.083-6.416c3.792-5.371,3.083-17.417,3.083-17.417l17.583-0.083
		V80.5l16.625-13.75l-0.125-8.25h18.063l0,0c-7.225-5.891-11.563-14.826-11.563-24.875c0-17.742,15.03-32.125,32.772-32.125
		c17.742,0,32.772,14.383,32.772,32.125c0,10.049-4.338,18.984-11.563,24.875l0,0h18.063l-0.125,8.25l16.625,13.75v220.667
		l17.583,0.083c0,0-0.709,12.046,3.084,17.417c4,5.666,17.083,6.416,17.083,6.416l-0.001,6.251h53.501c0,0-1.75,15.166,3.75,24.166
		c4.382,7.171,30.5,14.5,41,23s8.667,37.334,8.667,37.334L221.005,415.521z"/>
	<path fill="#B2B2B2" stroke="#000000" stroke-width="3" d="M201.904,382.249c12.213,0,23.877,6.504,29.949,16.251l154.676,0.18
		c0,0,2.669-9.176-7.01-17.18c-9.678-8.005-28.231-7.654-33.5-13.5c-12.167-13.5-11.726-22.395-11.726-22.395h-49.312l0.037-5.98
		c0,0-12.901-4.913-17.833-9.125c-5.417-4.625-9.042-15.875-9.042-15.875l-11.625,0.042l0.25-220.583l-18.375-18.125v-4.333
		l-26.49,0.125l-26.49-0.125v4.333L157.04,94.083l0.25,220.583l-11.625-0.042c0,0-3.625,11.25-9.042,15.875
		c-4.933,4.212-17.833,9.125-17.833,9.125l0.037,5.98H69.515c0,0,0.442,8.895-11.725,22.395c-5.268,5.846-23.822,5.495-33.5,13.5
		c-9.678,8.004-7.01,17.18-7.01,17.18l154.676-0.18C178.027,388.753,189.691,382.249,201.904,382.249z"/>
	<path fill="#B2B2B2" stroke="#000000" stroke-width="3" d="M201.277,52.9c10.646,0,19.138-8.629,19.138-19.275
		c0-10.645-8.492-19.275-19.138-19.275s-19.138,8.63-19.138,19.275C182.139,44.271,190.631,52.9,201.277,52.9z"/>
	<line fill="none" stroke="#000000" stroke-width="5" stroke-linecap="round" x1="201.277" y1="33.625" x2="201.277" y2="406.5"/>
	<path fill="#3F3F3F" stroke="#000000" stroke-width="2" d="M201.277,38.444c2.661,0,4.784-2.158,4.784-4.819
		s-2.123-4.819-4.784-4.819c-2.662,0-4.785,2.158-4.785,4.819S198.615,38.444,201.277,38.444z"/>
	<path fill="#3F3F3F" stroke="#000000" stroke-width="2" d="M201.277,414.853c3.992,0,7.177-3.235,7.177-7.228
		s-3.185-7.228-7.177-7.228c-3.992,0-7.177,3.235-7.177,7.228S197.285,414.853,201.277,414.853z"/>
</g>
<g id="Layer_3">
</g>
</svg>
