<?xml version="1.0" encoding="utf-8"?>
<!-- Generator: Adobe Illustrator 12.0.0, SVG Export Plug-In . SVG Version: 6.00 Build 51448)  -->
<!DOCTYPE svg PUBLIC "-//W3C//DTD SVG 1.1//EN" "http://www.w3.org/Graphics/SVG/1.1/DTD/svg11.dtd" [
	<!ENTITY ns_svg "http://www.w3.org/2000/svg">
	<!ENTITY ns_xlink "http://www.w3.org/1999/xlink">
]>
<svg  version="1.1" id="Layer_1" xmlns="&ns_svg;" xmlns:xlink="&ns_xlink;" width="553.246" height="587.119"
	 viewBox="0 0 553.246 587.119" overflow="visible" enable-background="new 0 0 553.246 587.119" xml:space="preserve">
<g>
	<polyline fill="#BCBEC0" stroke="#000000" stroke-width="3" points="470.473,519.286 502.807,494.619 483.141,464.953 
		444.141,490.619 	"/>
	<polyline fill="#BCBEC0" stroke="#000000" stroke-width="3" points="464.473,558.619 489.807,536.953 437.141,462.286 
		408.473,483.953 	"/>
	<path fill="#BCBEC0" stroke="#000000" stroke-width="3" d="M152.474,140.953c0,0,8,3.334,15.333-1.333s19.333-23.334,13.333-30.667
		s-23.333,2.667-23.333,2.667l-41.333,28.667c0,0-10.667,10.667-2.667,18.667s22.666-0.666,27.333-3.333s6-11.333,6-11.333
		L152.474,140.953z"/>
	<path fill="#BCBEC0" stroke="#000000" stroke-width="3" d="M19.14,141.62c13.333,18,69.334,34.667,126-12s66-96,48-113.333
		s-61.333-20.667-84.666-3.333S85.807,49.62,85.807,49.62s-20-10-52,18.667C21.848,78.999,5.807,123.62,19.14,141.62z
		 M52.474,76.286c19.333-16.667,40.667-3.333,52,6.667s6.666-3.333,6.666-3.333s-20-30.667,4.667-48s43.333-8.667,52,1.333
		s18.667,44.667-31.333,80.667s-78.666,26-88,12.667S33.141,92.953,52.474,76.286z"/>
	<path fill="#BCBEC0" stroke="#000000" stroke-width="3" d="M145.057,159.661l0.005-0.003c-2.032-2.771-3.255-6.25-3.255-10.039
		c0-9.021,6.865-16.333,15.334-16.333c6.139,0,11.42,3.853,13.869,9.404l303.16,414.583c3.049,2.985,4.971,7.254,4.971,12.013
		c0,9.021-6.865,16.334-15.334,16.334c-5.086,0-9.58-2.649-12.371-6.711l-0.004,0.003L145.327,160.029
		c-0.028-0.035-0.053-0.073-0.08-0.108L145.057,159.661z"/>
	<polygon fill="#BCBEC0" stroke="#000000" stroke-width="3" points="514.473,521.286 458.473,445.953 496.473,418.953 
		518.141,449.286 495.473,463.953 512.807,486.619 533.473,470.286 551.141,493.286 	"/>
	<polyline fill="#BCBEC0" stroke="#000000" stroke-width="3" points="82.772,519.286 50.439,494.619 70.106,464.953 
		109.106,490.619 	"/>
	<polyline fill="#BCBEC0" stroke="#000000" stroke-width="3" points="88.772,558.619 63.439,536.953 116.106,462.286 
		144.772,483.953 	"/>
	<path fill="#BCBEC0" stroke="#000000" stroke-width="3" d="M400.771,140.953c0,0-8,3.334-15.332-1.333
		c-7.334-4.667-19.334-23.334-13.334-30.667s23.334,2.667,23.334,2.667l41.332,28.667c0,0,10.668,10.667,2.668,18.667
		s-22.666-0.666-27.334-3.333c-4.666-2.667-6-11.333-6-11.333L400.771,140.953z"/>
	<path fill="#BCBEC0" stroke="#000000" stroke-width="3" d="M519.439,68.286c-32-28.667-52-18.667-52-18.667
		s0.666-19.334-22.668-36.667c-23.332-17.333-66.666-14-84.666,3.333s-8.666,66.667,48,113.333s112.668,30,126,12
		C547.439,123.62,531.398,78.999,519.439,68.286z M504.771,126.286c-9.334,13.333-38,23.333-88-12.667s-40-70.667-31.332-80.667
		c8.666-10,27.332-18.667,52-1.333c24.666,17.333,4.666,48,4.666,48s-4.666,13.333,6.666,3.333c11.334-10,32.668-23.333,52-6.667
		C520.105,92.953,514.105,112.953,504.771,126.286z"/>
	<path fill="#BCBEC0" stroke="#000000" stroke-width="3" d="M408.189,159.661l-0.006-0.003c2.033-2.771,3.256-6.25,3.256-10.039
		c0-9.021-6.865-16.333-15.334-16.333c-6.139,0-11.42,3.853-13.869,9.404L79.076,557.272c-3.048,2.985-4.97,7.254-4.97,12.013
		c0,9.021,6.865,16.334,15.333,16.334c5.086,0,9.581-2.649,12.371-6.711l0.004,0.003L407.92,160.029
		c0.027-0.035,0.053-0.073,0.08-0.108L408.189,159.661z"/>
	<polygon fill="#BCBEC0" stroke="#000000" stroke-width="3" points="38.772,521.286 94.772,445.953 56.772,418.953 35.106,449.286 
		57.772,463.953 40.439,486.619 19.772,470.286 2.106,493.286 	"/>
</g>
</svg>
