<?xml version="1.0" encoding="utf-8"?>
<!-- Generator: Adobe Illustrator 12.0.0, SVG Export Plug-In . SVG Version: 6.00 Build 51448)  -->
<!DOCTYPE svg PUBLIC "-//W3C//DTD SVG 1.1//EN" "http://www.w3.org/Graphics/SVG/1.1/DTD/svg11.dtd" [
	<!ENTITY ns_svg "http://www.w3.org/2000/svg">
	<!ENTITY ns_xlink "http://www.w3.org/1999/xlink">
]>
<svg  version="1.1" xmlns="&ns_svg;" xmlns:xlink="&ns_xlink;" width="552.826" height="294.656" viewBox="0 0 552.826 294.656"
	 overflow="visible" enable-background="new 0 0 552.826 294.656" xml:space="preserve">
<g id="Layer_4">
</g>
<g id="Layer_3">
	<g>
		<polyline fill="#BCBEC0" stroke="#000000" stroke-width="3" stroke-linejoin="round" points="428.618,235.906 113.612,89.015 
			120.436,74.381 127.259,59.748 442.266,206.638 		"/>
		<polyline fill="none" stroke="#9D9FA1" stroke-width="3" stroke-linejoin="round" points="429.898,233.353 114.579,86.317 
			125.813,62.224 441.134,209.26 		"/>
		<path fill="#BCBEC0" stroke="#000000" stroke-width="3" stroke-linejoin="round" d="M70.562,56.147c0,0-3.802,9.237-5.273,10.839
			s-7.796,4.606-10.07,1.914c-2.273-2.693-3.549-3.229-15.059-8.879c-11.51-5.651-12.484,5.033-27.709-2.871
			c-15.226-7.906-11.35-25.737-7.379-35.949c5.28-9.637,16.555-24.222,32.727-18.348c16.172,5.873,8.548,13.64,20.522,18.294
			c11.974,4.654,13.23,5.23,16.816,5.108c3.586-0.122,5.439,6.471,5.17,8.601C80.037,36.984,75.4,45.857,75.4,45.857L70.562,56.147z
			"/>
		<path fill="none" stroke="#9D9FA1" stroke-width="3" stroke-linejoin="round" d="M36.773,5.673L36.773,5.673
			C22.516,0.496,12.534,13.89,7.798,22.473c-3.497,9.076-7.26,25.112,6.035,32.016c7.159,3.716,10.279,2.838,13.892,1.821
			c3.48-0.979,7.425-2.09,13.757,1.019l1.787,0.877c10.13,4.969,11.687,5.732,14.243,8.761c0.872,0.428,4.578-0.973,5.569-2.01
			c0.656-0.792,2.776-5.266,4.707-9.95l0.028-0.067l4.897-10.414l0.029-0.056c2.049-3.922,4.384-8.885,4.593-10.019
			c0.125-1.309-1.22-4.878-2.148-5.202c-3.956,0.144-5.574-0.486-16.104-4.584l-1.849-0.719c-6.615-2.571-8.375-6.206-9.927-9.413
			C45.72,11.255,44.35,8.425,36.773,5.673z"/>
		<circle fill="#BCBEC0" stroke="#000000" stroke-width="3" stroke-linejoin="round" cx="96.859" cy="63.388" r="22.25"/>
		<path fill="none" stroke="#9D9FA1" stroke-width="3" stroke-linejoin="round" d="M79.413,55.252
			c-4.486,9.62-0.309,21.096,9.311,25.582c9.62,4.485,21.096,0.309,25.582-9.311c4.485-9.62,0.309-21.096-9.311-25.582
			C95.375,41.456,83.898,45.633,79.413,55.252z"/>
		<path fill="#9D9FA1" stroke="#000000" stroke-width="3" stroke-linejoin="round" d="M74.161,70.458
			c-1.268,2.719-2.566,4.32-5.889,2.771l-0.755-0.352c-3.324-1.55-2.931-3.573-1.663-6.292l13.523-29.002
			c1.268-2.719,2.566-4.321,5.89-2.771l0.755,0.352c3.323,1.55,2.931,3.574,1.663,6.292L74.161,70.458z"/>
		<path fill="#9D9FA1" stroke="#000000" stroke-width="3" stroke-linejoin="round" d="M114.038,89.053
			c-1.268,2.719-2.566,4.32-5.889,2.771l-0.755-0.352c-3.323-1.55-2.931-3.573-1.663-6.292l13.524-29.001
			c1.268-2.719,2.565-4.321,5.889-2.771l0.755,0.352c3.323,1.55,2.931,3.574,1.663,6.292L114.038,89.053z"/>
		<g>
			<path fill="#BCBEC0" stroke="#000000" stroke-width="3" stroke-linejoin="round" d="M478.418,246.333
				c0,0-4.632,8.852-4.913,11.008c-0.281,2.157,1.481,8.933,5.006,8.943c3.525,0.011,4.756,0.644,16.481,5.828
				c11.728,5.185,4.169,12.799,20.011,19.381c15.844,6.582,27.012-7.849,32.282-17.454c3.988-10.239,7.914-28.251-6.98-36.864
				s-15.943,2.22-27.206-3.962c-11.262-6.18-12.511-6.772-14.722-9.598c-2.212-2.825-8.452-0.007-9.912,1.567
				c-1.458,1.575-5.274,10.829-5.274,10.829L478.418,246.333z"/>
			<path fill="none" stroke="#9D9FA1" stroke-width="3" stroke-linejoin="round" d="M538.802,239.773L538.802,239.773
				c13.131,7.593,9.286,23.85,5.757,32.995c-4.706,8.512-14.571,21.703-28.405,15.956c-7.448-3.095-8.781-6.05-10.325-9.472
				c-1.486-3.296-3.171-7.03-9.623-9.883l-1.819-0.805c-10.318-4.566-11.903-5.269-15.867-5.279
				c-0.888-0.394-2.197-4.133-2.039-5.559c0.186-1.012,2.249-5.512,4.597-10.001l0.033-0.065l4.83-10.446l0.024-0.058
				c1.688-4.092,3.988-9.069,4.723-9.959c0.922-0.937,4.521-2.2,5.365-1.697c2.434,3.122,3.956,3.957,13.864,9.39l1.738,0.954
				c6.222,3.414,10.138,2.426,13.591,1.554C528.775,236.507,531.823,235.738,538.802,239.773z"/>
			<circle fill="#BCBEC0" stroke="#000000" stroke-width="3" stroke-linejoin="round" cx="455.967" cy="230.843" r="22.25"/>
			<path fill="none" stroke="#9D9FA1" stroke-width="3" stroke-linejoin="round" d="M473.414,238.979
				c-4.486,9.619-15.962,13.797-25.582,9.311c-9.62-4.485-13.797-15.962-9.311-25.581c4.485-9.62,15.962-13.797,25.581-9.312
				C473.723,217.882,477.899,229.358,473.414,238.979z"/>
			<path fill="#9D9FA1" stroke="#000000" stroke-width="3" stroke-linejoin="round" d="M465.143,252.775
				c-1.269,2.719-1.661,4.742,1.663,6.292l0.754,0.352c3.324,1.551,4.622-0.051,5.89-2.771l13.524-29.001
				c1.268-2.72,1.66-4.743-1.664-6.293l-0.754-0.352c-3.324-1.55-4.622,0.052-5.89,2.771L465.143,252.775z"/>
			<path fill="#9D9FA1" stroke="#000000" stroke-width="3" stroke-linejoin="round" d="M425.265,234.18
				c-1.268,2.719-1.661,4.743,1.663,6.293l0.755,0.352c3.324,1.55,4.621-0.052,5.89-2.771l13.523-29.002
				c1.268-2.719,1.661-4.742-1.663-6.293l-0.755-0.352c-3.324-1.55-4.621,0.052-5.89,2.771L425.265,234.18z"/>
		</g>
	</g>
	<g>
		<polyline fill="#BCBEC0" stroke="#000000" stroke-width="3" stroke-linejoin="round" points="442.266,87.593 127.258,234.482 
			120.435,219.849 113.611,205.215 428.617,58.325 		"/>
		<polyline fill="none" stroke="#9D9FA1" stroke-width="3" stroke-linejoin="round" points="441.133,84.971 125.813,232.007 
			114.579,207.914 429.898,60.878 		"/>
		<path fill="#BCBEC0" stroke="#000000" stroke-width="3" stroke-linejoin="round" d="M74.408,246.334c0,0,4.632,8.851,4.914,11.007
			c0.282,2.157-1.482,8.933-5.007,8.943c-3.525,0.011-4.755,0.644-16.481,5.828c-11.728,5.185-4.169,12.799-20.011,19.381
			c-15.843,6.582-27.011-7.849-32.282-17.454c-3.988-10.239-7.914-28.251,6.981-36.864c14.894-8.613,15.943,2.22,27.206-3.962
			c11.262-6.181,12.511-6.772,14.722-9.598c2.212-2.825,8.453-0.008,9.912,1.567s5.275,10.83,5.275,10.83L74.408,246.334z"/>
		<path fill="none" stroke="#9D9FA1" stroke-width="3" stroke-linejoin="round" d="M14.024,239.773L14.024,239.773
			c-13.13,7.593-9.286,23.85-5.756,32.994c4.705,8.513,14.57,21.704,28.405,15.957c7.448-3.095,8.781-6.05,10.325-9.472
			c1.487-3.296,3.171-7.031,9.623-9.883l1.82-0.806c10.317-4.565,11.903-5.268,15.866-5.278c0.888-0.394,2.198-4.133,2.04-5.559
			c-0.186-1.012-2.25-5.512-4.597-10.002l-0.033-0.064l-4.83-10.445l-0.024-0.059c-1.688-4.092-3.988-9.069-4.723-9.959
			c-0.922-0.937-4.521-2.2-5.366-1.697c-2.433,3.122-3.956,3.957-13.863,9.39l-1.739,0.954c-6.222,3.414-10.137,2.426-13.591,1.554
			C24.05,236.508,21.003,235.738,14.024,239.773z"/>
		<circle fill="#BCBEC0" stroke="#000000" stroke-width="3" stroke-linejoin="round" cx="96.859" cy="230.843" r="22.25"/>
		<path fill="none" stroke="#9D9FA1" stroke-width="3" stroke-linejoin="round" d="M79.412,238.979
			c4.486,9.619,15.962,13.797,25.582,9.311c9.62-4.485,13.796-15.962,9.311-25.582c-4.486-9.619-15.962-13.796-25.582-9.311
			S74.926,229.358,79.412,238.979z"/>
		<path fill="#9D9FA1" stroke="#000000" stroke-width="3" stroke-linejoin="round" d="M87.684,252.775
			c1.268,2.719,1.66,4.742-1.663,6.292l-0.755,0.353c-3.324,1.55-4.622-0.052-5.89-2.771l-13.523-29.001
			c-1.268-2.72-1.661-4.743,1.663-6.293l0.755-0.352c3.323-1.55,4.621,0.052,5.889,2.771L87.684,252.775z"/>
		<path fill="#9D9FA1" stroke="#000000" stroke-width="3" stroke-linejoin="round" d="M127.562,234.18
			c1.268,2.719,1.66,4.743-1.663,6.293l-0.755,0.352c-3.324,1.55-4.622-0.052-5.889-2.771l-13.524-29.002
			c-1.268-2.719-1.661-4.742,1.663-6.293l0.755-0.352c3.323-1.55,4.622,0.052,5.889,2.771L127.562,234.18z"/>
		<g>
			<path fill="#BCBEC0" stroke="#000000" stroke-width="3" stroke-linejoin="round" d="M482.265,56.147
				c0,0,3.803,9.237,5.274,10.839c1.471,1.602,7.795,4.606,10.068,1.914c2.273-2.693,3.55-3.229,15.059-8.879
				c11.51-5.651,12.484,5.033,27.71-2.871c15.226-7.906,11.35-25.737,7.379-35.949c-5.28-9.636-16.554-24.222-32.727-18.348
				c-16.172,5.873-8.548,13.639-20.522,18.293c-11.973,4.655-13.23,5.23-16.815,5.108c-3.586-0.122-5.438,6.471-5.171,8.6
				c0.27,2.13,4.905,11.002,4.905,11.002L482.265,56.147z"/>
			<path fill="none" stroke="#9D9FA1" stroke-width="3" stroke-linejoin="round" d="M516.053,5.673L516.053,5.673
				c14.257-5.178,24.239,8.217,28.976,16.799c3.497,9.076,7.26,25.112-6.034,32.016c-7.159,3.716-10.279,2.838-13.893,1.821
				c-3.48-0.979-7.425-2.09-13.757,1.019l-1.786,0.876c-10.131,4.969-11.687,5.732-14.243,8.761
				c-0.872,0.428-4.578-0.973-5.568-2.01c-0.656-0.792-2.777-5.266-4.707-9.951l-0.029-0.066l-4.896-10.415l-0.028-0.056
				c-2.051-3.922-4.385-8.885-4.594-10.019c-0.125-1.309,1.22-4.878,2.148-5.202c3.956,0.144,5.574-0.487,16.104-4.584l1.848-0.718
				c6.615-2.571,8.375-6.207,9.927-9.413C507.105,11.255,508.476,8.425,516.053,5.673z"/>
			<circle fill="#BCBEC0" stroke="#000000" stroke-width="3" stroke-linejoin="round" cx="455.967" cy="63.388" r="22.25"/>
			<path fill="none" stroke="#9D9FA1" stroke-width="3" stroke-linejoin="round" d="M473.413,55.252
				c4.486,9.62,0.31,21.096-9.311,25.582c-9.62,4.485-21.096,0.309-25.582-9.311c-4.485-9.62-0.309-21.096,9.312-25.582
				C457.451,41.456,468.928,45.633,473.413,55.252z"/>
			<path fill="#9D9FA1" stroke="#000000" stroke-width="3" stroke-linejoin="round" d="M478.665,70.458
				c1.269,2.719,2.565,4.32,5.89,2.771l0.755-0.352c3.324-1.55,2.931-3.574,1.663-6.293l-13.523-29.001
				c-1.269-2.719-2.565-4.321-5.89-2.771l-0.755,0.352c-3.324,1.55-2.931,3.574-1.663,6.292L478.665,70.458z"/>
			<path fill="#9D9FA1" stroke="#000000" stroke-width="3" stroke-linejoin="round" d="M438.788,89.053
				c1.268,2.719,2.565,4.32,5.89,2.771l0.754-0.352c3.324-1.55,2.932-3.574,1.663-6.293l-13.523-29.001
				c-1.268-2.719-2.565-4.321-5.89-2.771l-0.754,0.352c-3.324,1.55-2.932,3.574-1.664,6.292L438.788,89.053z"/>
		</g>
	</g>
</g>
<g id="Layer_2">
</g>
<g id="Layer_1">
</g>
</svg>
